<?xml version="1.0" encoding="UTF-8"?><svg id="a" xmlns="http://www.w3.org/2000/svg" viewBox="0 0 1000 1000"><defs><style>.b{stroke-width:6.49px;}.b,.c,.d{stroke:#0d1b3e;}.b,.c,.d,.e{stroke-miterlimit:10;}.b,.e{fill:#eead47;}.c{fill:#b23b25;stroke-width:3.89px;}.d{fill:#0d1b3e;stroke-width:7.78px;}.f{fill:#2c3856;}.e{stroke:#ede8d5;stroke-width:10.34px;}</style></defs><path class="d" d="M676.92,474.45c0-12.91-78.05-23.37-174.33-23.37s-174.33,10.46-174.33,23.37"/><g><path class="e" d="M479.03,56.56s15.93,159.71-7.17,238.17c-23.1,78.46,37.6,164.68,37.6,164.68,0,0,32.5-124.06,20.55-218.05-11.95-94-46.2-173.65-50.98-184.8Z"/><path class="e" d="M456.73,489.9s-46.2-30.67-65.32-70.89c-19.12-40.23-51.38-126.65-66.91-144.98-15.53-18.32-46.2-62.93-46.2-62.93,0,0,75.67,44.61,121.08,116.3,45.4,71.69,97.98,138.2,99.57,140.2s26.29,56.95-42.22,22.3Z"/><path class="e" d="M457.41,472.48s-47.88-50.54-58.08-97.18c-10.2-46.64-20.94-142.68-34.24-167.16-13.3-24.48-36.62-80.68-36.62-80.68,0,0,80.38,77.52,112.93,166.02,32.55,88.49,75.99,175.55,77.32,178.16s13.45,65.67-61.32,.85Z"/><path class="e" d="M487.48,462.78s-41.51-56.68-45.8-104.47-2.85-144.82-13.06-170.96c-10.21-26.14-26.41-85.19-26.41-85.19,0,0,70.62,87.87,91.96,180.29,21.35,92.42,53.78,184.86,54.78,187.64s5.13,67.16-61.48-7.32Z"/><path class="e" d="M522.04,466.78s46.41-53.75,55.65-108.32,18.1-168.44,30.81-195.92c12.7-27.48,34.73-91.63,34.73-91.63,0,0-78.06,81.43-108.63,183.04-30.57,101.61-71.94,199.89-73.2,202.84s-12.1,76.97,60.64,9.98Z"/><path class="e" d="M458.77,499.61s-49.65-19.14-74.96-51.9c-25.31-32.75-71.23-104.75-89.31-118.41-18.08-13.66-55.23-48.24-55.23-48.24,0,0,80.35,26.29,136.34,82.57,55.98,56.28,117.95,106.58,119.83,108.08s35.09,46.52-36.66,27.89Z"/><path class="e" d="M486.09,508.06s-50.74-1.35-85.28-23.35c-34.54-22-101.96-73.56-122.96-80.26-21-6.69-66.61-26.47-66.61-26.47,0,0,80.34-2.17,150.65,31.52,70.31,33.68,143.6,59.84,145.81,60.61s48.31,31.53-21.6,37.95Z"/><path class="e" d="M554.67,487.71s52.32-33.88,75.39-80.32c23.07-46.44,62.96-146.63,80.96-167.45,18-20.82,53.98-71.86,53.98-71.86,0,0-85.4,48.87-138.96,131.08-53.56,82.21-114.73,157.99-116.58,160.25s-31.81,65.79,45.21,28.29Z"/><path class="e" d="M561.4,468.02s60.94-52.92,77.42-101.76c16.48-48.84,38.41-149.4,56.36-175.03,17.95-25.63,50.71-84.49,50.71-84.49,0,0-101.61,81.18-148.31,173.85s-106.03,183.82-107.83,186.55c-1.81,2.74-22.14,68.76,71.66,.87Z"/><path class="e" d="M541.96,499.53s68.45-12.63,98.9-49.54c30.45-36.91,86.42-118.46,107.61-133.53,21.19-15.07,65.12-53.58,65.12-53.58,0,0-92.22,27.03-158.65,89.92-66.43,62.89-139.27,118.57-141.47,120.23s-53.58,45.02,28.49,26.5Z"/><path class="e" d="M499.63,512.21s77.93-9.18,114.52-32.36c36.59-23.18,108.83-77.41,130.43-84.54,21.59-7.13,69.01-28.08,69.01-28.08,0,0-79.92-1.64-153.31,33.98-73.39,35.62-149.03,63.43-151.31,64.25s-78.44,40.6-9.34,46.75Z"/></g><path class="d" d="M677.49,474.45c0,12.91-78.05,23.37-174.33,23.37s-174.33-10.46-174.33-23.37l68.39,8.43c64.4,7.94,129.23,8.34,193.68,1.18l86.59-9.61Z"/><path class="b" d="M327.1,482.04s-86.19,274.22,0,468.38c0,0,159.93,43.01,350.29,0,0,0,95.87-254.5,0-468.38,0,0-209.25,39.43-350.29,0Z"/><g><path class="f" d="M373.72,961.15c.41,.08,1.03-.36,.62-.93l-1.37,.09,.76,.84Z"/><path class="f" d="M373.97,955.89c-.9-.48-2.29-.9-3.16,.06,1.46,.24,1.07,.63,2.77,.82,.42,.57,.12,1.28-.36,1.37,.4,.09,.19,1.1,1.07,1.11,.53-1.24,.11-2.29-1.14-3.05,.15-.35,.56-.26,.8-.3Z"/><path class="f" d="M354.79,891.35l-.05,.46c.05-.13,.06-.29,.05-.46Z"/><path class="f" d="M347.78,850.27c.08,.31,.22,.42,.34,.42-.13-.28-.24-.51-.34-.42Z"/><path class="f" d="M348.18,843.04c-.02,.16-.02,.29-.03,.43,.1-.17,.14-.34,.03-.43Z"/><path class="f" d="M354.79,891.35l.15-1.18c-.43,.02-.18,.63-.15,1.18Z"/><path class="f" d="M367.42,948.51c.15,.2,.33,.33,.55,.44-.13-.16-.24-.31-.35-.48-.07,.02-.13,.03-.2,.04Z"/><path class="f" d="M360.36,908.86l.09,.32c.17,.06,.37,.1,.58,.13l-.68-.45Z"/><path class="f" d="M364.62,922.24c-.05-.32-1.13-.09-1.62-.06,.48,.03,.76,.19,.93,.43,.2-.06,.42-.18,.69-.37Z"/><path class="f" d="M370.31,943.9l.29,.31c-.08-.08-.19-.22-.29-.31Z"/><path class="f" d="M358,899.07c.15-.06,.28-.15,.35-.22-.13,.03-.25,.11-.35,.22Z"/><path class="f" d="M356.56,505.65c.07,.03,.13,.02,.19,.04-.09-.1-.16-.14-.19-.04Z"/><path class="f" d="M365.16,490.61v.23c.21,.07,.4,.14,.6,.18l-.6-.41Z"/><path class="f" d="M347.98,829.98s0,.04-.01,.06c.16,.32,.12,.14,.01-.06Z"/><path class="f" d="M343.02,710.85c-1.02,1.33-1.19-2.24-2.34-.24,.43-.18,1.65,1.91,2.34,.24Z"/><path class="f" d="M367.41,948.11c-.09-.17-.17-.35-.23-.54,.07,.26,.14,.43,.23,.54Z"/><path class="f" d="M340.68,710.61h0l-.11,.21,.12-.21Z"/><path class="f" d="M344.62,800.25c-.19,.07-.33,.2-.46,.34,.11-.02,.24-.1,.46-.34Z"/><path class="f" d="M344.96,822.63l.09-.56c-.08,.23-.09,.41-.09,.56Z"/><path class="f" d="M342.36,788.78c.07-.3,.21-.41,.04-.82-.05,.04-.09,.08-.13,.13,.16,.14,.24,.33,.09,.69Z"/><path class="f" d="M341.78,776.71c-.08,.07-.14,.15-.21,.23l.08,.38,.13-.61Z"/><path class="f" d="M350.61,542.19c.35-.21,.71-.32,1.06-.4-.8,.06-.78-1.75-1.06,.4Z"/><path class="f" d="M367.98,948.27c-.28,.04-.45,0-.58-.16,.07,.13,.14,.24,.21,.35,.16-.03,.31-.08,.37-.2Z"/><path class="f" d="M333.71,788.75l.05-1.95c-.08,.55-.09,1.25-.05,1.95Z"/><path class="f" d="M339.44,628.77l-.09-.45c-.04,.17-.03,.33,.09,.45Z"/><path class="f" d="M333.34,781.06c.37-.36,.58-.74,.71-1.12-.09-.08-.16-.17-.29-.21l-.41,1.34Z"/><path class="f" d="M351.68,541.79s-.01,0-.01,0c0,0,0,0,.01,0Z"/><path class="f" d="M351.23,528.79c-.34,1.81,1.24,1.09,1.99,1.62,.03,2.24-1.21,.82-2.07,1.44,.14,1.42,1.27,2.68,1.05,3.68-.25,.04-.36,.22-.62-.06,.89,1.62-.66,4.26,.49,6.16-.15,.1-.27,.15-.39,.16,.75-.15,1.48-.08,1.99,.06-.11,.82,.65,1.66-.33,1.81,.11-.49-.26-.6-.51-.88l.26,.92c-1.46,.55-.27-1.24-1.26-1.4,.16,1.74,.95,3.85,.38,5.07-1.35,.06,.03-3.05-1.4-1.54l.82-1.89c-2.3,1.18,.34-1.18-2.09-.15-.8,2.54,.2,3.02-.59,5.55,.63,.7,1.1-.02,1.74,.67,.72,3.89-3.73,2.39-2.41,5.38,.76,.84,2.37,1.36,1.21,3.16l-1.38-.88c-.53,2.5,1.91,1.76,.52,4.25-.51-.56-.2-2.05-.43-1.7-1.42,1.54,.66,1.33,.46,2.65l-1.35,.08c-.2,2.72,.34,5.81,.15,8.82-.37-.22-.7-.79-1.2-.15,.13,3.85-1.27,7.99-2.53,11.52l.95,1.53c-.06,.32-.59,.53-.76,.15-.62,1.36,.71,.17,1.06,.9-.03,.81-.79,.98-1.06,.42,.64,2.62,1.16,7.37-.38,9.84l-.27-.55c-.71,1.99,2.04,2.59,.76,4.36l-.16-.39c-1.04,4.38-.55,9.42-2.65,12.62,1.56,.83-1.21,4.33,1.04,4.86-1.41,2.42-1.74,1.65-2.87,5.15-.2,.95,1.28,1.57,1.39,2.78l-1.2-.09,1.09,1.73-1.51,.71,.2,1.14c.11-.44,.63-.89,.96-.79,.37,1.79-1.24,4.14-1.86,4.13l.61,4.2c-.47-.14-.57-.84-.83-1.41,1.01,2.31-1.3,.28-.37,2.39,.3-.24,.7,.21,.94,.28-.81,.93-1.03,3.21-.87,4.93l-.79-.4c-.5,3.03-.15,6.46-.46,9.88,.49-1.2,1.89-.8,1.95,.22l-1.3,.3c.73,.71,.56-1.01,1.41,.4-.25,1.26-1.51,.74-1.86-.02l.32,1.59c-.38,.06-.56-.32-1.03-.45,.74,.7-1.47,2.59-.18,3.61l-.38,.06c-.27,3.42,.04,5.01-.08,7.8,1.09,.13,.77,1.21,1.6,2.1-.49,2.02-1.51,4.24-1.56,6.72,.44,1.77,.89,.57,1.5,1.39-1,.07-1.06,2.54-1.7,1.22-.02,2.98-.04,3.8,.57,7.6,.43-.38,.63-.83,.96-.58,.13,.69-.5,1.52-.97,1.4l-.09-.19c1.25,4.28-3.39,9.58-1.46,13.04l-.09-.19,.94,3.52c-.23,1.59-.71-.99-1.37,.17,1.53,3.82-.47,5.93,.55,9.06-3,2.31-.05,8.5-1.97,11.7l.7-.17c.66,.85-.42,1-.59,1.62,.54-.08,.64-.9,1.01-.37,.68,7.09-1.21,14.6-1.82,21.89-.18,2.66,3.57,1.49,1.96,4.85l-1.3-.94c.8,2.68,.82,5.42,.81,8.15,0,2.73,0,5.45,.71,8.05-.3-.31-.69-.3-.7-.82-.91,1.13,.05,4.1,.82,4.1-.06,.82-.68,.21-1.05,.72-.51,1.13,1.28,2.76,.38,3.38-.15,.11-.31-.3-.39-.5,.48,.71,0,3.38,1.05,2.65-.46,1.99,.62,3.75,.05,5.35,1.25,.97-.43,3.4,1.29,3.64-1.76-.06-1.28,3.52-.36,4.72-.56-.39-.49,1.11-1.25,.66,.11,1.42,.51,2.71,1.4,2.41-1.94,2.74,1.98,5.15-.6,6.8,1.25,4.16,2.13,8.01,2.88,11.76-1.76,0-.53-4.17-2.34-3.87,1.01,3.55,2.7,5.49,2.57,9.09-.16,.94-.8-.46-1.13-.74,1.02,3.53,.51,6.96,1.76,10.05-.16,0-.38-.32-.54-.63,.12,.62-.11,1.49,.67,1.34l-.28-.59c1.05-1.12,2.65,2.24,3.29,2.28-2.39-.82-.22,3.2-3.28,1.83,.2,.4,.63,.87,1.15,.72-.08,.63-.37,.86-1.05,.3,.69,2.2,1.44,1.31,1.65,3.34-.39,.04-.58-.36-1.05-.51,.87,.95,1.72,1.89,1.61,3.65-.24-.08-.52,.16-.58-.35,.5,2.94,2.64,4.77,2.34,8.1-1.79-.73-.41,1.17-1.82,1.54l.68,1.68,.6-.79c.2,1.53,1.44,2.72,1.16,4.09l-.76-1.04,.69,2.81,.31-1.69c.96,1.43,1.79-.43,1.69,1.64-.21-.39,.2,1.52-.53,2.44h0c.58,.67,1.18,1.37,1.01,2.54-.41,.36-1.63,.02-1.9,.26,1.32,.55,.91,3.5,2.34,4.22-.35-.26-1.11-.15-1.24-.02l1.08,.46c-.2,.75-.33,.88-.95,.87,.17,2.14,1.7-.98,1.34,1.66-.11-.18-.25-.06-.46-.45,.04,2.58,1.5,4.73,1.44,7.12-1.31,.95-.72-1.95-1.79-.95,.84,3.29,3.04,6.55,3.35,9.82l.04-.63c2.12,.03-.53,2.59,.77,4.01-.24-.36-1.24-.28-.99-.22,.16,2.26,1.49,4.37,2.86,7.54l-.61-.29c-.19,1.4,.52,3.45,.63,4.89,.62,.29,.73,1.1,1.36,.44-.94,2.49-.07,4.45,.91,6.3,.98,1.85,2,3.61,1.3,5.83-.13-.45-.74-.95-.64-.59l1.34,3.08c.79-.5,.41-.57,.9-1.43,.62,.26,1.26,1.05,1.5,1.84-.99-1.27-1.39,.4-1.69,1.16,.23-.18,.59-.05,.84-.18-1.05,2.11,1.82-.22,1.45,2.34h-.49c.48,.79,1.31,1.4,1.45,2.35-.88,.68-.73-.76-1.57-.58,.44,1.27,2.61,1.97,2,3.43-.46-.45-.69-1.24-1.13-1.7-.8,1.63-.45,1.68-.33,2.68v-.1l.17,2.34,.14-.65c3.1,.78,1.52,3.11,3.9,4.71-2.27-1.56-1.03-.04-2.2,.17-.14,.66-.21,1.61-.6,1.48,1.26,.71-.12,1.94,1.7,2.92-.34,.19,.34,1.1-.64,1.18,.74,1.22,.51-.53,1-.57,1.93,1.59,.16,5.32,2.97,7.6,1.63,2.24,3,2.23,4.47,4.3-.26,1-1.53-.13-1.53-.13-.05,1.46,.47,2.35,1.34,3.36-.41-.11-.56,.24-.81,.76,.48,.9,1.54,.1,1.53,1.56-.48-.05-1.22-.06-1.8-.36,.78,.98,1.89,1.8,2.68,2.81-.48,.56-1.21-.3-1.78-.54,.41,.59,.89,1.37,1.42,2,.55,.62,1.13,1.09,1.69,1.08l-.02-.96c.25,.44-.72,.6-1.05,.33-1.25-.76-.34-1.73-.02-1.94l.56,.72c1.7-1.71-1.68-3.13-2.25-4.83l1.78,.07-1.94-1.17c.24-.52,.98-1.1,1.54-.38,.26-1.47-.96-.82-.55-2.16,.08-.16,.18-.14,.28-.06-.31-.32-.6-.65-.9-.97,.4,.1,.99-.61,1.04,.18,.08-2.41-2.4-2.9-1.55-4.12l.16,.14c-1.61-2.68-1.22,.15-3.35-1.53l2.2-2.47-1.22,.12c-.06-.31-.19-.94,.3-.99-1.15-.84-.42,.37-1.37-.02,.51-1.81-1.87-3.82-.2-4.77-1.03-.22-.18,1.61-1.31,.27,1.78-1.1-.97-1.67-.52-3.3,1.12,.08,1.03,1.5,1.47-.12-1.94-.24-.46-2.71-1.14-3.71-1.36,.38-1.34-2.25-2.39-3.99,.47-.01-.31-3.79-.34-5.69h.24c-1.47,.05-1.75-1.85-2.42-3.09,.84-.18,1.23-.03,1.81,.58l-.37-1.24c-.53-.17-.86-.49-1.24-1.26l1.11,.03c-.5-1.64-2.11-3.02-2-5.34-1,.13-2.22,2.42-3.48,.31,.5-.22,1.37-.54,1.74,0-.12-.18-.62-.58-.5-1.03l1.12,.68c.12-1.08-.87-.32-1-1.12,.75-.18,.38-.72,1-.76,.13,.18-.12,.76,.25,.98-.11-.91,.06-2.09,.54-2.59-.4,.18-1,.26-1.26-.37-.46-1.66,.76-.8,.9-1.87-.62-.28-.34-1.47-1.46-1.23-.11-.49,.38-.71,.64-.97-.7-.75-1.13-4.01-2.08-2.75l-.02,.24s-.05-.09-.08-.13h0c-1.78-2.6-.7-6.08-1.81-8.81l.38-.08c-.81-1.6-1.03-3.73-2.09-4.78-.1-.5,.45-1.33,.94-1.2-.55-1.24-1-1.31-.76-3.3,.92,1.18,.49-.56,.75,1.24-.01-1.75,.5-2.24-.85-3.87,1.08,.44,.99-1.5,.55-2.25l-.48,1.31c-.31-.88-.36-1.69-.43-2.5l1.35,.2c.46-1.87-.48-3.3-1.28-4.67-.77-1.37-1.39-2.67-.31-4.2-1.04-.77-.32,1.99-1.5,1.34-.09-1.63,1.47-3.59,1.4-4.09,.35-2.29-2.22-1.74-2.06-4.12-.41,.36-1.59,.83-2.27-.83-.07-1.64,1.63-2.26,2.14-1.3,.09,.38-.02,.59-.18,.59,.24,.49,.54,1.14,.94,.44l-.49-.14c.35-.86-.02-3.06,.8-2.65-.61-1.15-.83-.41-.93,.52,.37-2.15-.46-3.21-.3-5.39-.21,.37-.71,.76-.74,.42,.16-3.19-1.05-1.25-1.52-3.34,.54-1.29,1.72,.21,.86-1.83,.31-1.36,1.18-.43,1.62,.04-1.13-1.82,.1-3.68,.15-4.8l.49,.97c-.3-.58-.34-1.08-.4-1.59l-.85,.69c.09-.62,.04-1.12,.42-1.16-.67-.55-1.47,.65-2.43-.48,.38-.85-.78-2.38,.41-2.79-.13,2.56,1.19-.42,1.63,1.68-.19-.39-.24-.89-.15-1.51,.13-.11,.26,.06,.35,.21,.82-2.52-1.5-.95-1.76-3.44,.72,.24,1.24-.72,1.04-1.11,.1,1-1.09,.6-1.72-.26,.38-1.66-.57-1.7-.59-2.54l-.16,.98c-.72-.25-.71-1.06-1.03-2.16,.53-.15,.47,.98,.66,.56-1.33-1.12,.98-2.92,0-4.57,.39-.84,1.28-.2,1.53-.93-1.08-1.85,.76-2.18-.16-4.15-.88,.67-.64,.75-1.66-.61l.93,3.29-1.53-2.03c.07,1.01,.76,2.08,.65,2.7-.84-.96-.6-.87-1.33-.32,1.27-1.51-1.04-2.68-.24-4.36l2.29-.14c.83-2.48-1.56-4.17-1.19-7.35l-.33,1.03c-.94-.35-.26-1.92-.7-2.91,.77,.04,1.01-.61,1.45-1.08-.57,.09-.11-2.29-1.66-2.47l.91-1.46c.26-2.55-2.35-2.75-2.24-5.2,.88,.68,1.36-.45,2.05,1.14-.04-.81,.06-1.55-.47-1.53,.45-.5-1.16-2.19-.48-2.98-.36-.32-1.17-.39-1.16-1.31,.15-.11,.38-.02,.38-.02-.38,.02-.58-1.4-1.4-.56,2.28-2.62-.49-7,1.47-9.27-.32-1.76-.64-3.89-.75-5.5,.23,.1,.38,0,.31,.3,.64-2.24-2.25-1.3-1.54-3.85,1.2-1.33,.72,1.32,1.16,.5,2.51-.42-.43-3.04,1.01-4.78l.16,.41c.83-1.32-1.03-3.15-.89-5.28,0,0,.23,.1,.38,0-1.33-1.43-1.77-4.18-2.16-6.22,1,.63,.53,.92,1.53,.52-.15-.92-1.61,.29-1.91-1.54,.54-.6,.99-1.93,2.06-2.11l.08,1.73c1.38-.9-.07-2.23,.16-3.14l.61,.11c-.21-2.64-1.73-2.67-1.63-5.52l-.46,.29c-1.51-1.56,.85-1.3-.28-2.86l1.54-.47c-.38-1.03-1.47-3.6-1.74-5.44,1.13,1.05,1.68,3.21,2.36,4.54,0-1.02-.09-3.45-.84-3.99,.14,.41,.52,.93,.28,1.33-1.2-1.25-1.77-2.9-1.73-4.93,2.96,.39,.81-5.28,3.16-6.7-1.04-3.6,.6-7.09,.56-11.26-2.36,1.41-.03-1.22-2.42-1.03-.13-.98-.08-1.35,.08-1.43l1.52-2.9c.72-.67,.49,.94,1.03,.87,.26-2.12,1.04-.86,1.72-2.24-.86,.26-1.19-.78-.82-1.98l-1.16,1.67c-1.16-3.02,2.09-2.49,.95-5.53l.71,.98c-.4-1.55,.26-5.66-1.58-7.25,.29-.26,.95-.59,1.09,.1,.44-3.65-1.62-8.27-.3-11.06l.57,.31c-.13-.69-1.03-1.25-.4-2.08,.24,.06,.56,.31,.62,0-.18-.37-.91-1.88-.52-2.76l.61,.81c.98-3.53-1.26-5.59-1.46-8.62,1.71,.12,2.46-2.66,2.83-4.04l.24,.07c.49-4.14-.9-7.17-1.28-11.08,2.03-2.25,1.44-8.04,2.81-11.79-.36,.56-1.32-.21-1.43-.91,.43-.87-.96-2.6,.59-2.32l-.06,.32c1.6-.54,1.35-2.43,1.53-3.87l-2.02-.43c3.34-3.5-.14-10.02,2.75-11.82-.42-.96-.29-2.09-.71-3.05l1.09,.16c.54-2.5,.82-3.74,.9-6.89l.71,.72c.26-1.75-2.91-2.57-2.8-4.2l1.69-.31c.33-3.08,2.12-6.01,1-9.22,.23,.08,.69,.22,.7,.73,.22-1.44,1.78-5.45-.52-5.2,1.46,.14,.53-3.15,.1-4.89l1.04,.39c-1.2-1.57-1.57-1.66-1.7-3.67,.2-.45,.91-.29,.56,.28,.76-1.47-.87-1.33-.05-3.13l.59,.79c.29-1.58-.09-1.5-.78-2.48-.3-1.06,.67-2.98,1.67-3.08-.56-.29-1.24-1.27-.84-2.17,.38-.08,.57,.29,.65,.48,1.1-2.55-.71-4.11,.6-5.79,.36,.01,.56-.08,.68-.22-.32,2.1-.61,3.79-.67,3.62,.99,.14,1.4-1.54,2.58,0-.56-1.46-1.86-4.02-1.16-5.62,.11-.07,.21-.13,.37-.17l.09,.19c.15-.37,.11-.72-.01-1.07,.24-.51,.41-.82,.49-1.33,.85-.08,.72-1.88,.88-2.72-1.09-.09-.76-1.17-1.8-.26,.1-.12,.11,.18,.07,.75,.01,.13,0,.28,.06,.38l-.09-.07c-.05,.56-.13,1.29-.23,2.12-.45-.75-.82-1.51-.08-2.37-.63-.54-1.28-1.12-1.58-1.44,1.68-.94,2.83-3.05,3.8-3.23-.23-2.67,.51-6.14-1.27-8.08-.15-.78,.71-.76,1.07-.98,.14,.46,.03,.96,.29,1.23-.3-1.55,.47-4.38-.89-4.95,.93-1.75,1.14,1.25,1.31-1.33l.38,.41c3.05-4.63-2.31-8.72,1.52-13.78-.24,.35-.36,.53-.61,.57,2.34-6.09,1.04-13.22,4.21-19.06,.73-1.69-.13-2.05-.62-3.25l1.23-.17-.99-2.09c-.48-2.8,3.69-3.97,2.5-7.63l-.86,.27c.38-1.16,.29-3.84,1.14-3.47-.12-.15-.73-.55-.23-.93l.61,.09-.44-3.12c.9-2.16,2.32,.84,3.12-2.4,.02-1.26-1.01-3.82-1.51-3.46-.14,.48-.65,1.17-1.26,1.08l-.07-1.18c-1.72-.59-3.35-1.87-5.19,.65l.68,2.16-.99,.44,.29-1.63c-1.01,.75-.41,1.49-.05,2.24-.49,.06-.87,.26-1.12,.61l1.31,2.24c-.74,.09-1.21-1.13-1.85,.06,.61,1.05,1.73-.53,1.95,1.04-.99,.76-1.6,.36-1.12,1.58-.49,.06-.73-.23-.85-.7,.35,1.07-.28,2.6,.57,3.28-1.19,.76-.38,3.3-2.04,2.88,.34,.38,1,1.95,.9,2.85-1.71-2-.75,3.29-2.83,2.46,1.59,1.54,0,4.48,.62,6.79-.12-.14-.37-.43-.24-.6-.37,1.17-.98,1.41-1.46,2.12,1.47,.43,1.48,2.35,2.23,3.52-1.71,1.21-1.6-1.2-3.08-.99,1.23,.14,.76,2.76,1.86,2.44-1.09,.96-.6,.89-1.95,1.25,1.84,.53,.14,1.1,1.13,2.23-1.21,1.46-1.83,.11-1.57,2-.72,.75-1.11-.95-1.11-.95Zm-3.4,43.03h-.02l.06-.89-.04,.89Zm-.48,3.58c.1-.43,.18-.97,.26-1.55,.39-.07,.76,.12,.69,.47-.22-.23-.56,.58-.95,1.07Zm8.57-6.49c.07,.58-.17,.74-.4,.79,.02-.27,.03-.58,.01-1-.04-.02-.08-.06-.12-.09,.2,.08,.38,.17,.51,.3Z"/><path class="f" d="M354.64,567.7c-.01-.08-.05-.14-.05-.24-.11,.1-.21,.2-.29,.3l.31,.25,.03-.31Z"/><path class="f" d="M354.73,891.88v-.08c-.02,.07-.05,.14-.11,.19,.04-.06,.07-.07,.11-.11Z"/><polygon class="f" points="339.31 624.71 339.59 624.73 339.38 624.39 339.31 624.71"/><path class="f" d="M356.1,912.05c-.08,.06-.16,.16-.19,.33,.07-.03,.13-.17,.19-.33Z"/><path class="f" d="M358.33,920.39v1.28c.05-.57,.03-.97,0-1.28Z"/><path class="f" d="M359.84,926.88c.21,.02,.35,0,.49-.02h0l-.49,.02Z"/><path class="f" d="M337.72,823.82c-.01-.09-.04-.17-.07-.25-.27-.58-.15-.18,.07,.25Z"/><path class="f" d="M344.21,854.59c-.24-.3-.48-.59-.66-.92,0,.56,.04,1,.66,.92Z"/><path class="f" d="M333.71,788.96s0,0,.02,0v-.22l-.02,.21Z"/><path class="f" d="M343.36,852.23c-.14,.58-.02,1.04,.19,1.44,0-.46,.04-1.01-.19-1.44Z"/><path class="f" d="M369.62,954.03l.09,.31c.06-.03,.13-.04,.18-.04l-.27-.28Z"/><path class="f" d="M369.88,954.31l.26,.27c-.07-.15-.13-.28-.26-.27Z"/><path class="f" d="M370.71,955.16l-.56-.57c.1,.24,.2,.54,.56,.57Z"/><path class="f" d="M366.69,945.69l-.41,.05c.1,.02,.23,0,.41-.05Z"/><path class="f" d="M365.61,943.24c.15,.63-.23,1.81,.35,2.55l.33-.04c-.72-.17,.17-2.19-.67-2.51Z"/><path class="f" d="M366.38,931.13l.43,2.19c.27-.51,.64-1.18,1.06-.26,.27-3.05-.7,.86-1.5-1.93Z"/><path class="f" d="M364.75,924.46c.55,1.07,.58-.21,.82-.22-.59-.59-.74-.74-.82,.22Z"/><path class="f" d="M352.32,876.56l1-.08c-.32-.87-.38,.07-1,.08Z"/><polygon class="f" points="345.49 868.17 345.04 869.17 346.01 869.42 345.49 868.17"/><polygon class="f" points="351.5 861.42 351.7 861.79 351.1 860.35 351.5 861.42"/><path class="f" d="M342.84,778.81l-1.21,.33c.25,.61,1.63,.68,1.21-.33Z"/><path class="f" d="M340.85,742.88c.61-.39,1.01-1.4,.4-2.03-.08,.81-.56,1.62-.4,2.03Z"/><polygon class="f" points="348.16 635.2 348.5 635.96 348.29 634.57 348.16 635.2"/></g><g><path class="f" d="M431.94,967.83c.41,.1,1.05-.32,.67-.91l-1.37,.03,.7,.88Z"/><path class="f" d="M432.5,962.59c-.87-.52-2.22-1.01-3.14-.08,1.44,.31,1.03,.68,2.71,.94,.38,.59,.04,1.28-.44,1.35,.39,.1,.12,1.11,1,1.15,.6-1.22,.24-2.29-.95-3.1,.17-.34,.57-.24,.82-.27Z"/><path class="f" d="M416.73,897.52l-.08,.45c.06-.13,.08-.29,.08-.45Z"/><path class="f" d="M411.51,856.4c.07,.31,.21,.43,.33,.43-.12-.28-.22-.51-.33-.43Z"/><path class="f" d="M412.14,849.22c-.02,.15-.03,.28-.04,.42,.1-.17,.15-.33,.04-.42Z"/><path class="f" d="M416.73,897.52l.21-1.16c-.43,0-.21,.61-.21,1.16Z"/><path class="f" d="M426.28,954.96c.14,.2,.33,.34,.54,.46-.12-.16-.23-.32-.33-.49-.07,.01-.13,.03-.2,.03Z"/><path class="f" d="M421.4,915.19l.07,.33c.16,.06,.36,.12,.57,.16l-.64-.48Z"/><path class="f" d="M424.94,928.71c-.03-.32-1.12-.14-1.61-.14,.48,.06,.75,.23,.9,.48,.2-.05,.43-.15,.71-.34Z"/><path class="f" d="M429.42,950.52l.26,.33c-.08-.08-.17-.23-.26-.33Z"/><path class="f" d="M419.52,905.36c.15-.06,.28-.13,.36-.2-.13,.03-.25,.1-.36,.2Z"/><path class="f" d="M418.76,513.17c.08,.02,.13,.01,.19,.03-.1-.1-.17-.13-.19-.03Z"/><path class="f" d="M426.68,497.87l.02,.23c.2,.06,.4,.12,.6,.15l-.62-.38Z"/><path class="f" d="M412.42,836.22s0,.03-.02,.06c.15,.33,.11,.14,.02-.06Z"/><path class="f" d="M409.36,717.51c-1.02,1.32-1.19-2.24-2.34-.24,.43-.17,1.65,1.9,2.34,.24Z"/><path class="f" d="M426.29,954.57c-.08-.18-.16-.36-.22-.54,.06,.26,.13,.43,.22,.54Z"/><path class="f" d="M407.02,717.27h0l-.11,.21,.12-.21Z"/><path class="f" d="M409.87,806.54c-.19,.07-.33,.2-.47,.33,.11-.02,.25-.09,.47-.33Z"/><path class="f" d="M409.59,828.82l.11-.56c-.09,.22-.11,.4-.11,.56Z"/><path class="f" d="M407.87,795.07c.07-.3,.22-.41,.06-.81-.05,.04-.09,.08-.13,.13,.15,.14,.23,.34,.07,.68Z"/><path class="f" d="M407.55,783.05c-.08,.07-.14,.15-.22,.23l.07,.38,.15-.61Z"/><path class="f" d="M414.16,549.65c.34-.22,.7-.34,1.05-.43-.79,.08-.84-1.71-1.05,.43Z"/><path class="f" d="M426.86,954.75c-.29,.03-.45-.03-.57-.18,.06,.13,.13,.25,.2,.36,.17-.02,.31-.07,.37-.18Z"/><path class="f" d="M399.23,794.87l.09-1.93c-.09,.54-.11,1.24-.09,1.93Z"/><path class="f" d="M405.14,635.92l-.09-.45c-.04,.17-.02,.33,.09,.45Z"/><path class="f" d="M399.01,787.23c.38-.35,.6-.72,.73-1.1-.09-.08-.16-.17-.29-.22l-.45,1.32Z"/><path class="f" d="M415.22,549.22s-.01,0-.01,0c0,0,0,0,.01,0Z"/><path class="f" d="M414.32,536.33c-.28,1.81,1.28,1.04,2.04,1.54,.12,2.22-1.18,.86-2.01,1.5,.2,1.4,1.37,2.62,1.18,3.62-.24,.04-.36,.23-.62-.04,.94,1.58-.51,4.25,.69,6.1-.14,.11-.27,.15-.38,.17,.75-.18,1.48-.12,1.99,0-.08,.82,.71,1.62-.26,1.81,.09-.49-.28-.58-.54-.86l.3,.9c-1.44,.59-.32-1.22-1.31-1.35,.23,1.72,1.09,3.8,.55,5.02-1.34,.1-.06-3.03-1.45-1.48l.75-1.91c-2.26,1.24,.3-1.18-2.09-.08-.71,2.55,.3,2.99-.41,5.53,.65,.67,1.1-.06,1.76,.62,.85,3.84-3.67,2.49-2.25,5.41,.79,.81,2.42,1.28,1.31,3.1l-1.41-.84c-.45,2.5,1.96,1.69,.65,4.21-.53-.54-.26-2.03-.48-1.68-1.38,1.57,.7,1.31,.54,2.62l-1.35,.12c-.11,2.7,.48,5.76,.4,8.76-.37-.21-.73-.76-1.21-.12,.24,3.82-1.06,7.97-2.24,11.5l.99,1.5c-.05,.32-.57,.54-.76,.17-.58,1.36,.71,.15,1.09,.87,0,.81-.76,.99-1.05,.44,.7,2.59,1.34,7.29-.15,9.79l-.28-.54c-.67,1.99,2.08,2.53,.84,4.32l-.17-.38c-.91,4.38-.34,9.37-2.38,12.59,1.57,.79-1.14,4.32,1.13,4.81-1.35,2.43-1.7,1.67-2.76,5.17-.19,.94,1.31,1.54,1.44,2.74l-1.2-.07,1.12,1.7-1.5,.73,.21,1.13c.11-.43,.62-.89,.95-.79,.39,1.77-1.19,4.13-1.81,4.13l.7,4.17c-.47-.13-.59-.83-.85-1.39,1.05,2.28-1.29,.3-.32,2.38,.29-.25,.7,.2,.94,.26-.8,.94-.98,3.21-.8,4.91l-.8-.38c-.43,3.02-.11,6.42-.35,9.82,.46-1.19,1.88-.81,1.95,.19l-1.29,.31c.74,.7,.55-1.01,1.42,.38-.23,1.26-1.49,.75-1.86,0l.34,1.58c-.38,.06-.56-.31-1.03-.44,.74,.69-1.44,2.58-.14,3.59l-.38,.06c-.23,3.4,.1,4.98-.02,7.75,1.09,.12,.78,1.19,1.6,2.07-.49,2.01-1.45,4.23-1.49,6.69,.45,1.76,.9,.56,1.51,1.37-1,.07-1.04,2.53-1.69,1.22,0,2.96,0,3.78,.6,7.54,.43-.38,.63-.83,.96-.58,.13,.68-.5,1.52-.97,1.4l-.09-.18c1.26,4.25-3.32,9.53-1.4,12.96l-.09-.19,.94,3.5c-.24,1.58-.71-.98-1.37,.17,1.5,3.79-.49,5.89,.55,9-3.01,2.29-.03,8.45-2,11.61l.7-.17c.65,.85-.42,.99-.6,1.6,.54-.07,.65-.89,1.01-.36,.66,7.05-1.23,14.5-1.97,21.72-.2,2.64,3.58,1.52,1.93,4.84l-1.29-.95c1.55,5.33-.03,10.9,1.29,16.11-.3-.31-.68-.31-.68-.82-.95,1.11,.03,4.08,.78,4.08-.07,.81-.69,.2-1.06,.7-.53,1.12,1.25,2.76,.33,3.36-.15,.1-.31-.31-.39-.51,.47,.71-.05,3.36,1.02,2.65-.47,1.97,.55,3.73-.05,5.31,1.22,.99-.51,3.37,1.2,3.64-1.78-.09-1.32,3.47-.43,4.68-.55-.4-.51,1.09-1.26,.63,.08,1.41,.46,2.7,1.35,2.42-2,2.68,1.9,5.16-.74,6.73,.56,2.08,1.03,4.08,1.44,6.03,.43,1.95,.82,3.84,1.14,5.72-1.76-.04-.43-4.15-2.26-3.9,.94,3.55,2.57,5.52,2.36,9.09-.18,.93-.79-.47-1.11-.77,.94,3.53,.25,6.92,1.42,10.03-.16,0-.38-.33-.53-.64,.1,.62-.14,1.47,.65,1.35l-.27-.59c1.07-1.08,2.62,2.3,3.24,2.37-2.37-.89-.31,3.17-3.33,1.71,.18,.4,.61,.89,1.13,.75-.1,.62-.4,.84-1.05,.27,.62,2.21,1.4,1.34,1.56,3.37-.39,.03-.57-.37-1.04-.54,.84,.97,1.68,1.93,1.5,3.67-.24-.08-.53,.14-.56-.37,.38,2.94,2.4,4.83,2,8.12-1.78-.78-.43,1.15-1.85,1.47l.62,1.69,.62-.77c.14,1.52,1.35,2.75,1.02,4.1l-.72-1.06,.59,2.81,.37-1.67c.92,1.45,1.81-.36,1.63,1.69-.19-.39,.15,1.51-.61,2.4h0c.54,.69,1.11,1.4,.88,2.57-.43,.35-1.62-.04-1.91,.18,1.29,.6,.73,3.51,2.12,4.29-.34-.27-1.1-.2-1.24-.07l1.06,.5c-.21,.74-.35,.86-.97,.82,.12,2.13,1.73-.9,1.3,1.69-.11-.19-.24-.07-.45-.46-.05,2.57,1.31,4.76,1.15,7.13-1.35,.89-.64-1.97-1.75-1.01,.74,3.3,2.7,6.64,2.83,9.9l.07-.62c2.09,.12-.6,2.55,.65,4.01-.22-.37-1.22-.33-.98-.26,.06,2.25,1.29,4.41,2.52,7.61l-.59-.32c-.24,1.38,.33,3.45,.34,4.9,.59,.32,.65,1.13,1.32,.5-1.14,2.44-.22,4.4,.64,6.29,.89,1.89,1.82,3.68,1,5.85-.1-.45-.69-.98-.61-.62l1.18,3.13c.82-.45,.44-.54,.98-1.38,.61,.29,1.21,1.11,1.38,1.9-.89-1.31-1.41,.33-1.76,1.08,.25-.17,.59-.02,.85-.14-1.19,2.05,1.82-.13,1.27,2.41h-.49c.45,.79,1.27,1.42,1.37,2.37-.91,.63-.71-.79-1.56-.65,.4,1.28,2.58,2.07,1.88,3.49-.42-.48-.64-1.26-1.06-1.74-.85,1.57-.51,1.64-.45,2.64v-.1l.04,2.33,.17-.64c3.05,.93,1.34,3.17,3.63,4.88-2.17-1.67-1.03-.09-2.21,.06-.17,.64-.3,1.59-.68,1.44,1.19,.78-.27,1.93,1.46,3.01-.34,.17,.31,1.1-.68,1.14,.71,1.25,.53-.5,1.03-.52,1.88,1.67,.01,5.26,2.64,7.68,1.5,2.31,2.86,2.37,4.2,4.5-.33,.98-1.51-.2-1.51-.2-.11,1.45,.23,2.4,1.12,3.42-.4-.13-.57,.21-.84,.71,.45,.92,1.54,.17,1.49,1.61-.48-.07-1.22-.12-1.79-.43,.75,1.01,1.84,1.87,2.6,2.9-.5,.54-1.21-.35-1.77-.61,.78,1.2,1.85,3.17,2.97,3.19l.03-.96c.23,.45-.75,.56-1.06,.28-1.19-.82-.27-1.74,.06-1.93l.54,.74c1.77-1.62-1.58-3.16-2.09-4.87l1.79,.15-1.91-1.24c.26-.5,1.02-1.04,1.56-.31,.3-1.43-.91-.87-.4-2.18,.1-.16,.19-.13,.28-.05l-.83-1.02c.39,.12,1.02-.56,1.03,.23,.22-2.39-2.22-3.01-1.31-4.18l.15,.14c-1.44-2.75-1.22,.09-3.24-1.69l2.33-2.35-1.23,.06c-.05-.31-.16-.94,.33-.96-1.13-.88-.43,.34-1.37-.09,.58-1.76-1.76-3.86-.02-4.72-1.02-.28-.28,1.59-1.32,.2,1.84-1.01-.81-1.72-.26-3.32,1.12,.13,.92,1.55,1.47-.04-1.92-.34-.31-2.71-.93-3.75-1.38,.31-1.21-2.31-2.17-4.09,.5,0-.2-3.76-.13-5.65h.24c-1.46-.02-1.6-1.92-2.18-3.2,.85-.14,1.23,.03,1.76,.67l-.28-1.26c-.51-.2-.83-.53-1.17-1.32l1.11,.08c-.42-1.66-1.96-3.1-1.72-5.41-1,.08-2.34,2.3-3.49,.14,.51-.2,1.39-.47,1.74,.09-.11-.18-.59-.61-.45-1.05l1.08,.73c.18-1.06-.85-.36-.94-1.16,.76-.14,.41-.69,1.03-.7,.12,.19-.16,.75,.2,.99-.06-.91,.16-2.08,.65-2.54-.41,.16-1.01,.21-1.25-.42-.42-1.67,.78-.75,.96-1.81-.63-.3-.26-1.48-1.39-1.29-.08-.5,.43-.69,.7-.94-.65-.78-.86-4.05-1.89-2.85l-.04,.24s-.04-.09-.07-.13h0c-1.63-2.67-.41-6.08-1.4-8.84l.38-.06c-.72-1.63-.96-3.73-1.92-4.83-.07-.51,.52-1.3,1.01-1.16-.47-1.26-.92-1.34-.56-3.33,.85,1.21,.52-.54,.68,1.27,.09-1.75,.64-2.22-.66-3.88,1.06,.48,1.05-1.45,.64-2.21l-.53,1.29c-.27-.89-.3-1.69-.33-2.51l1.34,.26c1.09-3.67-3.59-5.89-1.25-8.88-1-.81-.42,1.97-1.56,1.28,0-1.63,1.65-3.52,1.6-4.02,.47-2.27-2.11-1.82-1.88-4.18-.43,.34-1.62,.76-2.24-.91,0-1.63,1.71-2.18,2.19-1.21,.08,.38-.04,.58-.2,.58,.22,.5,.5,1.16,.92,.47l-.48-.16c.38-.85,.08-3.04,.9-2.61-.57-1.16-.81-.44-.95,.49,.44-2.12-.34-3.21-.13-5.37-.22,.36-.72,.73-.75,.39,.22-3.16-1.01-1.28-1.41-3.37,.6-1.27,1.71,.27,.94-1.8,.36-1.34,1.2-.39,1.62,.09-1.05-1.85,.28-3.66,.35-4.77l.46,.98c-.27-.59-.31-1.09-.35-1.59l-.87,.66c.11-.61,.07-1.12,.45-1.14-.66-.56-1.49,.6-2.42-.55,.4-.84-.71-2.39,.49-2.76-.2,2.54,1.2-.38,1.58,1.73-.18-.4-.22-.9-.11-1.51,.13-.1,.26,.06,.34,.22,.89-2.48-1.48-.99-1.66-3.48,.72,.26,1.26-.68,1.08-1.07,.07,1-1.11,.57-1.71-.31,.4-1.63-.55-1.7-.54-2.55l-.19,.97c-.72-.27-.67-1.08-.96-2.18,.53-.13,.43,.99,.64,.57-1.29-1.15,1.08-2.88,.16-4.55,.42-.83,1.29-.16,1.56-.88-1.01-1.87,.82-2.15-.04-4.13-.89,.64-.66,.73-1.65-.65l.86,3.3-1.48-2.06c.05,1.01,.71,2.09,.59,2.71-.82-.97-.58-.88-1.32-.35,1.31-1.47-.98-2.69-.13-4.34l2.3-.08c.88-2.45-1.45-4.19-1.04-7.34l-.35,1.02c-.95-.37-.21-1.92-.62-2.91,.77,.06,1.03-.59,1.49-1.04-.57,.08-.04-2.28-1.58-2.5l.96-1.44c.32-2.53-2.3-2.79-2.13-5.22,.86,.7,1.36-.42,2.02,1.18-.02-.81,.09-1.54-.44-1.53,.46-.49-1.12-2.2-.42-2.97-.35-.33-1.16-.41-1.13-1.33,.15-.1,.38,0,.38,0-.38,0-.57-1.41-1.39-.59,2.29-2.56-.33-6.97,1.67-9.19-.29-1.76-.58-3.88-.67-5.49,.23,.1,.38,0,.31,.3,.67-2.22-2.23-1.32-1.49-3.86,1.22-1.3,.7,1.33,1.15,.52,2.53-.38-.43-3.03,1.06-4.74l.15,.41c.86-1.3-.97-3.15-.79-5.27,0,0,.22,.1,.38,.01-1.29-1.44-1.73-4.18-2.09-6.22,.99,.63,.53,.93,1.53,.54-.14-.91-1.61,.27-1.9-1.56,.54-.59,1.01-1.91,2.08-2.08l.06,1.72c1.39-.88-.05-2.22,.19-3.13l.61,.12c-.21-2.63-1.73-2.68-1.58-5.51l-.46,.29c-1.49-1.56,.87-1.29-.24-2.84l1.54-.45c-.36-1.02-1.44-3.59-1.7-5.43,1.12,1.05,1.68,3.2,2.34,4.54,.02-1.01-.07-3.44-.82-3.97,.14,.41,.51,.93,.27,1.33-1.19-1.26-1.76-2.9-1.71-4.92,2.98,.41,.8-5.24,3.18-6.65-1-3.59,.67-7.05,.61-11.2-2.36,1.4-.03-1.21-2.42-1.03-.13-.97-.08-1.34,.08-1.42l1.5-2.88c.71-.67,.5,.94,1.03,.87,.24-2.11,1.03-.85,1.71-2.23-.86,.26-1.19-.78-.81-1.97l-1.17,1.66c-1.14-3,2.1-2.48,.97-5.5l.71,.97c-.38-1.55,.25-5.63-1.6-7.21,.29-.26,.95-.59,1.09,.09,.43-3.64-1.69-8.23-.34-11.01l.57,.31c-.13-.69-1.03-1.24-.4-2.07,.24,.06,.57,.3,.62,0-.18-.37-.92-1.86-.53-2.75l.61,.81c.95-3.52-1.3-5.55-1.53-8.57,1.71,.11,2.42-2.66,2.79-4.04l.24,.06c.48-4.13-.96-7.13-1.38-11.02,1.01-1.13,1.33-3.13,1.57-5.33,.26-2.19,.43-4.57,1.1-6.44-.36,.56-1.32-.19-1.44-.89,.41-.87-1-2.57,.56-2.31l-.05,.32c1.59-.56,1.32-2.44,1.47-3.87l-2.03-.4c3.24-3.53-.28-9.97,2.56-11.8-.43-.95-.33-2.08-.77-3.02l1.09,.14c.5-2.49,.73-3.74,.76-6.87l.72,.71c.24-1.75-2.95-2.5-2.86-4.13l1.68-.33c.27-3.07,2-6.02,.8-9.19,.23,.07,.7,.21,.72,.71,.17-1.44,1.65-5.46-.64-5.16,1.47,.11,.47-3.14,0-4.86l1.05,.37c-1.23-1.54-1.61-1.62-1.79-3.61,.19-.45,.91-.31,.57,.27,.72-1.48-.9-1.31-.13-3.11l.62,.77c.25-1.57-.14-1.49-.85-2.45-.33-1.04,.6-2.97,1.6-3.1-.57-.28-1.27-1.23-.88-2.13,.38-.09,.57,.28,.67,.46,1.03-2.56-.81-4.07,.45-5.78,.36,0,.55-.1,.68-.23-.26,2.1-.51,3.78-.57,3.62,.99,.11,1.36-1.57,2.58-.06-.6-1.44-1.96-3.96-1.31-5.56,.11-.07,.21-.14,.37-.18l.09,.18c.14-.37,.09-.72-.04-1.06,.22-.51,.38-.83,.45-1.34,.84-.1,.67-1.89,.81-2.73-1.09-.06-.79-1.14-1.81-.21,.09-.13,.11,.18,.09,.74,.02,.13,.02,.28,.07,.37l-.09-.07-.17,2.11c-.48-.73-.86-1.48-.14-2.35-.65-.52-1.31-1.08-1.61-1.39,1.65-.98,2.74-3.11,3.71-3.31-.3-2.65,.32-6.13-1.52-8-.17-.77,.69-.77,1.05-1.01,.15,.45,.06,.95,.32,1.21-.34-1.53,.35-4.37-1.03-4.9,.88-1.77,1.18,1.2,1.27-1.37l.39,.4c2.9-4.7-2.6-8.6,1.06-13.75-.23,.36-.34,.54-.59,.59,2.12-6.14,.57-13.18,3.51-19.1,.67-1.71-.21-2.03-.74-3.21l1.22-.21-1.07-2.04c-.58-2.76,3.53-4.09,2.18-7.68l-.85,.31c.33-1.16,.13-3.83,1-3.49-.12-.14-.75-.52-.27-.92l.61,.06-.58-3.08c.8-2.19,2.35,.74,3-2.53-.03-1.26-1.19-3.76-1.67-3.38-.11,.48-.59,1.19-1.2,1.13l-.13-1.17c-1.75-.51-3.43-1.7-5.15,.87l.77,2.11-.97,.48,.21-1.63c-.97,.79-.34,1.49,.05,2.23-.49,.08-.85,.3-1.09,.65l1.4,2.17c-.74,.12-1.25-1.07-1.84,.14,.65,1.01,1.7-.6,1.99,.95-.96,.79-1.58,.42-1.05,1.61-.48,.08-.74-.2-.88-.66,.4,1.05-.17,2.59,.71,3.23-1.16,.81-.23,3.29-1.92,2.94,.36,.37,1.07,1.9,1.01,2.8-1.79-1.92-.62,3.3-2.73,2.54,1.65,1.47,.18,4.45,.89,6.72-.13-.14-.39-.42-.27-.59-.33,1.17-.93,1.44-1.38,2.16,1.48,.37,1.57,2.28,2.36,3.41-1.66,1.26-1.65-1.14-3.11-.88,1.23,.1,.87,2.72,1.96,2.36-1.06,.99-.57,.9-1.91,1.31,1.86,.46,.18,1.09,1.21,2.18-1.16,1.49-1.83,.17-1.5,2.03-.7,.77-1.14-.91-1.14-.91Zm-2.04,42.84h-.02l.04-.89v.89Zm-.4,3.57c.09-.43,.16-.97,.22-1.54,.39-.08,.76,.1,.7,.45-.23-.22-.54,.59-.92,1.09Zm8.38-6.67c.09,.58-.15,.74-.38,.79,0-.27,.01-.58-.01-1-.04-.02-.08-.06-.13-.08,.2,.08,.39,.16,.52,.29Z"/><path class="f" d="M418.98,574.88c-.01-.08-.05-.13-.05-.24-.11,.1-.2,.2-.28,.31l.32,.24,.02-.3Z"/><path class="f" d="M416.64,898.05v-.08c-.02,.07-.05,.13-.11,.18,.04-.06,.08-.07,.11-.11Z"/><polygon class="f" points="404.95 631.89 405.22 631.9 405.01 631.57 404.95 631.89"/><path class="f" d="M416.95,918.16c-.09,.06-.17,.15-.22,.32,.07-.03,.14-.16,.22-.32Z"/><path class="f" d="M418.77,926.55l-.07,1.27c.08-.56,.09-.96,.07-1.27Z"/><path class="f" d="M419.92,933.07c.21,.03,.35,.02,.49,0,0,0,0,0,0-.01h-.49Z"/><path class="f" d="M402.31,829.79c-.01-.09-.03-.17-.06-.25-.25-.58-.14-.18,.06,.25Z"/><path class="f" d="M407.79,860.56c-.23-.31-.46-.61-.62-.94-.02,.56,0,.99,.62,.94Z"/><path class="f" d="M399.22,795.08s0,0,.02,0v-.21l-.02,.21Z"/><path class="f" d="M407.03,858.19c-.16,.57-.06,1.03,.14,1.44,.02-.46,.07-1-.14-1.44Z"/><path class="f" d="M428.29,960.53l.07,.32c.07-.03,.13-.03,.18-.03l-.25-.29Z"/><path class="f" d="M428.54,960.82l.25,.29c-.06-.15-.12-.28-.25-.29Z"/><path class="f" d="M429.31,961.71l-.52-.6c.09,.24,.17,.55,.52,.6Z"/><path class="f" d="M425.71,952.13l-.41,.03c.09,.03,.23,.02,.41-.03Z"/><path class="f" d="M424.79,949.63c.11,.63-.32,1.79,.18,2.56l.32-.02c-.68-.21,.31-2.17-.51-2.54Z"/><path class="f" d="M426.15,937.64l.36,2.19c.29-.49,.68-1.13,1.08-.21,.38-2.99-.73,.82-1.44-1.98Z"/><path class="f" d="M424.94,930.91c.49,1.09,.59-.17,.83-.18-.56-.62-.7-.77-.83,.18Z"/><path class="f" d="M414.91,882.73l1-.03c-.27-.88-.38,.05-1,.03Z"/><polygon class="f" points="408.49 874.09 408 875.07 408.97 875.36 408.49 874.09"/><path class="f" d="M414.74,867.63l.2,.37c-.19-.49-.39-.97-.56-1.46,.11,.36,.24,.72,.37,1.08Z"/><path class="f" d="M408.56,785.16l-1.22,.31c.23,.61,1.61,.71,1.22-.31Z"/><path class="f" d="M407.02,749.38c.62-.39,1.03-1.39,.43-2.02-.1,.8-.58,1.6-.43,2.02Z"/><polygon class="f" points="413.95 642.19 414.31 642.94 414.07 641.56 413.95 642.19"/></g><g><path class="f" d="M498.95,969.52c.33,.25,1.09,.12,.95-.57l-1.29-.49,.34,1.06Z"/><path class="f" d="M501.37,964.95c-.62-.81-1.71-1.74-2.9-1.23,1.23,.8,.72,.99,2.18,1.86,.15,.68-.42,1.19-.89,1.07,.33,.24-.29,1.06,.52,1.43,1-.88,1.05-2,.23-3.19,.29-.25,.62,0,.86,.06Z"/><path class="f" d="M503.68,898.28l-.15,.43c.08-.12,.13-.26,.15-.43Z"/><path class="f" d="M504.41,856.96c.03,.31,.16,.45,.28,.46-.08-.29-.16-.53-.28-.46Z"/><path class="f" d="M505.83,849.9c-.04,.15-.06,.28-.09,.42,.12-.16,.18-.32,.09-.42Z"/><path class="f" d="M503.68,898.28l.41-1.1c-.42-.08-.31,.57-.41,1.1Z"/><path class="f" d="M498.32,955.73c.06,.23,.18,.42,.34,.6-.05-.19-.1-.37-.13-.56-.07-.01-.13-.02-.2-.04Z"/><path class="f" d="M504.68,916.5v.34c.15,.1,.32,.19,.52,.28l-.52-.62Z"/><path class="f" d="M504.83,930.48c.05-.32-1.04-.43-1.52-.55,.45,.18,.66,.42,.75,.69,.21,0,.46-.03,.78-.14Z"/><path class="f" d="M502.77,952.63l.15,.39c-.05-.1-.09-.28-.15-.39Z"/><path class="f" d="M504.94,906.49c.16-.02,.31-.07,.39-.13-.14,0-.27,.05-.39,.13Z"/><path class="f" d="M493.42,515.69c.08,0,.13,0,.19,0-.11-.08-.19-.1-.19,0Z"/><path class="f" d="M498.54,499.39l.06,.22c.21,.02,.41,.04,.61,.04l-.68-.26Z"/><path class="f" d="M507.2,836.99s-.01,.03-.02,.06c.13,.34,.1,.15,.02-.06Z"/><path class="f" d="M505.74,718.46c-.97,1.35-1.28-2.17-2.34-.14,.43-.19,1.72,1.82,2.34,.14Z"/><path class="f" d="M498.46,955.37c-.01-.19-.02-.38,0-.57-.04,.26-.04,.44,0,.57Z"/><path class="f" d="M503.4,718.32h0l-.1,.21,.11-.21Z"/><path class="f" d="M506.46,807.24c-.19,.06-.34,.18-.48,.31,.11-.01,.25-.08,.48-.31Z"/><path class="f" d="M504.97,829.41l.14-.55c-.1,.22-.13,.39-.14,.55Z"/><path class="f" d="M504.86,795.74c.08-.3,.23-.4,.08-.81-.06,.04-.09,.08-.13,.12,.15,.15,.22,.34,.05,.68Z"/><path class="f" d="M504.79,783.76c-.08,.06-.15,.15-.22,.22l.06,.38,.16-.6Z"/><path class="f" d="M494.56,552.05c.3-.27,.64-.44,.97-.57-.77,.2-1.08-1.56-.97,.57Z"/><path class="f" d="M498.93,955.73c-.28-.07-.41-.18-.47-.36,.01,.14,.03,.27,.06,.4,.16,.04,.32,.04,.41-.04Z"/><path class="f" d="M496.23,795.29l.15-1.9c-.1,.53-.16,1.22-.15,1.9Z"/><path class="f" d="M495.93,637.93l-.14-.43c-.02,.17,.01,.32,.14,.43Z"/><path class="f" d="M496.19,787.75c.38-.34,.61-.7,.75-1.07-.09-.08-.16-.17-.28-.22l-.47,1.29Z"/><path class="f" d="M495.55,551.48s-.01,0-.01,0c0,0,0,0,.01,0Z"/><path class="f" d="M492.75,539c0,1.81,1.42,.83,2.25,1.2,.45,2.16-1.04,1.02-1.76,1.77,.4,1.34,1.74,2.36,1.7,3.37-.24,.08-.32,.28-.62,.05,1.17,1.41,.12,4.24,1.59,5.88-.13,.13-.24,.19-.35,.22,.72-.28,1.45-.33,1.97-.29,.04,.81,.93,1.49,0,1.81,.02-.5-.36-.53-.66-.76l.42,.84c-1.34,.79-.49-1.15-1.48-1.14,.47,1.65,1.61,3.57,1.25,4.85-1.32,.29-.49-2.97-1.64-1.25l.47-1.98c-2.06,1.54,.13-1.2-2.08,.22-.34,2.6,.72,2.89,.38,5.48,.74,.57,1.08-.21,1.83,.36,1.38,3.65-3.28,2.94-1.47,5.61,.89,.69,2.57,.93,1.71,2.87l-1.5-.63c-.11,2.51,2.17,1.4,1.2,4.04-.59-.46-.52-1.96-.7-1.58-1.15,1.72,.87,1.19,.88,2.5l-1.32,.29c.25,2.67,1.25,5.59,1.53,8.55-.4-.16-.82-.66-1.21,.04,.72,3.72-.04,7.96-.78,11.57l1.16,1.36c0,.32-.51,.6-.73,.26-.41,1.41,.73,.06,1.18,.73,.09,.8-.64,1.06-.99,.56,1,2.46,2.18,7.02,.99,9.64l-.35-.5c-.44,2.04,2.37,2.26,1.33,4.16l-.21-.36c-.44,4.41,.68,9.27-1,12.65,1.65,.62-.68,4.37,1.62,4.62-1.11,2.53-1.53,1.81-2.25,5.37-.09,.95,1.45,1.39,1.7,2.56l-1.2,.04,1.28,1.57-1.42,.86,.32,1.09c.07-.44,.53-.94,.87-.87,.56,1.71-.78,4.19-1.4,4.24l1.06,4.04c-.48-.08-.66-.76-.97-1.29,1.25,2.15-1.26,.41-.11,2.38,.27-.27,.72,.14,.96,.18-.71,1-.69,3.25-.37,4.91l-.83-.31c-.17,3.01,.47,6.33,.49,9.71,.37-1.21,1.81-.95,1.96,.04l-1.26,.41c.79,.63,.47-1.04,1.44,.26-.13,1.26-1.43,.86-1.85,.14l.46,1.53c-.38,.09-.58-.26-1.06-.35,.79,.62-1.24,2.66,.13,3.55l-.38,.09c.03,3.37,.48,4.9,.57,7.65,1.1,.04,.86,1.12,1.76,1.93-.33,2.02-1.16,4.27-1.04,6.71,.56,1.7,.93,.49,1.59,1.25-1,.14-.88,2.57-1.61,1.31,.2,2.92,.24,3.73,1.08,7.41,.4-.4,.58-.86,.92-.63,.17,.67-.4,1.53-.88,1.44l-.11-.18c1.53,4.13-2.82,9.6-.71,12.88l-.1-.18,1.11,3.41c-.16,1.58-.76-.94-1.36,.23,1.7,3.68-.19,5.84,.95,8.87-2.92,2.38,.28,8.35-1.57,11.55l.69-.19c.68,.82-.39,1-.54,1.6,.54-.09,.62-.9,1-.39,.89,6.95-.91,14.37-1.48,21.51-.17,2.61,3.59,1.46,1.96,4.76l-1.29-.92c1.58,5.25,.02,10.77,1.35,15.91-.3-.31-.68-.31-.68-.82-.93,1.09-.02,4.03,.74,4.04-.08,.8-.69,.19-1.07,.69-.55,1.1,1.21,2.73,.28,3.32-.15,.1-.3-.31-.38-.5,.46,.71-.1,3.32,.98,2.63-.5,1.94,.5,3.7-.13,5.24,1.21,1-.56,3.31,1.14,3.63-1.76-.13-1.4,3.4-.57,4.62-.53-.41-.55,1.07-1.29,.59,.03,1.4,.37,2.67,1.27,2.43-2.09,2.58,1.72,5.16-.97,6.62,.96,4.14,1.61,7.98,2.03,11.71-1.76-.13-.19-4.12-2.03-3.96,.73,3.54,2.25,5.57,1.83,9.08-.24,.91-.76-.51-1.06-.82,.73,3.53-.14,6.84,.83,9.98-.16,0-.34-.35-.48-.67,.06,.62-.25,1.44,.54,1.37l-.22-.6c1.16-.99,2.43,2.46,3.04,2.57-2.29-1.05-.57,3.11-3.46,1.44,.15,.41,.53,.92,1.06,.82-.15,.61-.46,.8-1.07,.19,.44,2.22,1.29,1.43,1.28,3.44-.39,0-.54-.41-.99-.62,.76,1.02,1.51,2.04,1.19,3.74-.23-.1-.54,.1-.53-.41,.13,2.92,2.02,4.97,1.29,8.18-1.68-.94-.55,1.09-2.01,1.26l.43,1.72,.7-.69c-.02,1.51,1.03,2.84,.56,4.14l-.6-1.12,.28,2.83,.55-1.6c.75,1.53,1.84-.17,1.43,1.84-.15-.41-.02,1.51-.87,2.3h0c.46,.74,.95,1.51,.59,2.62-.46,.29-1.61-.23-1.92-.04,1.21,.74,.34,3.53,1.63,4.47-.3-.31-1.07-.33-1.22-.22l.99,.62c-.32,.7-.47,.8-1.08,.69-.18,2.1,1.84-.67,1.05,1.83-.08-.2-.23-.1-.38-.51-.41,2.51,.63,4.84,.14,7.15-1.46,.68-.36-2.01-1.59-1.23,.27,3.32,1.75,6.88,1.41,10.09l.16-.6c2.07,.45-1.02,2.39-.06,4.02-.15-.4-1.14-.52-.91-.42-.34,2.2,.5,4.5,1.14,7.84l-.53-.41c-.48,1.3-.28,3.41-.53,4.81,.53,.42,.44,1.22,1.21,.73-3.03,4.31,1.6,8.24-.93,12.07,0-.46-.46-1.09-.46-.73l.48,3.27c.9-.26,.55-.43,1.25-1.11,.53,.41,.94,1.34,.94,2.15-.59-1.47-1.44,0-1.95,.64,.28-.11,.58,.11,.86,.06-1.6,1.7,1.81,.29,.72,2.62l-.47-.13c.24,.87,.86,1.68,.72,2.62-1.04,.39-.48-.93-1.34-.99,.06,1.32,1.96,2.61,.92,3.8-.29-.56-.29-1.37-.58-1.93-1.23,1.3-.91,1.45-1.11,2.41l.03-.09-.56,2.23,.34-.57c2.7,1.66,.47,3.36,2.24,5.6-1.67-2.17-.97-.36-2.15-.53-.33,.57-.7,1.43-1.03,1.18,.94,1.06-.76,1.75,.62,3.24-.38,.06-.04,1.12-1,.88,.29,1.37,.66-.32,1.14-.2,1.28,2.11-1.6,4.94,.16,7.98,.72,2.62,1.99,3.11,2.62,5.54-.61,.81-1.38-.68-1.38-.68-.57,1.32-.47,2.31-.04,3.56-.33-.25-.61,0-1.04,.38,.09,1,1.38,.68,.81,1.99-.42-.23-1.1-.52-1.52-1.01,.34,1.18,1.04,2.35,1.38,3.57-.66,.32-1-.74-1.43-1.17,.29,1.37,.58,3.55,1.62,3.98l.38-.88c.05,.5-.9,.25-1.09-.12-.81-1.18,.37-1.69,.75-1.75l.24,.87c2.23-.88-.34-3.49-.2-5.23l1.61,.74-1.33-1.8c.42-.38,1.33-.63,1.57,.23,.81-1.25-.57-1.11,.33-2.18,.14-.12,.22-.06,.28,.05l-.48-1.23c.34,.24,1.14-.2,.91,.55,.95-2.19-1.19-3.55,.04-4.37l.1,.18c-.53-3.05-1.19-.3-2.57-2.6l2.94-1.52-1.19-.31c.04-.31,.14-.94,.61-.82-.81-1.17-.52,.2-1.28-.49,1.09-1.51-.48-4.18,1.41-4.51-.9-.55-.71,1.44-1.32-.18,2.04-.45-.34-1.87,.61-3.25,1.05,.43,.48,1.74,1.43,.36-1.77-.84,.41-2.69,.07-3.86-1.41-.06-.57-2.54-1.04-4.5,.48,.13,.79-3.68,1.3-5.5l.24,.05c-1.43-.36-1.15-2.23-1.45-3.6,.85,.06,1.19,.3,1.57,1.05v-1.29c-.46-.3-.7-.71-.86-1.54l1.07,.33c-.05-1.71-1.25-3.45-.53-5.65-1-.13-2.78,1.74-3.44-.59,.54-.08,1.46-.17,1.68,.44-.07-.2-.45-.71-.21-1.11l.9,.93c.4-1-.76-.53-.67-1.33,.77,.02,.55-.59,1.16-.48,.07,.2-.32,.7-.02,1.01,.14-.9,.6-1.99,1.18-2.35-.44,.08-1.03,0-1.13-.66-.05-1.71,.93-.58,1.32-1.58-.53-.42,.02-1.51-1.13-1.54,0-.5,.54-.59,.85-.78-.5-.89-.13-4.14-1.36-3.14l-.08,.23s-.02-.09-.05-.14h0c-1.13-2.9,.67-6.03,.18-8.91h.38c-.43-1.71-.25-3.82-1.08-5.05,0-.51,.7-1.2,1.16-.98-.29-1.31-.72-1.46-.09-3.36,.67,1.32,.59-.46,.49,1.35,.33-1.71,.95-2.09-.1-3.93,.98,.62,1.24-1.28,.94-2.1l-.7,1.2c-.14-.91-.06-1.71,.03-2.52l1.29,.44c1.57-3.49-2.68-6.3-.05-8.96-.91-.92-.64,1.9-1.7,1.07,.17-1.61,2.03-3.28,2.04-3.79,.72-2.2-1.89-2.05-1.4-4.36-.46,.29-1.69,.57-2.13-1.15,.17-1.61,1.94-1.98,2.31-.96,.04,.39-.11,.57-.26,.56,.17,.52,.37,1.2,.87,.56l-.46-.21c.47-.8,.42-3.01,1.18-2.49-.44-1.21-.76-.52-1,.38,.67-2.06,.02-3.22,.47-5.35-.25,.34-.8,.65-.79,.31,.57-3.12-.88-1.37-1.08-3.48,.7-1.2,1.68,.43,1.09-1.7,.48-1.3,1.23-.28,1.6,.24-.89-1.93,.58-3.62,.74-4.72l.38,1.02c-.22-.61-.22-1.11-.22-1.62l-.92,.58c.16-.6,.16-1.11,.55-1.1-.61-.62-1.54,.48-2.37-.75,.47-.8-.51-2.43,.71-2.71-.41,2.51,1.23-.28,1.43,1.84-.15-.41-.14-.91,.02-1.51,.14-.09,.25,.08,.32,.25,1.09-2.4-1.39-1.1-1.37-3.59,.69,.31,1.31-.58,1.16-.99-.01,1-1.15,.48-1.68-.44,.53-1.6-.41-1.73-.35-2.57l-.25,.95c-.69-.32-.6-1.12-.82-2.23,.54-.1,.37,1.01,.61,.61-1.22-1.23,1.25-2.79,.43-4.51,.47-.8,1.3-.08,1.61-.78-.9-1.93,.94-2.09,.19-4.12-.93,.59-.7,.69-1.61-.74l.66,3.33-1.36-2.14c-.01,1.01,.59,2.12,.43,2.73-.76-1.02-.53-.91-1.3-.43,1.39-1.38-.82-2.73,.12-4.32l2.3,.04c1.02-2.4-1.19-4.25-.62-7.36l-.4,1c-.91-.41-.13-1.92-.51-2.92,.77,.09,1.05-.54,1.52-.97-.57,.05,.05-2.28-1.49-2.55l1.01-1.39c.4-2.51-2.2-2.85-1.96-5.27,.84,.72,1.38-.38,1.98,1.24,0-.81,.14-1.53-.39-1.54,.48-.47-1.05-2.23-.32-2.97-.34-.34-1.14-.45-1.09-1.35,.16-.1,.38,0,.38,0-.38,0-.52-1.41-1.37-.62,2.38-2.49-.21-6.93,1.84-9.1-.27-1.76-.53-3.87-.59-5.47,.23,.1,.38,0,.3,.31,.7-2.21-2.21-1.34-1.43-3.85,1.24-1.29,.68,1.33,1.14,.53,2.53-.36-.36-3.02,1.11-4.72l.15,.41c.85-1.29-.97-3.14-.8-5.24,0,0,.22,.1,.38,0-1.3-1.43-1.74-4.15-2.11-6.18,.99,.62,.53,.92,1.53,.53-.15-.91-1.61,.28-1.91-1.53,.54-.59,1-1.9,2.07-2.08l.07,1.71c1.38-.88-.06-2.21,.17-3.11l.61,.11c-.22-2.62-1.75-2.64-1.66-5.46l-.46,.29c-1.52-1.53,.84-1.3-.29-2.82l1.53-.48c-.38-1.01-1.51-3.55-1.81-5.36,1.15,1.02,1.74,3.15,2.43,4.46,0-1.01-.14-3.42-.9-3.94,.15,.4,.53,.91,.3,1.31-1.22-1.23-1.82-2.85-1.81-4.85,2.98,.33,.71-5.23,3.01-6.71-1.13-3.54,.42-7.04,.2-11.17-2.3,1.49-.08-1.21-2.45-.93-.16-.96-.13-1.33,.03-1.42l1.39-2.93c.69-.7,.53,.91,1.07,.82,.16-2.11,1-.89,1.62-2.29-.85,.29-1.23-.72-.91-1.93l-1.08,1.7c-1.29-2.93,1.97-2.56,.69-5.52l.76,.93c-.46-1.52-.04-5.62-1.96-7.1,.27-.27,.92-.63,1.1,.03,.25-3.64-2.11-8.09-.96-10.93l.58,.27c-.17-.68-1.1-1.17-.53-2.03,.24,.04,.58,.27,.61-.05-.2-.36-1.04-1.79-.71-2.7l.66,.76c.72-3.56-1.65-5.43-2.08-8.41,1.71-.01,2.24-2.81,2.5-4.21l.24,.05c.17-4.14-1.5-7.01-2.21-10.83,1.83-2.4,.69-8.06,1.69-11.89-.3,.59-1.34-.08-1.52-.76,.34-.9-1.22-2.46,.35-2.34l-.03,.32c1.53-.69,1.1-2.53,1.12-3.97l-2.06-.21c2.94-3.8-1.22-9.85,1.43-11.93-.53-.9-.53-2.03-1.06-2.92l1.1,.03c.25-2.52,.37-3.78,.07-6.88l.8,.62c.05-1.76-3.2-2.17-3.29-3.79l1.64-.51c-.07-3.06,1.33-6.18-.2-9.18,.24,.05,.72,.13,.79,.62,.02-1.44,1.04-5.59-1.21-5.03,1.47-.06,.1-3.16-.57-4.8l1.09,.24c-1.4-1.38-1.78-1.42-2.19-3.36,.13-.46,.86-.42,.59,.2,.55-1.55-1.04-1.18-.49-3.06l.7,.69c.06-1.58-.31-1.45-1.13-2.31-.45-.99,.23-3.01,1.21-3.25-.6-.2-1.41-1.06-1.14-2,.37-.13,.6,.21,.72,.37,.7-2.66-1.32-3.92-.28-5.75,.36-.04,.54-.16,.64-.32,0,2.1-.03,3.8-.11,3.64,1-.01,1.15-1.72,2.55-.38-.77-1.35-2.45-3.66-2-5.32,.1-.08,.19-.16,.34-.22l.11,.17c.09-.38,0-.72-.18-1.04,.16-.53,.27-.87,.28-1.38,.82-.21,.42-1.95,.44-2.8-1.09,.09-.93-1.03-1.82,.03,.08-.14,.13,.16,.19,.72,.03,.13,.05,.28,.12,.36l-.1-.06c.04,.56,.08,1.28,.1,2.1-.57-.66-1.04-1.35-.45-2.3-.71-.42-1.44-.89-1.78-1.16,1.51-1.18,2.3-3.43,3.24-3.75-.65-2.58-.49-6.09-2.58-7.68-.28-.73,.58-.85,.89-1.13,.21,.42,.19,.93,.49,1.15-.55-1.46-.27-4.35-1.72-4.68,.62-1.86,1.34,1.02,1.06-1.52l.44,.34c2.21-5.05-3.79-8.08-.94-13.68-.17,.39-.26,.58-.49,.66,1.2-6.35-1.44-13.02,.52-19.31,.39-1.78-.54-1.96-1.25-3.03l1.17-.41-1.39-1.83c-1.04-2.61,2.8-4.6,.86-7.89l-.78,.44c.13-1.2-.54-3.78,.38-3.59-.15-.12-.83-.38-.43-.85l.61-.05-1.11-2.91c.4-2.28,2.45,.31,2.5-3.01-.26-1.23-1.86-3.48-2.26-3.01-.02,.5-.36,1.28-.97,1.33l-.34-1.12c-1.82-.17-3.69-1-4.9,1.79l1.14,1.91-.87,.64-.09-1.62c-.81,.94-.07,1.51,.45,2.15-.46,.16-.79,.44-.95,.83l1.77,1.86c-.7,.24-1.42-.82-1.79,.46,.82,.87,1.57-.88,2.13,.58-.81,.94-1.48,.68-.76,1.75-.46,.16-.77-.06-.98-.49,.58,.95,.28,2.55,1.26,3.03-1,.98,.32,3.25-1.39,3.19,.42,.3,1.38,1.67,1.46,2.56-2.08-1.58-.06,3.32-2.27,2.93,1.87,1.16,.9,4.31,1.96,6.42-.15-.12-.45-.34-.36-.53-.13,1.2-.68,1.55-1.02,2.33,1.53,.13,1.91,1.98,2.87,2.97-1.45,1.49-1.81-.86-3.21-.37,1.23-.09,1.28,2.52,2.3,2.01-.89,1.14-.43,.97-1.68,1.57,1.91,.16,.34,1.04,1.53,1.95-.91,1.64-1.78,.45-1.17,2.22-.57,.86-1.27-.72-1.27-.72Zm3.96,42.27h-.02l-.07-.87,.1,.87Zm.07,3.56c.04-.43,.04-.97,.02-1.54,.38-.13,.77,0,.75,.36-.26-.19-.46,.65-.77,1.19Zm7.47-7.64c.16,.56-.05,.75-.27,.83-.02-.27-.06-.58-.15-.98-.04-.02-.09-.05-.13-.06,.21,.05,.41,.11,.55,.21Z"/><path class="f" d="M502.79,576.2c-.03-.08-.07-.13-.08-.23-.1,.12-.18,.23-.24,.34l.35,.19-.02-.3Z"/><path class="f" d="M503.5,898.78l.03-.08c-.04,.06-.09,.12-.16,.16,.05-.05,.09-.05,.13-.08Z"/><polygon class="f" points="495.34 633.98 495.62 633.97 495.37 633.66 495.34 633.98"/><path class="f" d="M499.7,918.37c-.1,.04-.2,.11-.28,.26,.07-.01,.17-.12,.28-.26Z"/><path class="f" d="M499.43,926.83l-.39,1.2c.22-.52,.33-.89,.39-1.2Z"/><path class="f" d="M498.85,933.34c.19,.08,.34,.11,.47,.13,0,0,0,0,0-.01l-.48-.12Z"/><path class="f" d="M497.65,829.88c0-.09-.02-.17-.05-.25-.21-.59-.13-.19,.05,.25Z"/><path class="f" d="M500.25,860.66c-.2-.33-.39-.65-.52-.99-.08,.55-.11,.97,.52,.99Z"/><path class="f" d="M496.21,795.5s0,0,.02,0v-.21l-.02,.21Z"/><path class="f" d="M499.75,858.24c-.22,.55-.17,1.01-.02,1.43,.07-.45,.18-.98,.02-1.43Z"/><path class="f" d="M498.18,961.53l-.05,.31c.07,0,.13,.01,.18,.04l-.13-.35Z"/><path class="f" d="M498.31,961.89l.13,.35c0-.16,0-.3-.13-.35Z"/><path class="f" d="M498.71,962.97l-.27-.73c0,.25-.04,.57,.27,.73Z"/><path class="f" d="M498.74,952.92l-.4-.1c.08,.05,.21,.09,.4,.1Z"/><path class="f" d="M498.64,950.31c-.09,.62-.86,1.56-.61,2.43l.32,.08c-.59-.41,.96-1.92,.3-2.52Z"/><path class="f" d="M503.61,939.41l-.33,2.19c.43-.38,1-.88,1.09,.12,1.28-2.76-.95,.57-.76-2.31Z"/><path class="f" d="M504.27,932.6c.19,1.18,.61-.01,.85,.05-.38-.75-.48-.93-.85-.05Z"/><path class="f" d="M504.41,883.43l1,.12c-.14-.91-.39,0-1-.12Z"/><polygon class="f" points="499.26 874.03 498.64 874.91 499.55 875.34 499.26 874.03"/><polygon class="f" points="506.35 868.48 506.49 868.88 506.13 867.36 506.35 868.48"/><path class="f" d="M505.77,785.89l-1.22,.28c.22,.61,1.6,.74,1.22-.28Z"/><path class="f" d="M504.31,750.25c.61-.39,1-1.4,.39-2.01-.08,.8-.55,1.6-.39,2.01Z"/><polygon class="f" points="505.29 643.31 505.71 644.02 505.35 642.67 505.29 643.31"/></g><g><path class="f" d="M553.45,967.39c.29,.3,1.07,.28,1.01-.42l-1.21-.68,.2,1.1Z"/><path class="f" d="M556.44,963.19c-.51-.89-1.47-1.98-2.71-1.64,1.12,.97,.58,1.09,1.92,2.16,.06,.7-.57,1.12-1.02,.93,.29,.29-.42,1.01,.33,1.5,1.11-.73,1.3-1.84,.64-3.14,.32-.21,.61,.09,.84,.18Z"/><path class="f" d="M566.31,896.86l-.2,.42c.1-.11,.16-.25,.2-.42Z"/><path class="f" d="M570.12,855.46c0,.32,.13,.46,.24,.48-.06-.3-.12-.54-.24-.48Z"/><path class="f" d="M571.92,848.45c-.05,.15-.07,.28-.11,.41,.13-.15,.2-.31,.11-.41Z"/><path class="f" d="M566.31,896.86l.52-1.07c-.41-.11-.37,.54-.52,1.07Z"/><path class="f" d="M554.61,953.6c.03,.24,.12,.45,.25,.64-.03-.2-.05-.39-.06-.58-.07-.02-.13-.04-.2-.06Z"/><path class="f" d="M565.5,915.2l-.03,.34c.14,.11,.3,.23,.49,.33l-.46-.67Z"/><path class="f" d="M564.28,929.23c.08-.31-1-.55-1.46-.72,.43,.23,.62,.49,.67,.78,.21,.03,.46,.02,.78-.05Z"/><path class="f" d="M559.43,951.11l.1,.41c-.03-.11-.05-.29-.1-.41Z"/><path class="f" d="M566.75,905.2c.16,0,.31-.04,.4-.09-.14-.01-.27,.02-.4,.09Z"/><path class="f" d="M558.87,512.85c.08,0,.13-.01,.19-.01-.12-.07-.19-.09-.19,.01Z"/><path class="f" d="M563.09,496.24l.08,.22c.21,0,.41,.02,.61,0l-.69-.22Z"/><path class="f" d="M573.95,835.54s-.01,.03-.02,.06c.11,.35,.1,.15,.02-.06Z"/><path class="f" d="M575.73,716.23c-.97,1.35-1.26-2.19-2.34-.16,.43-.19,1.71,1.84,2.34,.16Z"/><path class="f" d="M554.8,953.26c.01-.19,.03-.38,.07-.57-.07,.25-.09,.43-.07,.57Z"/><path class="f" d="M573.39,716.07h0l-.1,.21,.11-.21Z"/><path class="f" d="M574.58,805.57c-.19,.05-.34,.17-.49,.29,.11,0,.25-.07,.49-.29Z"/><path class="f" d="M572.11,827.8l.17-.54c-.11,.21-.15,.39-.17,.54Z"/><path class="f" d="M573.37,793.95c.09-.3,.25-.4,.11-.81-.06,.04-.1,.07-.14,.12,.14,.15,.21,.35,.03,.69Z"/><path class="f" d="M573.71,781.9c-.09,.06-.15,.14-.23,.22l.05,.38,.18-.6Z"/><path class="f" d="M561.64,549.25c.29-.28,.62-.46,.95-.61-.77,.23-1.14-1.52-.95,.61Z"/><path class="f" d="M555.22,953.68c-.26-.11-.38-.23-.42-.42,0,.14,0,.27,0,.4,.16,.06,.31,.09,.41,.02Z"/><path class="f" d="M564.76,793.21l.22-1.9c-.12,.53-.2,1.22-.22,1.9Z"/><path class="f" d="M565.44,635.37l-.14-.43c-.02,.17,.02,.32,.14,.43Z"/><path class="f" d="M564.97,785.65c.4-.33,.63-.69,.79-1.05-.08-.08-.15-.17-.28-.23l-.51,1.28Z"/><path class="f" d="M562.6,548.63s-.01,0-.01,0c0,0,0,0,.01,0Z"/><path class="f" d="M559.28,536.23c.08,1.82,1.46,.77,2.3,1.1,.54,2.14-.99,1.07-1.68,1.85,.46,1.33,1.84,2.29,1.85,3.3-.23,.09-.31,.29-.62,.08,1.23,1.36,.29,4.24,1.81,5.83-.12,.13-.24,.2-.35,.24,.7-.31,1.43-.39,1.96-.37,.07,.81,.99,1.46,.07,1.82,0-.5-.38-.52-.69-.74l.45,.83c-1.31,.84-.53-1.14-1.53-1.08,.53,1.64,1.75,3.52,1.44,4.82-1.31,.34-.6-2.96-1.69-1.19l.4-2c-2,1.62,.08-1.21-2.07,.3-.24,2.62,.83,2.87,.58,5.48,.76,.54,1.07-.25,1.84,.29,1.52,3.61-3.16,3.07-1.26,5.69,.92,.65,2.6,.84,1.82,2.81l-1.53-.58c-.02,2.52,2.23,1.33,1.35,4.01-.6-.44-.59-1.95-.75-1.56-1.09,1.76,.9,1.16,.97,2.48l-1.31,.34c.33,2.67,1.42,5.57,1.8,8.53-.4-.15-.84-.63-1.21,.08,.83,3.71,.2,7.99-.42,11.63l1.2,1.33c0,.32-.49,.62-.73,.28-.37,1.42,.73,.04,1.21,.7,.12,.8-.61,1.08-.97,.59,1.1,2.44,2.36,6.98,1.24,9.65l-.36-.5c-.39,2.05,2.42,2.21,1.43,4.14l-.22-.35c-.33,4.44,.89,9.29-.71,12.72,1.67,.58-.57,4.4,1.73,4.61-1.05,2.56-1.46,1.85-2.13,5.43-.08,.95,1.47,1.37,1.74,2.54l-1.2,.07,1.3,1.56-1.41,.89,.34,1.09c.06-.44,.51-.95,.86-.89,.59,1.7-.72,4.22-1.34,4.28l1.12,4.04c-.48-.08-.67-.75-.99-1.28,1.28,2.14-1.25,.43-.08,2.39,.27-.27,.72,.12,.96,.16-.7,1.01-.64,3.27-.29,4.93l-.83-.3c-.13,3.02,.57,6.35,.64,9.74,.35-1.22,1.79-.98,1.96,.01l-1.26,.43c.8,.62,.45-1.05,1.45,.25-.11,1.27-1.42,.88-1.85,.17l.48,1.53c-.38,.1-.59-.26-1.07-.34,.81,.61-1.21,2.68,.16,3.56l-.38,.09c.04,3.38,.5,4.91,.61,7.67,1.1,.03,.87,1.12,1.77,1.92-.32,2.03-1.14,4.3-1.01,6.74,.57,1.71,.93,.49,1.6,1.25-.99,.14-.86,2.58-1.6,1.32,.21,2.93,.26,3.74,1.13,7.44,.4-.41,.57-.86,.92-.63,.17,.67-.39,1.54-.87,1.45l-.11-.18c.78,2.07,.09,4.48-.53,6.78-.64,2.3-1.22,4.49-.18,6.14l-.1-.18,1.09,3.43c-.17,1.58-.75-.94-1.37,.23,1.67,3.7-.22,5.86,.89,8.9-2.93,2.37,.23,8.38-1.64,11.57l.69-.18c.68,.82-.39,1-.55,1.6,.54-.09,.62-.89,1-.38,.9,6.99-1.09,14.4-1.79,21.55-.22,2.61,3.56,1.52,1.87,4.8l-1.27-.95c1.48,5.3-.18,10.79,1.07,15.99-.29-.31-.68-.33-.67-.83-.95,1.07-.09,4.04,.67,4.07-.1,.8-.69,.17-1.08,.66-.56,1.08,1.12,2.77,.18,3.33-.15,.1-.29-.31-.36-.52,.43,.72-.21,3.32,.89,2.66-.57,1.93,.37,3.72-.31,5.25,1.18,1.04-.68,3.3,1.02,3.67-1.76-.18-1.52,3.36-.73,4.61-.52-.43-.58,1.05-1.3,.55-.02,1.4,.27,2.69,1.18,2.47-2.18,2.51,1.54,5.24-1.2,6.6,.83,4.19,1.36,8.06,1.66,11.82-1.75-.2-.05-4.14-1.9-4.05,.64,3.57,2.04,5.68,1.44,9.18-.28,.9-.74-.55-1.02-.87,.55,3.57-.49,6.84,.31,10.03-.16-.02-.32-.36-.44-.69,.03,.62-.33,1.43,.47,1.4l-.19-.62c1.21-.94,2.3,2.58,2.9,2.72-2.23-1.16-.73,3.09-3.53,1.27,.13,.42,.48,.95,1.02,.88-.18,.6-.51,.78-1.08,.13,.33,2.25,1.21,1.5,1.09,3.51-.39-.03-.51-.44-.96-.67,.7,1.06,1.4,2.12,1,3.81-.23-.11-.54,.07-.51-.44-.03,2.93,1.76,5.1,.88,8.27-1.63-1.04-.61,1.06-2.06,1.15l.35,1.75,.74-.65c-.11,1.51,.91,2.91,.34,4.18l-.53-1.16c.05,.95,.05,1.9,.08,2.85l.67-1.57c.64,1.57,1.85-.05,1.3,1.93-.12-.42-.13,1.51-1.04,2.24h0c.41,.77,.84,1.57,.4,2.67-.48,.26-1.59-.34-1.91-.17,1.16,.82,.08,3.56,1.3,4.58-.28-.33-1.04-.4-1.2-.31l.94,.69c-.37,.68-.53,.77-1.12,.61-.33,2.09,1.89-.54,.91,1.9-.07-.2-.22-.12-.34-.54-.6,2.48,.27,4.89-.38,7.16-1.51,.57-.21-2.04-1.5-1.35,.02,3.34,1.25,7.01,.67,10.2l.2-.59c2.02,.61-1.19,2.31-.34,4.02-.12-.41-1.1-.62-.88-.49-.52,2.17,.24,4.55,.52,7.93l-.49-.46c-.6,1.25-.62,3.38-1,4.76,.49,.46,.32,1.26,1.14,.84-3.44,4.03,.78,8.38-2.11,11.96,.04-.46-.35-1.14-.39-.77l.16,3.31c.92-.16,.58-.37,1.35-.98,.49,.47,.81,1.43,.72,2.24-.44-1.53-1.44-.14-2,.44,.28-.08,.57,.17,.85,.15-1.76,1.53,1.77,.48,.46,2.69l-.46-.17c.15,.9,.69,1.77,.46,2.69-1.07,.28-.39-.98-1.23-1.13-.07,1.32,1.7,2.82,.54,3.9-.23-.59-.15-1.4-.38-1.99-1.35,1.16-1.05,1.35-1.34,2.29l.04-.09-.78,2.17,.39-.53c2.51,1.96,.19,3.42,1.65,5.84-1.38-2.35-.92-.47-2.06-.77-.4,.53-.88,1.34-1.18,1.06,.8,1.16-.98,1.65,.2,3.29-.39,.02-.19,1.11-1.1,.76,.11,1.39,.7-.24,1.16-.07,1,2.26-2.23,4.72-.88,7.95,.37,2.69,1.57,3.35,1.87,5.85-.71,.73-1.28-.86-1.28-.86-.73,1.24-.77,2.24-.51,3.54-.29-.3-.61-.08-1.08,.24-.04,1.01,1.28,.86,.54,2.09-.39-.29-1.02-.67-1.37-1.21,.19,1.22,.73,2.47,.9,3.74-.7,.22-.89-.88-1.26-1.37,.11,1.4,.11,3.61,1.09,4.19l.49-.82c-.02,.5-.92,.12-1.06-.27-.65-1.29,.59-1.63,.98-1.64l.12,.9c2.32-.56,.12-3.52,.49-5.24l1.5,.95-1.09-1.97c.47-.32,1.4-.45,1.52,.44,.96-1.14-.42-1.18,.61-2.13,.15-.1,.22-.03,.27,.08l-.31-1.29c.3,.29,1.16-.05,.83,.67,1.23-2.06-.72-3.69,.61-4.35l.07,.2c-.13-3.11-1.14-.45-2.21-2.91l3.12-1.15-1.14-.45c.09-.31,.26-.92,.71-.74-.65-1.27-.54,.13-1.21-.64,1.28-1.37,.07-4.22,1.99-4.33-.82-.65-.89,1.36-1.29-.33,2.08-.21-.09-1.9,1.02-3.17,.99,.55,.25,1.79,1.37,.52-1.63-1.04,.72-2.64,.49-3.85-1.4-.22-.33-2.61-.6-4.62,.46,.18,1.15-3.6,1.84-5.37l.23,.08c-1.39-.51-.93-2.36-1.08-3.76,.84,.14,1.16,.42,1.46,1.21l.12-1.29c-.42-.35-.62-.78-.7-1.63l1.03,.43c.12-1.72-.9-3.58,.03-5.71-.98-.22-2.94,1.48-3.37-.91,.54-.03,1.47-.03,1.63,.6-.05-.21-.37-.76-.1-1.13l.81,1.02c.5-.96-.7-.6-.54-1.39,.76,.09,.61-.54,1.2-.37,.05,.21-.39,.67-.12,1.01,.23-.89,.79-1.94,1.41-2.25-.44,.04-1.03-.1-1.06-.77,.12-1.72,.98-.5,1.47-1.46-.49-.46,.17-1.51-.97-1.64,.06-.5,.6-.54,.93-.71-.41-.93,.28-4.16-1.04-3.27l-.1,.22s-.02-.09-.04-.15h0c-.43-1.5-.09-2.99,.28-4.48,.35-1.49,.79-2.97,.65-4.43l.38,.04c-.31-1.76,.02-3.86-.71-5.16,.04-.51,.79-1.15,1.23-.89-.19-1.34-.61-1.52,.16-3.38,.57,1.38,.63-.41,.39,1.4,.46-1.69,1.1-2.03,.18-3.95,.94,.7,1.33-1.2,1.1-2.04l-.79,1.15c-.08-.93,.07-1.72,.21-2.53l1.26,.53c1.83-3.4-2.21-6.51,.61-9.01-.84-.99-.77,1.86-1.77,.96,.29-1.6,2.27-3.16,2.31-3.67,.88-2.17-1.74-2.18-1.08-4.47-.48,.27-1.73,.47-2.04-1.28,.29-1.6,2.08-1.87,2.37-.82,.01,.39-.15,.57-.3,.54,.13,.53,.28,1.23,.82,.62l-.45-.24c.54-.77,.63-3,1.35-2.43-.38-1.25-.73-.57-1.01,.32,.77-2.03,.18-3.24,.73-5.35-.27,.33-.83,.61-.81,.27,.72-3.1-.81-1.43-.91-3.56,.76-1.17,1.66,.52,1.17-1.64,.54-1.28,1.24-.21,1.59,.33-.79-1.99,.76-3.61,.98-4.71l.32,1.05c-.19-.63-.16-1.13-.13-1.64l-.95,.54c.19-.59,.22-1.1,.6-1.07-.57-.65-1.56,.4-2.32-.88,.51-.78-.38-2.47,.85-2.68-.54,2.5,1.24-.22,1.34,1.93-.13-.42-.1-.92,.1-1.52,.14-.08,.25,.1,.31,.27,1.21-2.36-1.33-1.18-1.18-3.68,.67,.35,1.34-.52,1.21-.93-.06,1.01-1.17,.43-1.66-.52,.62-1.58-.31-1.76-.21-2.6l-.3,.95c-.67-.36-.54-1.15-.71-2.28,.54-.07,.32,1.03,.58,.64-1.15-1.3,1.39-2.75,.66-4.52,.51-.78,1.3-.02,1.65-.71-.8-1.98,1.05-2.06,.41-4.14-.96,.55-.73,.66-1.57-.81l.49,3.38-1.24-2.21c-.06,1.01,.48,2.16,.29,2.76-.71-1.06-.48-.94-1.27-.49,1.46-1.33-.68-2.78,.34-4.34l2.29,.14c1.16-2.37-1.04-4.32-.35-7.43l-.43,.99c-.9-.45-.07-1.93-.41-2.96,.77,.12,1.06-.5,1.55-.92-.57,.03,.12-2.29-1.41-2.62l1.05-1.36c.49-2.51-2.1-2.95-1.77-5.37,.81,.76,1.39-.33,1.94,1.31,.03-.81,.19-1.53-.34-1.56,.49-.46-.97-2.28-.22-3-.33-.35-1.13-.49-1.04-1.39,.16-.09,.38,.01,.38,.01-.38-.01-.47-1.44-1.35-.67,2.47-2.43,.03-6.97,2.15-9.09-.21-1.77-.39-3.91-.4-5.51,.23,.11,.38,.01,.29,.31,.77-2.2-2.15-1.41-1.32-3.91,1.26-1.26,.66,1.35,1.14,.56,2.53-.3-.31-3.05,1.19-4.72l.14,.41c.87-1.28-.92-3.18-.71-5.29,0,0,.22,.11,.38,.02-1.27-1.47-1.67-4.21-2-6.25,.98,.65,.51,.93,1.52,.56-.13-.91-1.62,.25-1.88-1.58,.55-.59,1.04-1.89,2.11-2.06l.04,1.72c1.4-.86-.02-2.23,.23-3.13l.6,.12c-.17-2.64-1.69-2.69-1.55-5.52l-.46,.29c-1.5-1.56,.87-1.29-.24-2.84l1.54-.45c-.36-1.02-1.44-3.59-1.71-5.42,1.13,1.04,1.68,3.19,2.34,4.52,.02-1.01-.07-3.44-.82-3.97,.14,.41,.51,.93,.27,1.33-1.19-1.25-1.77-2.89-1.72-4.9,3,.37,.75-5.25,3.06-6.71-1.11-3.57,.45-7.08,.26-11.24-2.31,1.48-.07-1.21-2.45-.95-.16-.97-.12-1.34,.04-1.42l1.41-2.94c.69-.7,.53,.92,1.06,.83,.18-2.12,1.01-.89,1.63-2.3-.85,.29-1.22-.73-.9-1.94l-1.09,1.71c-1.27-2.96,1.99-2.57,.73-5.55l.75,.94c-.45-1.53,0-5.66-1.92-7.15,.27-.27,.92-.64,1.1,.04,.29-3.67-2.15-8.13-1-10.99l.59,.27c-.18-.68-1.11-1.18-.54-2.04,.24,.04,.58,.27,.61-.05-.21-.36-1.05-1.8-.72-2.71l.67,.76c.71-3.58-1.68-5.46-2.13-8.45,1.71-.02,2.23-2.84,2.48-4.25l.24,.04c.15-4.17-1.53-7.04-2.26-10.88,1.8-2.43,.56-8.12,1.5-11.98-.3,.6-1.34-.06-1.53-.74,.32-.91-1.26-2.46,.32-2.36l-.02,.32c1.52-.72,1.06-2.56,1.07-4.01l-2.06-.18c2.89-3.87-1.36-9.88,1.26-12.03-.54-.9-.56-2.03-1.1-2.92h1.1c.2-2.53,.28-3.79-.09-6.91l.81,.61c0-1.77-3.26-2.12-3.38-3.74l1.63-.55c-.14-3.08,1.19-6.24-.41-9.23,.24,.04,.72,.11,.81,.61-.01-1.45,.91-5.65-1.33-5.03,1.47-.09,.03-3.18-.68-4.82l1.09,.21c-1.44-1.35-1.81-1.38-2.27-3.32,.12-.47,.85-.44,.6,.19,.5-1.57-1.08-1.16-.59-3.06l.72,.67c.01-1.59-.35-1.45-1.2-2.29-.48-.98,.14-3.03,1.1-3.31-.61-.19-1.45-1.02-1.21-1.97,.36-.14,.61,.19,.73,.35,.62-2.69-1.44-3.9-.46-5.77,.36-.05,.53-.18,.63-.34,.07,2.11,.09,3.82,0,3.66,1-.04,1.1-1.76,2.54-.46-.82-1.34-2.56-3.6-2.16-5.29,.09-.09,.18-.17,.34-.24l.12,.17c.08-.39-.03-.73-.21-1.04,.14-.54,.25-.88,.24-1.39,.82-.24,.36-1.98,.36-2.83-1.09,.12-.96-1-1.82,.09,.07-.14,.14,.15,.21,.72,.04,.13,.06,.28,.13,.36l-.1-.05c.06,.56,.11,1.28,.17,2.11-.59-.65-1.08-1.33-.52-2.3-.72-.4-1.47-.85-1.82-1.1,1.47-1.24,2.19-3.52,3.12-3.88-.74-2.57-.73-6.1-2.86-7.63-.3-.72,.54-.88,.85-1.17,.23,.42,.22,.92,.53,1.14-.61-1.45-.44-4.36-1.89-4.64,.55-1.9,1.38,.97,1-1.57l.46,.32c2.01-5.16-4.08-7.97-1.47-13.71-.16,.4-.23,.59-.46,.69,.91-6.43-2.01-13.02-.34-19.42,.29-1.81-.63-1.94-1.4-2.98l1.15-.46-1.48-1.77c-1.17-2.57,2.57-4.76,.47-7.97l-.76,.49c.07-1.21-.74-3.76,.19-3.63-.15-.11-.85-.33-.47-.83l.61-.08-1.27-2.87c.28-2.32,2.46,.18,2.34-3.17-.33-1.23-2.06-3.4-2.43-2.9,0,.5-.28,1.31-.89,1.39l-.41-1.11c-1.82-.06-3.74-.77-4.79,2.09l1.25,1.84-.83,.69-.18-1.62c-.75,.98,.02,1.51,.57,2.13-.45,.19-.76,.49-.91,.88l1.86,1.77c-.69,.28-1.46-.75-1.76,.55,.87,.83,1.52-.97,2.16,.46-.75,.98-1.44,.76-.66,1.79-.45,.19-.77-.02-1-.44,.63,.92,.43,2.53,1.42,2.97-.95,1.03,.48,3.24-1.23,3.27,.43,.28,1.46,1.61,1.59,2.49-2.16-1.48,.1,3.33-2.12,3.05,1.92,1.08,1.11,4.28,2.27,6.33-.15-.11-.46-.32-.38-.52-.08,1.21-.61,1.59-.92,2.38,1.53,.06,1.99,1.9,2.99,2.85-1.38,1.56-1.84-.78-3.22-.23,1.23-.15,1.39,2.47,2.38,1.91-.84,1.18-.38,.99-1.61,1.65,1.92,.08,.39,1.02,1.61,1.88-.84,1.68-1.76,.53-1.07,2.27-.53,.88-1.3-.66-1.3-.66Zm5.53,42.25h-.02l-.1-.87,.12,.87Zm.18,3.57c.02-.44,0-.98-.03-1.55,.37-.14,.77-.03,.76,.34-.26-.18-.44,.67-.74,1.21Zm7.23-7.91c.18,.56-.03,.76-.25,.85-.03-.27-.08-.58-.18-.98-.04-.01-.09-.05-.14-.06,.21,.04,.41,.1,.56,.2Z"/><path class="f" d="M570.74,573.19c-.03-.08-.08-.12-.09-.23-.09,.12-.17,.23-.23,.35l.35,.18-.03-.3Z"/><path class="f" d="M566.08,897.35l.03-.07c-.05,.06-.1,.11-.17,.14,.06-.05,.09-.04,.14-.07Z"/><polygon class="f" points="564.79 631.41 565.07 631.39 564.82 631.09 564.79 631.41"/><path class="f" d="M560.36,916.57c-.1,.03-.21,.09-.3,.23,.07,0,.18-.1,.3-.23Z"/><path class="f" d="M559.26,924.99l-.51,1.15c.27-.49,.42-.86,.51-1.15Z"/><path class="f" d="M558.05,931.42c.18,.1,.32,.14,.45,.18h0l-.46-.18Z"/><path class="f" d="M564.78,827.92c0-.09-.01-.18-.04-.25-.18-.6-.12-.19,.04,.25Z"/><path class="f" d="M565.71,858.91c-.17-.34-.35-.67-.44-1.02-.12,.54-.18,.97,.44,1.02Z"/><path class="f" d="M564.73,793.42s0,0,.02,0v-.21l-.02,.21Z"/><path class="f" d="M565.39,856.45c-.26,.54-.24,1-.12,1.43,.11-.45,.26-.97,.12-1.43Z"/><path class="f" d="M553.72,959.34l-.09,.3c.07,0,.13,.03,.17,.06l-.08-.37Z"/><path class="f" d="M553.81,959.71l.08,.36c.02-.16,.03-.3-.08-.36Z"/><path class="f" d="M554.06,960.84l-.17-.77c-.04,.25-.11,.56,.17,.77Z"/><path class="f" d="M555.39,950.87l-.38-.15c.07,.06,.2,.12,.38,.15Z"/><path class="f" d="M555.64,948.25c-.17,.61-1.05,1.44-.92,2.34l.3,.12c-.53-.49,1.2-1.78,.62-2.46Z"/><path class="f" d="M561.99,938.02l-.61,2.15c.47-.33,1.1-.76,1.07,.25,1.63-2.6-1.02,.45-.45-2.4Z"/><path class="f" d="M563.51,931.3c.06,1.2,.62,.06,.84,.15-.31-.79-.38-.99-.84-.15Z"/><path class="f" d="M568.18,882.03l.98,.2c-.08-.92-.38-.04-.98-.2Z"/><polygon class="f" points="563.74 872.22 563.06 873.06 563.93 873.55 563.74 872.22"/><polygon class="f" points="571.21 867.15 571.33 867.56 571.08 866.01 571.21 867.15"/><path class="f" d="M574.62,784.07l-1.23,.25c.2,.62,1.58,.79,1.23-.25Z"/><path class="f" d="M573.95,748.18c.62-.38,1.02-1.39,.43-2.02-.09,.81-.58,1.61-.43,2.02Z"/><polygon class="f" points="574.88 640.61 575.31 641.32 574.93 639.98 574.88 640.61"/></g><g><path class="f" d="M618.41,960.13c.24,.34,1.01,.45,1.06-.26l-1.08-.86,.02,1.12Z"/><path class="f" d="M622.01,956.44c-.36-.96-1.14-2.18-2.42-2.03,.95,1.13,.4,1.16,1.56,2.43-.06,.7-.74,1.02-1.16,.77,.24,.33-.58,.93,.08,1.53,1.21-.55,1.58-1.63,1.13-3.01,.34-.16,.59,.18,.8,.31Z"/><path class="f" d="M639,891.23l-.21,.41c.1-.1,.17-.24,.21-.41Z"/><path class="f" d="M644.98,849.82c0,.32,.12,.47,.23,.49-.06-.3-.11-.55-.23-.49Z"/><path class="f" d="M647.06,842.83c-.06,.15-.09,.28-.13,.41,.13-.15,.21-.3,.13-.41Z"/><path class="f" d="M639,891.23l.56-1.04c-.4-.14-.39,.52-.56,1.04Z"/><path class="f" d="M621.71,946.71c0,.24,.05,.46,.15,.67,0-.2,0-.39,.03-.58-.06-.03-.12-.05-.18-.09Z"/><path class="f" d="M636.84,909.59l-.06,.34c.13,.13,.28,.25,.46,.38l-.41-.71Z"/><path class="f" d="M634.11,923.52c.11-.3-.93-.65-1.37-.87,.4,.27,.56,.55,.59,.85,.2,.05,.45,.06,.79,.03Z"/><path class="f" d="M626.88,944.89c.02,.14,.03,.28,.04,.42-.01-.11,0-.29-.04-.42Z"/><path class="f" d="M638.85,899.64c.16,0,.31-.02,.41-.06-.13-.02-.27,0-.41,.06Z"/><path class="f" d="M624.29,506.57c.08,0,.13-.02,.19-.03-.12-.07-.2-.08-.19,.03Z"/><path class="f" d="M627.25,489.63l.09,.21c.21,0,.41-.02,.61-.05l-.71-.17Z"/><path class="f" d="M649.54,829.89s-.01,.03-.03,.06c.1,.35,.09,.16,.03-.06Z"/><path class="f" d="M651.13,709.8c-.94,1.38-1.31-2.18-2.35-.1,.42-.2,1.76,1.81,2.35,.1Z"/><path class="f" d="M621.95,946.4c.04-.18,.09-.37,.16-.55-.11,.24-.16,.41-.16,.55Z"/><path class="f" d="M648.79,709.69h0l-.1,.21,.11-.21Z"/><path class="f" d="M650.69,799.72c-.2,.05-.35,.17-.49,.29,.11,0,.25-.07,.49-.29Z"/><path class="f" d="M647.88,822.06l.19-.54c-.12,.21-.16,.39-.19,.54Z"/><path class="f" d="M649.57,788.01c.09-.3,.25-.4,.11-.81-.06,.04-.1,.07-.14,.12,.14,.15,.21,.35,.02,.69Z"/><path class="f" d="M649.94,775.89c-.08,.06-.15,.15-.22,.22l.05,.39,.17-.6Z"/><path class="f" d="M629.53,542.84c.27-.3,.59-.5,.91-.67-.75,.28-1.23-1.45-.91,.67Z"/><path class="f" d="M622.3,946.87c-.24-.14-.35-.28-.35-.47-.03,.14-.05,.27-.06,.4,.15,.08,.29,.13,.41,.07Z"/><path class="f" d="M640.96,787.23l.22-1.91c-.12,.53-.2,1.22-.22,1.91Z"/><path class="f" d="M638.03,628.95l-.16-.43c-.01,.17,.03,.32,.16,.43Z"/><path class="f" d="M641.21,779.65c.4-.33,.63-.69,.79-1.06-.08-.08-.15-.17-.27-.23l-.52,1.29Z"/><path class="f" d="M630.45,542.16s-.01,0-.01,0c0,0,0,0,.01,0Z"/><path class="f" d="M626.34,529.95c.19,1.81,1.5,.67,2.37,.96,.67,2.11-.93,1.13-1.56,1.96,.55,1.3,1.98,2.18,2.05,3.19-.23,.1-.29,.31-.61,.12,1.31,1.29,.59,4.23,2.2,5.72-.11,.14-.22,.22-.33,.26,.68-.36,1.41-.48,1.93-.49,.12,.81,1.08,1.4,.18,1.82-.03-.5-.41-.5-.73-.7l.5,.8c-1.25,.93-.6-1.11-1.59-.99,.63,1.61,1.97,3.42,1.74,4.74-1.28,.42-.79-2.93-1.76-1.09l.27-2.03c-1.89,1.75,0-1.21-2.05,.43-.08,2.64,1.01,2.82,.93,5.45,.8,.5,1.06-.32,1.86,.18,1.74,3.53-2.97,3.27-.92,5.78,.95,.6,2.64,.69,1.98,2.71l-1.56-.49c.13,2.53,2.29,1.2,1.59,3.94-.64-.4-.71-1.92-.85-1.52-.98,1.83,.98,1.11,1.12,2.42l-1.29,.41c.51,2.65,1.75,5.5,2.3,8.44-.41-.12-.87-.59-1.2,.15,1.04,3.67,.68,8,.23,11.68l1.27,1.27c.02,.32-.46,.64-.71,.32-.3,1.45,.73,0,1.24,.64,.16,.79-.55,1.12-.94,.65,1.2,2.39,2.77,6.87,1.78,9.6l-.38-.48c-.28,2.08,2.53,2.09,1.64,4.08l-.23-.34c-.11,4.47,1.38,9.27-.06,12.79,1.69,.51-.38,4.44,1.93,4.54-.93,2.62-1.4,1.93-1.88,5.55-.03,.96,1.54,1.31,1.87,2.46l-1.19,.12,1.38,1.5-1.36,.96,.38,1.08c.04-.44,.47-.97,.82-.93,.66,1.68-.54,4.26-1.15,4.35l1.3,4c-.49-.06-.7-.73-1.05-1.24,1.37,2.09-1.23,.48,.03,2.4,.25-.29,.72,.09,.97,.12-.65,1.04-.5,3.3-.08,4.96l-.85-.27c.02,3.03,.8,6.34,1,9.74,.31-1.24,1.76-1.05,1.96-.06l-1.24,.48c.82,.59,.41-1.07,1.45,.19-.07,1.28-1.39,.94-1.84,.24l.53,1.51c-.37,.11-.59-.24-1.08-.3,.82,.59-1.11,2.73,.31,3.57l-.37,.11c.19,3.39,.74,4.9,.93,7.66,1.1,0,.91,1.09,1.83,1.87-.25,2.05-.99,4.35-.78,6.79,.63,1.69,.95,.46,1.64,1.2-.99,.17-.77,2.62-1.55,1.38,.31,2.93,.41,3.74,1.35,7.43,.39-.42,.55-.88,.9-.66,.19,.67-.36,1.55-.84,1.48l-.11-.17c1.66,4.12-2.53,9.74-.32,12.99l-.11-.18,1.2,3.41c-.13,1.59-.77-.93-1.36,.27,1.76,3.67-.08,5.88,1.11,8.91-2.89,2.44,.47,8.41-1.39,11.64l.69-.2c.69,.81-.38,1.01-.53,1.62,.54-.1,.61-.91,.99-.4,.91,6.99-.75,14.47-1.42,21.64-.19,2.62,3.58,1.49,1.93,4.8l-1.29-.94c1.55,5.3-.04,10.83,1.15,16.02-.29-.31-.68-.33-.66-.83-.95,1.08-.11,4.05,.65,4.08-.1,.81-.69,.18-1.09,.67-.57,1.09,1.15,2.78,.21,3.34-.15,.1-.3-.31-.37-.52,.44,.72-.17,3.33,.92,2.67-.55,1.93,.43,3.73-.27,5.27,1.17,1.04-.69,3.31,1,3.68-1.76-.19-1.53,3.37-.74,4.62-.52-.43-.59,1.05-1.31,.54-.02,1.4,.26,2.7,1.18,2.49-2.19,2.51,1.53,5.26-1.22,6.61,.73,4.2,1.18,8.09,1.4,11.86-1.75-.23,.04-4.15-1.81-4.08,.54,3.58,1.94,5.72,1.34,9.22-.29,.9-.73-.56-1.02-.89,.57,3.6-.59,6.85,.15,10.06-.16-.02-.32-.37-.43-.7,.01,.63-.36,1.43,.44,1.41l-.17-.62c1.23-.92,2.24,2.64,2.84,2.8-2.21-1.22-.8,3.08-3.56,1.19,.12,.42,.46,.96,1,.91-.2,.6-.52,.77-1.08,.11,.27,2.26,1.18,1.53,1.02,3.55-.39-.04-.5-.46-.94-.7,.68,1.08,1.36,2.17,.91,3.85-.22-.12-.54,.05-.5-.46-.09,2.94,1.55,5.16,.54,8.31-1.58-1.1-.65,1.04-2.12,1.08l.27,1.76,.77-.63c-.17,1.51,.76,2.95,.17,4.2l-.49-1.18v2.86l.71-1.55c.6,1.61,1.84,.02,1.25,1.99-.11-.43-.16,1.52-1.09,2.22h0c.39,.79,.81,1.62,.31,2.69-.5,.24-1.57-.4-1.9-.25,1.12,.87-.09,3.57,1.09,4.64-.27-.35-1.02-.45-1.19-.36l.91,.73c-.4,.66-.56,.75-1.15,.57-.43,2.08,1.91-.46,.82,1.95-.06-.21-.21-.13-.31-.55-.71,2.46,.05,4.92-.71,7.16-1.53,.5-.12-2.06-1.43-1.43-.07,1.67,.17,3.45,.32,5.2,.11,1.75,.15,3.47-.26,5.05l.25-.57c1.98,.73-1.36,2.24-.63,4-.09-.42-1.06-.68-.84-.54-.65,2.14-.15,4.55,0,7.97l-.46-.49c-.66,1.22-.75,3.36-1.26,4.7,.45,.5,.22,1.28,1.07,.92-3.74,3.76,.14,8.45-3.01,11.8,.08-.45-.26-1.17-.33-.81l-.09,3.32c.93-.09,.61-.32,1.42-.87,.45,.51,.69,1.5,.55,2.31-.33-1.57-1.4-.26-2.04,.26,.29-.05,.55,.22,.83,.22-1.93,1.37,1.71,.63,.17,2.72l-.44-.22c.05,.91,.49,1.82,.16,2.72-1.1,.17-.28-1.01-1.11-1.24-.22,1.31,1.38,2.97,.11,3.93-.17-.61,0-1.41-.16-2.02-1.47,1.03-1.2,1.24-1.59,2.15l.05-.09-1.01,2.08,.44-.49c2.3,2.21-.22,3.41,1.04,6-1.18-2.51-.87-.57-1.99-1-.44,.49-.98,1.25-1.25,.93,.72,1.25-1.14,1.54-.14,3.3-.39-.02-.31,1.08-1.18,.63-.05,1.4,.72-.16,1.16,.06,.73,2.36-2.75,4.43-1.78,7.82,.06,2.73,1.18,3.53,1.19,6.08-.79,.64-1.17-1.02-1.17-1.02-.85,1.15-1.05,2.12-1,3.44-.25-.33-.59-.16-1.11,.09-.19,.99,1.13,1.02,.21,2.14-.34-.34-.91-.8-1.17-1.38,0,1.22,.34,2.54,.31,3.81-.73,.12-.75-.99-1.04-1.53-.11,1.4-.45,3.58,.42,4.29l.61-.74c-.1,.5-.93-.02-1.01-.43-.44-1.37,.84-1.52,1.22-1.48l-.02,.91c2.39-.22,.67-3.47,1.3-5.1l1.34,1.15-.77-2.1c.52-.25,1.46-.26,1.44,.64,1.13-1-.22-1.23,.93-2.03,.16-.08,.23,0,.26,.12l-.16-1.33c.27,.33,1.15,.1,.74,.78,1.45-1.91-.29-3.79,1.11-4.29l.05,.21c.23-3.13-1.08-.59-1.86-3.18l3.22-.78-1.08-.59c.12-.3,.36-.89,.79-.66-.5-1.35-.55,.07-1.13-.78,1.43-1.22,.55-4.2,2.47-4.1-.74-.74-1.04,1.26-1.25-.47,2.09,.02,.15-1.9,1.33-3.06,.93,.66,.11,1.83,1.32,.67-1.55-1.22,.95-2.58,.87-3.82-1.37-.36-.04-2.64-.08-4.68,.44,.22,1.54-3.49,2.43-5.19l.22,.1c-1.34-.63-.64-2.43-.69-3.85,.83,.22,1.13,.53,1.35,1.34,.09-.43,.15-.86,.23-1.28-.4-.39-.56-.84-.57-1.7l.99,.52c.25-1.72-.62-3.67,.47-5.74-.96-.3-3.04,1.24-3.28-1.18,.55,0,1.47,.09,1.58,.73-.03-.21-.31-.79-.02-1.15l.73,1.09c.57-.93-.65-.66-.43-1.44,.75,.15,.65-.5,1.23-.27,.04,.22-.44,.64-.19,1,.3-.88,.94-1.89,1.58-2.15-.44,0-1.02-.18-1-.85,.25-1.72,1.02-.43,1.58-1.36-.45-.5,.29-1.5-.84-1.72,.09-.5,.64-.5,.98-.65-.17-.48-.02-1.52,0-2.34,0-.82-.14-1.42-.81-1.02l-.11,.21s-.01-.1-.03-.15h0c-.7-3.08,1.53-5.94,1.47-8.9l.38,.06c-.18-1.79,.31-3.87-.33-5.21,.08-.51,.87-1.11,1.29-.83-.1-1.36-.48-1.56,.39-3.38,.5,1.42,.66-.38,.3,1.42,.57-1.67,1.2-1.98,.39-3.96,.9,.75,1.38-1.14,1.19-1.99l-.84,1.12c-.03-.94,.15-1.73,.33-2.53l1.23,.6c1.98-3.34-1.91-6.66,1.03-9.04-.79-1.03-.86,1.84-1.81,.89,.37-1.59,2.41-3.08,2.48-3.59,.97-2.15-1.67-2.27-.96-4.54-.49,.25-1.74,.4-2.01-1.37,.32-1.6,2.11-1.8,2.39-.74,0,.39-.16,.57-.32,.53,.12,.54,.25,1.25,.81,.66l-.44-.26c.54-.76,.7-3,1.41-2.4-.32-1.27-.7-.6-1.03,.29,.86-2.02,.32-3.25,.97-5.35-.29,.32-.86,.58-.82,.24,.86-3.09-.74-1.46-.75-3.61,.81-1.15,1.63,.58,1.25-1.61,.6-1.27,1.25-.17,1.57,.38-.69-2.03,.91-3.61,1.14-4.72l.3,1.06c-.18-.64-.13-1.14-.1-1.66l-.96,.52c.2-.59,.24-1.11,.63-1.06-.56-.67-1.57,.36-2.3-.94,.53-.77-.33-2.49,.91-2.68-.6,2.51,1.25-.19,1.29,1.98-.12-.43-.07-.93,.13-1.53,.14-.08,.25,.1,.31,.28,1.27-2.35-1.3-1.22-1.1-3.74,.67,.37,1.35-.49,1.23-.91-.09,1.01-1.18,.4-1.65-.56,.65-1.58-.27-1.78-.15-2.62l-.32,.95c-.67-.37-.52-1.17-.66-2.31,.54-.06,.3,1.04,.56,.66-1.12-1.33,1.46-2.74,.76-4.53,.52-.78,1.3,0,1.66-.69-.79-2.01,1.05-2.06,.42-4.16-.96,.54-.74,.66-1.57-.84l.48,3.41-1.24-2.24c-.07,1.02,.47,2.18,.28,2.78-.7-1.08-.48-.96-1.27-.51,1.46-1.31-.67-2.8,.35-4.36l2.29,.17c1.15-2.37-.96-4.37-.22-7.48l-.45,.99c-.89-.47-.03-1.95-.35-2.98,.76,.13,1.07-.49,1.57-.91-.57,.03,.17-2.3-1.35-2.65l1.07-1.36c.5-2.53-2.09-2.98-1.75-5.41,.81,.77,1.39-.33,1.93,1.33,.03-.82,.2-1.54-.33-1.58,.5-.46-.96-2.3-.21-3.02-.33-.35-1.13-.49-1.03-1.41,.16-.09,.38,.02,.38,.02-.38-.02-.47-1.45-1.35-.68,2.47-2.44,.07-7.01,2.17-9.14-.23-1.78-.44-3.93-.47-5.55,.23,.11,.38,.01,.3,.32,.75-2.21-2.18-1.41-1.35-3.93,1.26-1.27,.65,1.36,1.13,.56,2.53-.31-.3-3.06,1.21-4.75l.14,.42c.88-1.3-.91-3.19-.69-5.32,0,0,.22,.11,.38,.02-1.28-1.47-1.71-4.22-2.07-6.27,.99,.64,.52,.93,1.53,.55-.14-.92-1.61,.26-1.9-1.57,.54-.59,1.02-1.91,2.09-2.09l.06,1.73c1.39-.88-.05-2.24,.19-3.15l.61,.12c-.2-2.65-1.72-2.69-1.61-5.53l-.46,.3c-1.51-1.55,.85-1.31-.27-2.85l1.54-.48c-.36-1.03-1.53-3.59-1.84-5.42,1.15,1.03,1.77,3.18,2.46,4.51,0-1.02-.16-3.46-.93-3.98,.15,.41,.54,.92,.31,1.33-1.22-1.24-1.84-2.87-1.84-4.9,2.98,.32,.68-5.29,2.97-6.8-1.13-3.57,.35-7.13,.05-11.32-2.28,1.54-.1-1.22-2.47-.9-.18-.97-.15-1.34,0-1.43l1.34-2.99c.67-.72,.55,.91,1.08,.81,.12-2.14,.98-.92,1.58-2.36-.84,.31-1.24-.71-.95-1.93l-1.05,1.75c-1.35-2.94,1.93-2.64,.59-5.61l.77,.93c-.47-1.53-.2-5.69-2.16-7.13,.26-.28,.9-.67,1.1,0,.14-3.7-2.35-8.12-1.29-11.03l.59,.25c-.19-.68-1.14-1.15-.59-2.03,.24,.03,.59,.25,.61-.07-.22-.35-1.11-1.78-.82-2.7l.69,.75c.58-3.63-1.87-5.44-2.42-8.42,1.71-.08,2.12-2.93,2.33-4.36l.24,.04c.02-4.2-1.82-7.02-2.72-10.85,1.7-2.51,.3-8.18,1.08-12.11-.27,.61-1.34,0-1.56-.68,.28-.93-1.36-2.42,.22-2.38v.32c1.48-.79,.94-2.62,.88-4.08l-2.07-.1c2.71-4.01-1.79-9.87,.7-12.14-.59-.88-.67-2.01-1.25-2.88l1.1-.04c.08-2.56,.11-3.84-.4-6.96l.84,.58c-.07-1.78-3.34-1.97-3.54-3.6l1.6-.63c-.3-3.08,.87-6.33-.89-9.25,.24,.03,.73,.08,.84,.57-.09-1.46,.61-5.72-1.59-4.99,1.46-.17-.14-3.2-.95-4.8l1.1,.16c-1.51-1.28-1.9-1.28-2.47-3.21,.1-.48,.83-.49,.61,.15,.42-1.6-1.14-1.11-.74-3.04l.76,.63c-.07-1.6-.43-1.44-1.32-2.24-.53-.96-.02-3.05,.93-3.38-.62-.16-1.49-.95-1.31-1.92,.36-.16,.62,.16,.75,.32,.46-2.74-1.66-3.83-.79-5.77,.35-.07,.52-.21,.61-.38,.19,2.12,.31,3.83,.22,3.68,.99-.1,.99-1.83,2.51-.61-.89-1.3-2.76-3.48-2.47-5.19,.09-.09,.17-.18,.32-.26l.13,.16c.06-.39-.07-.73-.27-1.04,.11-.55,.19-.9,.16-1.41,.8-.28,.24-2.01,.19-2.86-1.08,.19-1.02-.95-1.81,.19,.06-.14,.15,.15,.25,.71,.05,.12,.08,.27,.15,.35l-.1-.05c.09,.56,.19,1.28,.29,2.11-.62-.61-1.16-1.27-.65-2.27-.74-.36-1.51-.77-1.88-1,1.4-1.33,1.96-3.66,2.86-4.08-.9-2.53-1.08-6.08-3.3-7.49-.34-.71,.49-.92,.78-1.23,.25,.4,.28,.91,.6,1.11-.68-1.42-.7-4.35-2.17-4.54,.43-1.93,1.44,.89,.9-1.64l.48,.29c1.68-5.3-4.59-7.74-2.36-13.66-.13,.41-.19,.61-.42,.72,.51-6.52-2.86-12.92-1.66-19.45,.17-1.84-.76-1.91-1.6-2.9l1.11-.54-1.6-1.67c-1.35-2.49,2.22-4.96-.11-8.03l-.72,.54c-.03-1.22-1.01-3.72-.08-3.65-.16-.1-.87-.27-.53-.8l.6-.13-1.48-2.78c.1-2.34,2.47,0,2.08-3.35-.42-1.2-2.32-3.25-2.65-2.72,.05,.51-.18,1.34-.78,1.47l-.49-1.08c-1.82,.08-3.79-.47-4.61,2.46l1.39,1.74-.78,.75-.3-1.6c-.67,1.04,.13,1.51,.73,2.08-.44,.22-.72,.54-.84,.95l2,1.63c-.67,.33-1.52-.64-1.72,.68,.92,.77,1.45-1.08,2.18,.31-.68,1.04-1.38,.87-.53,1.85-.44,.22-.77,.03-1.03-.36,.69,.88,.61,2.51,1.63,2.87-.87,1.1,.72,3.21-.99,3.36,.45,.24,1.57,1.51,1.77,2.38-2.26-1.33,.35,3.32-1.9,3.2,1.99,.94,1.4,4.21,2.7,6.19-.16-.1-.49-.29-.42-.49,0,1.21-.49,1.63-.74,2.44,1.53-.05,2.12,1.77,3.18,2.65-1.27,1.65-1.89-.66-3.23-.01,1.22-.23,1.55,2.38,2.51,1.75-.76,1.24-.31,1.02-1.49,1.76,1.92-.05,.46,1,1.74,1.78-.72,1.74-1.72,.64-.92,2.35-.47,.92-1.34-.58-1.34-.58Zm8.14,41.99h-.02l-.15-.87,.17,.87Zm.39,3.57c0-.44-.05-.98-.12-1.55,.36-.16,.76-.07,.78,.29-.27-.17-.4,.69-.66,1.26Zm6.76-8.35c.21,.55,.02,.76-.2,.86-.05-.27-.12-.57-.23-.98-.04-.01-.09-.04-.14-.05,.21,.03,.41,.07,.57,.17Z"/><path class="f" d="M640.09,566.3c-.03-.08-.08-.12-.1-.23-.08,.13-.15,.24-.21,.36l.36,.16-.05-.3Z"/><path class="f" d="M638.75,891.7l.04-.07c-.05,.06-.1,.11-.18,.13,.06-.04,.09-.04,.14-.06Z"/><polygon class="f" points="637.19 625.01 637.47 624.98 637.2 624.69 637.19 625.01"/><path class="f" d="M631.6,910.52c-.1,.02-.22,.07-.33,.2,.07,0,.19-.09,.33-.2Z"/><path class="f" d="M629.58,918.79l-.63,1.09c.33-.46,.51-.81,.63-1.09Z"/><path class="f" d="M627.68,925.06c.17,.12,.31,.18,.43,.23h0l-.44-.23Z"/><path class="f" d="M640.54,822.02c0-.09,0-.18-.03-.26-.17-.6-.11-.2,.03,.26Z"/><path class="f" d="M640.49,853.12c-.17-.35-.33-.69-.42-1.05-.13,.54-.2,.97,.42,1.05Z"/><path class="f" d="M640.94,787.44s0,0,.02,0v-.21l-.02,.21Z"/><path class="f" d="M640.22,850.64c-.27,.53-.26,.99-.15,1.43,.11-.44,.28-.96,.15-1.43Z"/><path class="f" d="M619.93,952.23l-.13,.29c.07,.02,.12,.05,.16,.09l-.02-.37Z"/><path class="f" d="M619.96,952.61l.02,.37c.05-.15,.08-.29-.02-.37Z"/><path class="f" d="M620.03,953.76l-.05-.78c-.08,.24-.2,.53,.05,.78Z"/><path class="f" d="M622.91,944.12l-.35-.2c.06,.07,.18,.14,.35,.2Z"/><path class="f" d="M623.46,941.55c-.24,.58-1.2,1.3-1.18,2.21l.28,.16c-.47-.55,1.39-1.62,.9-2.37Z"/><path class="f" d="M630.93,932.09l-.86,2.08c.51-.27,1.18-.63,1.03,.37,1.92-2.42-1.06,.33-.18-2.45Z"/><path class="f" d="M633.12,925.52c-.06,1.21,.6,.12,.82,.24-.22-.83-.27-1.03-.82-.24Z"/><path class="f" d="M641.87,876.45l.97,.25c0-.93-.38-.06-.97-.25Z"/><polygon class="f" points="637.95 866.38 637.23 867.18 638.09 867.72 637.95 866.38"/><polygon class="f" points="645.66 861.64 645.75 862.05 645.57 860.48 645.66 861.64"/><path class="f" d="M650.86,778.07l-1.23,.25c.2,.63,1.57,.79,1.23-.25Z"/><path class="f" d="M649.95,741.97c.61-.39,1.01-1.41,.41-2.03-.08,.81-.56,1.62-.41,2.03Z"/><polygon class="f" points="647.69 633.8 648.15 634.5 647.71 633.16 647.69 633.8"/></g><path class="c" d="M296.07,583.6s188.66,60.54,418.5,0c0,0,7.37,24.59,5.43,44.61,0,0-234.14,54.56-431.2-4.78,0,0-1.01-35.44,7.27-39.83Z"/><path class="c" d="M288.76,806.4s195.97,60.54,425.81,0c0,0,8.22,24.84-.78,45.96,0,0-227.93,53.21-424.99-6.13,0,0-8.32-35.44-.04-39.83Z"/></svg>