<?xml version="1.0" encoding="UTF-8"?><svg id="a" xmlns="http://www.w3.org/2000/svg" xmlns:xlink="http://www.w3.org/1999/xlink" viewBox="0 0 1000 1000"><defs><style>.c{clip-path:url(#b);}.d{stroke:#ede8d5;stroke-width:12.68px;}.d,.e{fill:#eead47;}.d,.e,.f,.g{stroke-miterlimit:10;}.e{stroke-width:7.96px;}.e,.f,.g{stroke:#0d1b3e;}.h{fill:none;}.f{fill:#b23b25;stroke-width:4.77px;}.i{fill:#2c3856;}.g{fill:#0d1b3e;stroke-width:9.55px;}</style><clipPath id="b"><circle class="h" cx="501.49" cy="501.49" r="498.51"/></clipPath></defs><g class="c"><g><path class="g" d="M693.81,600.71c0-15.83-95.73-28.66-213.81-28.66s-213.81,12.83-213.81,28.66"/><g><path class="d" d="M451.12,88.19s19.54,195.88-8.79,292.11c-28.33,96.23,46.11,201.98,46.11,201.98,0,0,39.86-152.15,25.21-267.43-14.65-115.28-56.66-212.98-62.53-226.65Z"/><path class="d" d="M423.76,619.65s-56.66-37.61-80.11-86.95c-23.45-49.34-63.01-155.34-82.06-177.81-19.05-22.47-56.66-77.18-56.66-77.18,0,0,92.81,54.71,148.5,142.64,55.69,87.93,120.17,169.5,122.12,171.94s32.24,69.85-51.78,27.35Z"/><path class="d" d="M424.6,598.3s-58.72-61.98-71.23-119.19c-12.51-57.21-25.68-175-41.99-205.02-16.31-30.02-44.91-98.96-44.91-98.96,0,0,98.58,95.08,138.5,203.61,39.92,108.54,93.2,215.3,94.83,218.51,1.62,3.21,16.5,80.54-75.2,1.04Z"/><path class="d" d="M461.48,586.39s-50.91-69.52-56.17-128.13c-5.26-58.61-3.49-177.62-16.01-209.67-12.52-32.05-32.39-104.48-32.39-104.48,0,0,86.61,107.77,112.79,221.12,26.18,113.35,65.96,226.73,67.18,230.13s6.29,82.37-75.4-8.97Z"/><path class="d" d="M503.86,591.31s56.93-65.92,68.25-132.85c11.33-66.93,22.2-206.58,37.78-240.28,15.58-33.7,42.6-112.38,42.6-112.38,0,0-95.74,99.87-133.23,224.49-37.49,124.62-88.23,245.16-89.78,248.78s-14.84,94.4,74.37,12.24Z"/><path class="d" d="M426.26,631.57s-60.89-23.48-91.94-63.65c-31.04-40.17-87.36-128.47-109.53-145.22-22.17-16.75-67.74-59.16-67.74-59.16,0,0,98.55,32.24,167.21,101.27,68.66,69.03,144.67,130.71,146.96,132.56s43.03,57.05-44.96,34.2Z"/><path class="d" d="M459.77,641.93s-62.23-1.66-104.6-28.64c-42.37-26.98-125.05-90.22-150.8-98.43-25.76-8.21-81.7-32.47-81.7-32.47,0,0,98.53-2.66,184.76,38.65,86.23,41.31,176.12,73.39,178.83,74.34s59.24,38.67-26.5,46.55Z"/><path class="d" d="M543.88,616.97s64.16-41.55,92.46-98.5c28.3-56.95,77.22-179.84,99.3-205.37,22.08-25.54,66.21-88.13,66.21-88.13,0,0-104.74,59.94-170.43,160.77-65.69,100.83-140.71,193.76-142.98,196.54-2.27,2.78-39.01,80.68,55.44,34.7Z"/><path class="d" d="M552.13,592.82s74.74-64.91,94.96-124.81c20.21-59.9,47.11-183.23,69.12-214.66,22.01-31.43,62.19-103.62,62.19-103.62,0,0-124.61,99.57-181.9,213.21-57.29,113.65-130.04,225.44-132.25,228.8s-27.15,84.33,87.89,1.07Z"/><path class="d" d="M528.29,631.46s83.95-15.49,121.3-60.76c37.35-45.27,105.99-145.29,131.98-163.77,25.99-18.48,79.87-65.72,79.87-65.72,0,0-113.1,33.15-194.57,110.28-81.47,77.13-170.81,145.42-173.51,147.46s-65.71,55.21,34.94,32.5Z"/><path class="d" d="M476.38,647.02s95.58-11.26,140.46-39.69c44.87-28.43,133.48-94.94,159.96-103.68,26.48-8.75,84.63-34.44,84.63-34.44,0,0-98.01-2.01-188.02,41.68-90.01,43.69-182.78,77.79-185.57,78.8-2.79,1.01-96.2,49.79-11.46,57.34Z"/></g><path class="g" d="M694.51,600.71c0,15.83-95.73,28.66-213.81,28.66s-213.81-12.83-213.81-28.66l83.88,10.34c78.99,9.74,158.49,10.22,237.55,1.45l106.2-11.79Z"/><path class="e" d="M264.78,610.02s-105.71,336.32,0,574.45c0,0,196.15,52.76,429.61,0,0,0,117.58-312.14,0-574.45,0,0-256.64,48.36-429.61,0Z"/><g><path class="i" d="M300.9,638.97c.09,.03,.15,.02,.23,.04-.11-.13-.2-.17-.23-.04Z"/><path class="i" d="M311.45,620.53v.29c.25,.08,.49,.17,.73,.22l-.73-.51Z"/><path class="i" d="M284.3,890.64c-1.25,1.63-1.46-2.75-2.87-.29,.53-.22,2.03,2.34,2.87,.29Z"/><path class="i" d="M281.43,890.35h-.01l-.13,.25,.14-.25Z"/><path class="i" d="M283.49,986.22c.08-.37,.26-.51,.05-1-.07,.05-.11,.1-.15,.16,.19,.17,.29,.41,.1,.84Z"/><path class="i" d="M282.78,971.41c-.1,.08-.17,.19-.26,.28l.09,.47,.17-.75Z"/><path class="i" d="M293.61,683.79c.43-.26,.87-.4,1.3-.49-.98,.07-.96-2.15-1.3,.49Z"/><path class="i" d="M272.89,986.18l.06-2.39c-.1,.67-.11,1.54-.06,2.39Z"/><path class="i" d="M279.92,789.98l-.11-.56c-.05,.21-.03,.4,.11,.56Z"/><path class="i" d="M272.43,976.75c.45-.45,.71-.91,.87-1.38-.11-.09-.2-.2-.36-.26l-.51,1.64Z"/><path class="i" d="M294.93,683.3s-.01,0-.01,0c0,0,0,0,.01,0Z"/><path class="i" d="M294.37,667.36c-.42,2.22,1.52,1.34,2.44,1.98,.04,2.74-1.49,1.01-2.53,1.77,.17,1.74,1.56,3.28,1.28,4.51-.3,.04-.45,.27-.76-.07,1.09,1.99-.81,5.23,.6,7.56-.18,.13-.34,.18-.48,.2,.93-.19,1.82-.1,2.44,.08-.13,1,.8,2.03-.4,2.22,.13-.61-.32-.73-.63-1.08l.32,1.13c-1.79,.68-.33-1.52-1.54-1.72,.2,2.13,1.16,4.72,.46,6.21-1.65,.07,.04-3.74-1.71-1.88l1-2.32c-2.82,1.44,.41-1.44-2.56-.18-.98,3.12,.25,3.7-.73,6.81,.78,.86,1.35-.03,2.13,.83,.89,4.77-4.58,2.94-2.96,6.59,.94,1.03,2.91,1.67,1.48,3.87l-1.69-1.08c-.65,3.07,2.34,2.16,.64,5.21-.63-.68-.24-2.52-.53-2.08-1.74,1.89,.81,1.64,.57,3.25l-1.66,.1c-.24,3.33,.41,7.13,.18,10.81-.45-.27-.86-.97-1.48-.18,.16,4.72-1.56,9.8-3.1,14.13l1.16,1.88c-.07,.39-.72,.65-.94,.19-.76,1.66,.87,.21,1.3,1.11-.03,1-.97,1.2-1.31,.52,.79,3.22,1.42,9.03-.46,12.07l-.34-.68c-.87,2.44,2.51,3.18,.93,5.35l-.19-.48c-1.27,5.38-.68,11.55-3.25,15.48,1.92,1.01-1.49,5.31,1.27,5.96-1.73,2.97-2.13,2.02-3.52,6.32-.25,1.16,1.57,1.93,1.71,3.41l-1.47-.11,1.33,2.12-1.86,.87,.24,1.4c.14-.53,.77-1.09,1.18-.96,.46,2.19-1.52,5.08-2.28,5.06l.75,5.15c-.58-.17-.7-1.03-1.01-1.73,1.24,2.83-1.59,.34-.45,2.94,.36-.3,.86,.26,1.15,.34-1,1.15-1.26,3.94-1.07,6.04l-.97-.49c-.61,3.71-.19,7.93-.56,12.12,.6-1.47,2.32-.98,2.39,.27l-1.59,.37c.89,.87,.69-1.24,1.73,.49-.31,1.55-1.85,.91-2.28-.03l.39,1.95c-.47,.08-.68-.39-1.26-.55,.9,.86-1.81,3.17-.22,4.43l-.47,.07c-.34,4.2,.05,6.14-.1,9.57,1.33,.16,.94,1.48,1.96,2.57-.6,2.48-1.85,5.2-1.92,8.24,.54,2.17,1.1,.69,1.83,1.7-1.23,.08-1.3,3.11-2.08,1.49-.02,3.65-.05,4.66,.7,9.32,.53-.47,.77-1.02,1.17-.71,.16,.84-.61,1.87-1.19,1.72l-.11-.23c1.53,5.25-4.15,11.75-1.79,15.99l-.12-.24,1.15,4.32c-.28,1.96-.87-1.21-1.68,.21,1.88,4.68-.58,7.27,.67,11.11-3.68,2.83-.06,10.43-2.41,14.34l.85-.21c.81,1.04-.51,1.23-.72,1.98,.66-.1,.78-1.1,1.23-.45,.42,4.35,.05,8.82-.51,13.33-.6,4.51-1.33,9.05-1.71,13.51-.22,3.27,4.38,1.83,2.4,5.95l-1.59-1.15c.98,3.28,1,6.64,.99,9.99,.01,3.35,0,6.68,.87,9.88-.37-.37-.85-.37-.85-1-1.12,1.39,.06,5.03,1.01,5.03-.07,1.01-.84,.26-1.29,.89-.63,1.39,1.58,3.38,.46,4.14-.18,.13-.38-.37-.48-.62,.58,.87,0,4.15,1.29,3.25-.56,2.44,.76,4.6,.07,6.56,1.53,1.19-.52,4.17,1.58,4.47-2.16-.07-1.56,4.32-.44,5.79-.68-.48-.6,1.36-1.54,.81,.13,1.74,.62,3.32,1.71,2.95-2.39,3.37,2.43,6.32-.73,8.34,1.54,5.1,2.61,9.82,3.53,14.42-2.16,0-.65-5.11-2.87-4.74,1.24,4.35,3.31,6.73,3.15,11.14-.2,1.16-.98-.56-1.38-.91,1.25,4.32,.62,8.53,2.16,12.33-.2,0-.46-.39-.66-.77,.15,.76-.14,1.83,.83,1.64l-.34-.72c1.29-1.37,3.25,2.75,4.03,2.8-2.94-1-.26,3.92-4.02,2.24,.24,.49,.77,1.07,1.41,.88-.1,.77-.46,1.05-1.28,.37,.84,2.7,1.77,1.6,2.03,4.1-.47,.05-.71-.44-1.29-.63,1.06,1.16,2.11,2.32,1.97,4.47-.3-.09-.64,.2-.71-.43,.61,3.61,3.24,5.85,2.87,9.93-2.19-.89-.5,1.44-2.24,1.89l.84,2.06,.73-.97c.24,1.87,1.77,3.33,1.42,5.02l-.93-1.28,.84,3.45,.38-2.08c1.18,1.75,2.2-.53,2.07,2.02-.25-.47,.25,1.86-.65,2.99h0c.71,.83,1.45,1.68,1.24,3.12-.5,.45-1.99,.02-2.33,.31,1.62,.67,1.12,4.29,2.87,5.18-.43-.32-1.36-.19-1.52-.03l1.32,.56c-.24,.92-.41,1.08-1.16,1.07,.21,2.63,2.09-1.2,1.64,2.03-.14-.22-.3-.08-.57-.55,.05,3.17,1.84,5.81,1.76,8.74-1.61,1.16-.88-2.39-2.2-1.16,1.03,4.04,3.73,8.03,4.1,12.04l.05-.77c2.59,.03-.65,3.18,.95,4.92-.29-.45-1.52-.34-1.21-.27,.2,2.77,1.83,5.36,3.51,9.24l-.75-.36c-.23,1.72,.64,4.23,.77,6,.75,.35,.89,1.35,1.66,.54-1.15,3.05-.08,5.45,1.11,7.72,1.2,2.27,2.46,4.43,1.59,7.15-.16-.55-.9-1.17-.79-.73l1.64,3.78c.97-.61,.5-.7,1.11-1.75,.76,.32,1.55,1.29,1.84,2.25-1.22-1.55-1.7,.5-2.07,1.43,.29-.22,.72-.06,1.03-.22-1.29,2.58,2.23-.27,1.78,2.87l-.6,.02c.59,.96,1.61,1.7,1.78,2.87-1.09,.83-.9-.94-1.92-.71,.55,1.56,3.21,2.42,2.45,4.2-.56-.56-.85-1.52-1.38-2.09-.98,1.99-.55,2.06-.41,3.28v-.12l.2,2.87,.17-.8c3.8,.96,1.86,3.82,4.78,5.78-2.78-1.92-1.27-.05-2.7,.21-.17,.8-.26,1.98-.74,1.81,1.54,.87-.14,2.38,2.08,3.58-.41,.23,.42,1.35-.78,1.45,.91,1.5,.63-.65,1.23-.71,2.37,1.95,.2,6.53,3.64,9.32,2,2.74,3.68,2.74,5.48,5.27-.32,1.22-1.87-.16-1.87-.16-.06,1.8,.57,2.89,1.65,4.12-.5-.14-.69,.29-.99,.93,.59,1.11,1.89,.13,1.88,1.91-.59-.06-1.49-.08-2.2-.44,.96,1.2,2.32,2.21,3.29,3.45-.59,.69-1.48-.37-2.18-.66,.5,.72,1.09,1.68,1.74,2.45,.67,.76,1.38,1.34,2.08,1.32l-.03-1.18c.31,.54-.88,.73-1.28,.41-1.54-.94-.42-2.13-.03-2.38l.69,.88c2.09-2.1-2.06-3.84-2.75-5.92l2.18,.08-2.38-1.44c.3-.63,1.2-1.35,1.89-.47,.32-1.8-1.18-1.01-.68-2.65,.1-.2,.22-.17,.34-.08-.38-.39-.74-.79-1.1-1.19,.49,.12,1.21-.75,1.28,.23,.1-2.95-2.95-3.56-1.91-5.05l.19,.17c-1.97-3.29-1.49,.18-4.1-1.88l2.7-3.03-1.5,.15c-.08-.39-.23-1.15,.36-1.21-1.42-1.03-.51,.45-1.68-.03,.63-2.22-2.3-4.69-.24-5.85-1.27-.28-.22,1.97-1.6,.33,2.18-1.35-1.18-2.05-.64-4.04,1.37,.1,1.27,1.84,1.8-.14-2.38-.3-.56-3.32-1.4-4.56-1.67,.47-1.65-2.76-2.94-4.9,.57-.02-.38-4.65-.42-6.98l.3-.02c-1.8,.08-2.14-2.25-2.97-3.77,1.03-.22,1.51-.04,2.22,.71l-.45-1.52c-.65-.21-1.05-.61-1.52-1.55l1.37,.03c-.62-2.01-2.59-3.7-2.45-6.55-1.22,.16-2.73,2.97-4.27,.38,.61-.27,1.68-.66,2.13,0-.15-.22-.76-.71-.62-1.27l1.37,.83c.15-1.32-1.07-.39-1.22-1.38,.92-.22,.46-.88,1.22-.93,.15,.22-.15,.93,.3,1.21-.14-1.12,.07-2.57,.67-3.18-.5,.23-1.23,.31-1.54-.45-.57-2.04,.93-.98,1.11-2.29-.76-.34-.42-1.81-1.8-1.51-.14-.6,.47-.87,.78-1.19-.86-.91-1.39-4.92-2.55-3.38l-.03,.3s-.06-.1-.1-.16h0c-2.18-3.19-.85-7.46-2.22-10.8l.46-.09c-.99-1.96-1.26-4.57-2.57-5.86-.12-.62,.55-1.63,1.15-1.47-.67-1.52-1.22-1.6-.93-4.05,1.13,1.44,.6-.69,.92,1.53-.02-2.15,.62-2.75-1.05-4.74,1.32,.53,1.21-1.84,.68-2.76l-.58,1.61c-.38-1.08-.45-2.07-.53-3.07l1.66,.25c.57-2.29-.59-4.05-1.57-5.73-.94-1.68-1.71-3.27-.37-5.15-1.28-.95-.39,2.44-1.84,1.65-.11-2,1.81-4.4,1.71-5.01,.43-2.81-2.72-2.14-2.53-5.05-.51,.44-1.95,1.02-2.79-1.02-.08-2.01,2-2.77,2.63-1.59,.12,.46-.03,.72-.22,.73,.3,.61,.66,1.4,1.15,.53l-.6-.17c.43-1.06-.03-3.75,.99-3.25-.75-1.41-1.01-.5-1.14,.64,.45-2.64-.57-3.94-.36-6.61-.26,.46-.87,.93-.91,.51,.2-3.91-1.28-1.54-1.86-4.1,.67-1.58,2.11,.26,1.06-2.25,.37-1.66,1.45-.53,1.99,.05-1.38-2.23,.13-4.51,.18-5.88l.6,1.19c-.36-.71-.42-1.32-.49-1.95l-1.04,.85c.11-.76,.05-1.38,.52-1.42-.82-.67-1.81,.8-2.98-.58,.46-1.05-.95-2.92,.5-3.42-.16,3.14,1.46-.51,2,2.07-.24-.48-.3-1.09-.18-1.85,.15-.13,.32,.07,.43,.26,1-3.09-1.84-1.16-2.15-4.22,.89,.3,1.52-.88,1.28-1.36,.12,1.23-1.34,.74-2.11-.32,.46-2.03-.7-2.08-.72-3.12l-.19,1.21c-.88-.31-.87-1.31-1.27-2.65,.64-.18,.57,1.2,.82,.68-1.63-1.38,1.2-3.59-.01-5.61,.47-1.03,1.58-.24,1.88-1.14-1.33-2.27,.93-2.67-.19-5.09-1.07,.82-.79,.92-2.04-.74l1.14,4.04-1.87-2.49c.09,1.24,.93,2.56,.8,3.32-1.03-1.17-.74-1.07-1.63-.39,1.56-1.85-1.28-3.29-.29-5.35l2.81-.18c1.02-3.05-1.91-5.12-1.46-9.01l-.4,1.27c-1.15-.43-.32-2.36-.86-3.57,.95,.05,1.24-.75,1.78-1.32-.69,.11-.13-2.81-2.04-3.03l1.12-1.79c.32-3.13-2.89-3.37-2.74-6.38,1.07,.84,1.66-.55,2.51,1.4-.05-.99,.07-1.9-.58-1.88,.56-.61-1.43-2.69-.59-3.65-.44-.4-1.43-.48-1.42-1.61,.18-.13,.46-.02,.46-.02-.47,.02-.71-1.72-1.71-.69,2.8-3.22-.6-8.59,1.8-11.37-.39-2.16-.78-4.77-.92-6.75,.29,.12,.47,0,.38,.37,.79-2.75-2.76-1.59-1.89-4.73,1.47-1.63,.88,1.62,1.42,.62,3.07-.52-.53-3.73,1.24-5.87l.19,.5c1.02-1.62-1.26-3.86-1.1-6.48,0,0,.28,.12,.47,0-1.64-1.75-2.18-5.13-2.65-7.63,1.22,.77,.65,1.13,1.88,.64-.19-1.12-1.98,.35-2.35-1.89,.66-.74,1.22-2.36,2.53-2.59l.09,2.12c1.69-1.1-.09-2.74,.19-3.86l.75,.14c-.26-3.24-2.12-3.28-1.99-6.77l-.56,.36c-1.86-1.91,1.04-1.6-.34-3.5l1.88-.57c-.47-1.26-1.8-4.41-2.13-6.68,1.39,1.29,2.07,3.94,2.9,5.57,0-1.25-.1-4.23-1.03-4.89,.18,.5,.63,1.14,.34,1.63-1.47-1.54-2.18-3.56-2.12-6.05,3.64,.48,.99-6.47,3.88-8.22-1.28-4.42,.74-8.69,.68-13.81-2.89,1.73-.04-1.49-2.96-1.27-.15-1.2-.09-1.65,.1-1.75l1.86-3.56c.88-.83,.6,1.15,1.26,1.07,.32-2.6,1.28-1.05,2.12-2.75-1.06,.32-1.46-.96-1.01-2.43l-1.42,2.04c-1.42-3.7,2.56-3.06,1.16-6.78l.87,1.2c-.49-1.9,.32-6.94-1.94-8.89,.35-.32,1.17-.72,1.34,.12,.54-4.48-1.99-10.14-.37-13.57l.69,.38c-.16-.85-1.26-1.54-.49-2.55,.29,.07,.69,.38,.76,0-.23-.46-1.11-2.3-.63-3.39l.74,1c1.21-4.33-1.55-6.85-1.79-10.57,2.1,.15,3.02-3.26,3.47-4.95l.29,.08c.6-5.08-1.11-8.79-1.57-13.59,2.49-2.76,1.76-9.86,3.44-14.47-.45,.69-1.62-.26-1.75-1.12,.52-1.07-1.18-3.19,.73-2.84l-.07,.39c1.96-.66,1.66-2.98,1.87-4.75l-2.48-.53c4.09-4.29-.17-12.3,3.37-14.5-.51-1.18-.36-2.57-.87-3.74l1.34,.2c.66-3.06,1-4.59,1.1-8.45l.87,.89c.32-2.15-3.57-3.15-3.43-5.16l2.07-.37c.4-3.77,2.6-7.37,1.22-11.31,.29,.1,.85,.28,.86,.89,.27-1.77,2.19-6.68-.64-6.38,1.79,.18,.64-3.86,.12-5.99l1.28,.48c-1.47-1.93-1.92-2.04-2.08-4.5,.24-.55,1.12-.36,.69,.35,.93-1.8-1.07-1.64-.06-3.84l.73,.96c.36-1.93-.11-1.84-.95-3.04-.37-1.29,.82-3.65,2.05-3.78-.69-.36-1.52-1.56-1.02-2.66,.47-.09,.69,.36,.8,.59,1.34-3.13-.87-5.05,.74-7.1,.44,.01,.68-.1,.84-.27-.39,2.58-.75,4.65-.82,4.44,1.21,.17,1.72-1.89,3.16,0-.68-1.8-2.29-4.94-1.42-6.89,.13-.08,.26-.16,.46-.21l.11,.23c.19-.45,.14-.89-.01-1.31,.29-.62,.5-1.01,.61-1.63,1.04-.1,.88-2.31,1.08-3.34-1.34-.11-.93-1.44-2.21-.32,.12-.15,.13,.22,.09,.92,.02,.16,.01,.35,.07,.46l-.11-.09c-.06,.69-.16,1.58-.28,2.6-.56-.92-1-1.86-.1-2.9-.78-.66-1.57-1.37-1.93-1.76,2.06-1.16,3.47-3.75,4.66-3.96-.28-3.28,.63-7.53-1.56-9.91-.18-.95,.87-.93,1.32-1.2,.17,.56,.04,1.17,.35,1.51-.37-1.9,.58-5.37-1.09-6.08,1.14-2.15,1.4,1.53,1.61-1.64l.47,.51c3.75-5.68-2.84-10.69,1.86-16.9-.3,.43-.44,.65-.74,.7,2.87-7.47,1.27-16.21,5.16-23.38,.9-2.07-.16-2.51-.76-3.99l1.5-.2-1.21-2.57c-.59-3.44,4.53-4.87,3.06-9.36l-1.06,.33c.47-1.42,.35-4.72,1.4-4.25-.14-.18-.89-.68-.28-1.14l.75,.11-.54-3.82c1.11-2.65,2.84,1.03,3.82-2.95,.03-1.55-1.24-4.69-1.85-4.24-.17,.58-.79,1.43-1.54,1.32l-.09-1.45c-2.11-.73-4.11-2.29-6.36,.79l.83,2.65-1.21,.54,.35-2.01c-1.23,.92-.5,1.82-.07,2.75-.6,.07-1.06,.32-1.37,.75l1.6,2.75c-.91,.11-1.48-1.39-2.26,.08,.75,1.28,2.12-.65,2.39,1.27-1.22,.93-1.96,.44-1.38,1.93-.6,.07-.9-.28-1.04-.85,.44,1.32-.34,3.18,.7,4.02-1.46,.94-.46,4.05-2.5,3.53,.42,.47,1.22,2.4,1.1,3.5-2.1-2.46-.92,4.04-3.47,3.01,1.95,1.89,0,5.5,.76,8.33-.15-.18-.46-.53-.3-.74-.45,1.43-1.2,1.74-1.79,2.6,1.81,.52,1.82,2.88,2.73,4.31-2.1,1.48-1.97-1.48-3.77-1.22,1.51,.18,.93,3.39,2.29,3-1.34,1.18-.74,1.09-2.39,1.53,2.26,.65,.17,1.35,1.38,2.74-1.48,1.79-2.25,.14-1.93,2.45-.88,.92-1.37-1.17-1.37-1.17Zm-4.17,52.77h-.03l.08-1.09-.05,1.09Zm-.59,4.39c.13-.53,.23-1.19,.31-1.9,.48-.09,.93,.14,.84,.58-.27-.28-.68,.71-1.16,1.32Zm10.51-7.96c.09,.72-.2,.91-.49,.97,.02-.33,.03-.72,.01-1.23-.05-.03-.1-.08-.15-.1,.24,.1,.47,.21,.63,.37Z"/><path class="i" d="M298.56,715.07c-.02-.1-.06-.17-.06-.3-.14,.12-.26,.24-.36,.37l.38,.3,.03-.38Z"/><polygon class="i" points="279.75 785 280.09 785.02 279.84 784.61 279.75 785"/><path class="i" d="M272.88,986.44s.01,0,.02,0l-.02-.27v.26Z"/><path class="i" d="M284.08,974l-1.49,.4c.3,.75,2,.83,1.49-.4Z"/><path class="i" d="M281.64,929.92c.75-.48,1.23-1.72,.49-2.49-.1,.99-.69,1.98-.49,2.49Z"/><polygon class="i" points="290.6 797.87 291.02 798.8 290.76 797.09 290.6 797.87"/></g><g><path class="i" d="M377.19,648.19c.09,.03,.16,.02,.24,.03-.12-.12-.21-.17-.24-.03Z"/><path class="i" d="M386.91,629.43l.02,.28c.25,.07,.49,.14,.73,.19l-.76-.47Z"/><path class="i" d="M365.64,898.82c-1.25,1.62-1.45-2.74-2.86-.29,.53-.21,2.02,2.33,2.86,.29Z"/><path class="i" d="M362.78,898.52h-.01l-.13,.25,.14-.25Z"/><path class="i" d="M363.82,993.94c.09-.37,.27-.5,.07-1-.07,.05-.11,.1-.16,.16,.19,.18,.28,.41,.08,.84Z"/><path class="i" d="M363.4,979.2c-.1,.08-.17,.19-.26,.28l.08,.47,.18-.74Z"/><path class="i" d="M371.56,692.94c.42-.27,.85-.42,1.28-.52-.97,.1-1.03-2.1-1.28,.52Z"/><path class="i" d="M353.22,993.69l.12-2.37c-.11,.66-.15,1.53-.12,2.37Z"/><path class="i" d="M360.48,798.74l-.12-.55c-.05,.21-.03,.4,.12,.55Z"/><path class="i" d="M352.94,984.32c.46-.43,.73-.89,.89-1.35-.11-.1-.2-.2-.35-.27l-.54,1.62Z"/><path class="i" d="M372.85,692.41s-.01,0-.01,0c0,0,0,0,.01,0Z"/><path class="i" d="M371.75,676.6c-.35,2.22,1.57,1.28,2.5,1.89,.14,2.72-1.45,1.05-2.47,1.84,.24,1.72,1.67,3.21,1.44,4.44-.3,.05-.44,.28-.76-.05,1.16,1.94-.62,5.22,.86,7.49-.17,.13-.33,.19-.47,.21,.92-.22,1.82-.15,2.44,0-.1,1,.87,1.99-.33,2.22,.11-.61-.34-.72-.66-1.05l.36,1.11c-1.76,.73-.38-1.5-1.6-1.66,.27,2.11,1.33,4.66,.66,6.16-1.65,.12-.07-3.72-1.77-1.82l.92-2.34c-2.77,1.52,.37-1.45-2.57-.1-.87,3.13,.36,3.67-.51,6.78,.8,.83,1.35-.07,2.16,.76,1.05,4.71-4.49,3.05-2.76,6.64,.97,.99,2.96,1.57,1.6,3.8l-1.72-1.03c-.55,3.06,2.4,2.08,.79,5.16-.65-.66-.31-2.5-.58-2.05-1.69,1.92,.85,1.6,.66,3.21l-1.65,.14c-.13,3.32,.6,7.07,.49,10.74-.46-.26-.89-.94-1.48-.14,.28,4.68-1.29,9.78-2.73,14.11l1.21,1.84c-.06,.39-.71,.66-.93,.21-.71,1.67,.87,.18,1.33,1.07,0,.99-.94,1.21-1.29,.55,.85,3.17,1.63,8.94-.18,12l-.35-.67c-.82,2.45,2.56,3.11,1.04,5.3l-.2-.47c-1.14,5.37-.44,11.49-2.92,15.44,1.93,.97-1.39,5.3,1.38,5.9-1.66,2.98-2.09,2.04-3.41,6.34-.23,1.16,1.6,1.89,1.77,3.36l-1.47-.09,1.37,2.09-1.84,.9,.26,1.39c.13-.53,.75-1.09,1.17-.97,.49,2.17-1.45,5.07-2.21,5.06l.84,5.11c-.58-.16-.72-1.01-1.04-1.71,1.29,2.79-1.58,.36-.4,2.92,.36-.3,.86,.25,1.15,.32-.98,1.15-1.22,3.93-.99,6.02l-.98-.47c-.53,3.7-.1,7.87-.41,12.05,.57-1.46,2.3-1,2.39,.24l-1.59,.38c.91,.86,.67-1.24,1.74,.47-.29,1.54-1.84,.93-2.28,0l.41,1.93c-.47,.08-.68-.38-1.27-.54,.91,.84-1.78,3.17-.18,4.4l-.47,.08c-.3,4.17,.13,6.1,0,9.51,1.34,.15,.95,1.46,1.97,2.54-.59,2.47-1.79,5.18-1.85,8.2,.55,2.15,1.1,.68,1.84,1.68-1.23,.09-1.29,3.1-2.08,1.49,0,3.63,0,4.63,.76,9.25,.52-.47,.77-1.02,1.17-.71,.16,.84-.61,1.86-1.19,1.71l-.12-.23c1.57,5.21-4.11,11.69-1.74,15.89l-.12-.23,1.16,4.29c-.29,1.94-.87-1.21-1.69,.21,1.86,4.65-.57,7.22,.67,11.04-3.71,2.81-.07,10.36-2.45,14.24l.86-.21c.81,1.04-.52,1.22-.73,1.97,.66-.09,.79-1.09,1.24-.44,.82,8.64-1.57,17.78-2.41,26.64-.24,3.24,4.39,1.86,2.35,5.93l-1.57-1.16c1.86,6.54-.05,13.37,1.6,19.75-.37-.38-.84-.38-.84-1.01-1.15,1.36,.02,5,.95,5.01-.09,1-.84,.24-1.31,.86-.65,1.37,1.51,3.38,.39,4.12-.18,.13-.38-.37-.47-.62,.57,.87-.08,4.12,1.23,3.25-.58,2.41,.7,4.58-.04,6.51,1.51,1.21-.61,4.13,1.49,4.47-2.17-.11-1.62,4.26-.55,5.74-.67-.49-.63,1.34-1.55,.78,.09,1.73,.54,3.31,1.64,2.96-2.48,3.29,2.31,6.33-.91,8.26,.69,2.55,1.29,5,1.8,7.39,.53,2.39,.99,4.72,1.36,7.01-2.16-.05-.5-5.1-2.74-4.78,1.13,4.35,3.1,6.77,2.85,11.14-.22,1.14-.98-.58-1.37-.94,1.18,4.32,.36,8.49,1.8,12.3-.2,0-.46-.4-.64-.79,.12,.76-.18,1.81,.79,1.65l-.32-.73c1.32-1.33,3.2,2.83,3.96,2.9-2.9-1.09-.4,3.89-4.1,2.1,.22,.49,.74,1.09,1.38,.92-.13,.76-.49,1.03-1.29,.33,.75,2.71,1.71,1.65,1.88,4.14-.47,.03-.7-.46-1.27-.67,1.01,1.19,2.05,2.37,1.85,4.5-.3-.1-.64,.18-.69-.45,.48,3.6,2.99,5.92,2.5,9.96-2.17-.96-.53,1.41-2.29,1.8l.75,2.08,.77-.94c.16,1.87,1.63,3.37,1.21,5.04l-.87-1.3,.7,3.45,.47-2.05c1.11,1.78,2.22-.45,1.99,2.08-.24-.48,.2,1.86-.73,2.94h0c.67,.85,1.38,1.72,1.1,3.14-.52,.42-1.99-.05-2.34,.22,1.59,.73,.93,4.31,2.64,5.26-.42-.34-1.35-.24-1.52-.09l1.3,.61c-.27,.91-.44,1.06-1.2,1.01,.13,2.61,2.13-1.11,1.58,2.08-.13-.23-.29-.09-.54-.57-.09,3.15,1.55,5.85,1.35,8.75-1.66,1.09-.78-2.41-2.14-1.24,.91,4.05,3.38,8.13,3.55,12.13l.08-.76c2.57,.15-.75,3.12,.76,4.93-.27-.46-1.49-.41-1.19-.32,.07,2.76,1.49,5.42,3.05,9.34l-.73-.39c-.28,1.69,.44,4.23,.47,6,.73,.39,.81,1.38,1.63,.61-1.35,2.99-.3,5.4,.75,7.72,1.07,2.32,2.15,4.53,1.19,7.18-.13-.55-.86-1.2-.76-.76l1.48,3.83c1.01-.56,.53-.67,1.18-1.68,.75,.36,1.5,1.36,1.72,2.33-1.11-1.61-1.72,.41-2.15,1.32,.3-.2,.72-.03,1.04-.17-1.44,2.51,2.24-.16,1.59,2.95h-.6c.54,.97,1.53,1.75,1.65,2.92-1.12,.77-.86-.97-1.89-.8,.47,1.58,3.13,2.55,2.25,4.29-.51-.59-.76-1.55-1.27-2.14-1.06,1.93-.65,2.02-.59,3.24v-.12l.02,2.87,.22-.79c3.7,1.15,1.68,3.88,4.5,5.97-2.7-2.04-1.27-.11-2.72,.07-.2,.79-.35,1.95-.82,1.76,1.47,.95-.31,2.37,1.83,3.68-.42,.21,.36,1.36-.85,1.4,.84,1.53,.66-.61,1.26-.64,2.29,2.05-.08,6.48,3.13,9.44,1.88,2.82,3.56,2.9,5.24,5.49-.39,1.2-1.87-.25-1.87-.25-.13,1.77,.35,2.92,1.4,4.19-.49-.16-.71,.26-1.04,.87,.54,1.13,1.88,.21,1.79,1.98-.58-.09-1.49-.15-2.18-.54,.9,1.24,2.21,2.3,3.12,3.58-.62,.66-1.47-.43-2.15-.76,.93,1.48,2.19,3.91,3.61,3.93l.03-1.18c.29,.55-.92,.69-1.3,.34-1.44-1.02-.3-2.14,.11-2.38l.65,.91c2.18-1.99-1.88-3.9-2.48-6.01l2.18,.18-2.31-1.54c.33-.62,1.27-1.28,1.91-.38,.4-1.77-1.11-1.06-.5-2.67,.12-.19,.23-.16,.34-.06l-1.03-1.24c.49,.15,1.25-.68,1.27,.28,.24-2.92-2.78-3.67-1.67-5.1l.19,.18c-1.8-3.36-1.53,.11-3.99-2.07l2.89-2.88-1.5,.07c-.06-.39-.18-1.15,.42-1.19-1.37-1.09-.54,.42-1.68-.11,.74-2.17-2.09-4.76,.03-5.81-1.25-.34-.34,1.95-1.62,.25,2.25-1.23-1.02-2.11-.37-4.06,1.38,.16,1.15,1.89,1.81-.05-2.37-.41-.41-3.32-1.19-4.58-1.71,.38-1.5-2.83-2.63-5.03,.61,0-.18-4.63-.09-6.94h.3c-1.8-.02-1.99-2.35-2.72-3.91,1.04-.17,1.51,.04,2.17,.82l-.36-1.54c-.63-.24-1.03-.65-1.45-1.61l1.37,.1c-.54-2.03-2.45-3.79-2.12-6.63-1.23,.1-2.9,2.82-4.27,.17,.63-.24,1.71-.57,2.13,.11-.13-.22-.71-.75-.54-1.29l1.32,.9c.23-1.31-1.04-.44-1.14-1.43,.93-.17,.51-.85,1.27-.86,.14,.23-.21,.92,.23,1.22-.06-1.12,.22-2.55,.83-3.13-.51,.2-1.24,.25-1.53-.52-.49-2.05,.97-.93,1.2-2.22-.75-.37-.32-1.82-1.72-1.59-.11-.61,.52-.84,.85-1.15-.81-.95-1.1-4.96-2.35-3.48l-.05,.29s-.05-.11-.09-.16h0c-1.01-1.63-1.17-3.49-1.19-5.37-.01-1.88,.08-3.77-.51-5.47l.47-.07c-.87-2-1.11-4.59-2.32-5.93-.09-.62,.63-1.59,1.23-1.42-.59-1.54-1.14-1.65-.72-4.07,1.05,1.49,.64-.66,.84,1.56,.09-2.14,.77-2.71-.84-4.76,1.31,.58,1.26-1.78,.78-2.71l-.65,1.58c-.33-1.09-.35-2.08-.38-3.08l1.64,.32c1.36-4.5-4.32-7.24-1.48-10.9-1.24-.99-.5,2.41-1.91,1.56-.02-1.99,2-4.31,1.93-4.92,.56-2.78-2.6-2.23-2.34-5.12-.51,.42-1.99,.94-2.75-1.12,0-2,2.11-2.68,2.69-1.49,.1,.47-.06,.71-.25,.71,.27,.61,.6,1.42,1.13,.57l-.59-.19c.47-1.04,.13-3.74,1.12-3.2-.69-1.43-.99-.54-1.17,.6,.55-2.61-.39-3.94-.11-6.59-.27,.44-.89,.89-.93,.48,.3-3.88-1.24-1.57-1.73-4.14,.73-1.55,2.1,.33,1.14-2.2,.44-1.64,1.47-.47,1.98,.11-1.3-2.27,.31-4.49,.39-5.85l.57,1.2c-.34-.72-.39-1.33-.44-1.95l-1.06,.81c.13-.75,.08-1.37,.55-1.39-.81-.69-1.83,.74-2.97-.68,.5-1.03-.85-2.93,.62-3.39-.27,3.12,1.48-.46,1.92,2.12-.22-.49-.26-1.1-.12-1.85,.16-.12,.32,.08,.42,.27,1.11-3.04-1.8-1.21-2.01-4.27,.88,.32,1.55-.83,1.33-1.31,.08,1.23-1.36,.7-2.1-.38,.51-2.01-.66-2.09-.65-3.12l-.23,1.19c-.88-.33-.83-1.32-1.19-2.67,.65-.16,.54,1.21,.79,.7-1.59-1.42,1.31-3.53,.17-5.58,.51-1.02,1.58-.2,1.91-1.08-1.25-2.3,.97-2.63-.07-5.07-1.1,.78-.81,.9-2.02-.79l1.05,4.05-1.82-2.53c.05,1.24,.88,2.57,.73,3.32-1.01-1.19-.72-1.08-1.62-.43,1.58-1.8-1.2-3.3-.16-5.33l2.82-.1c1.1-3.01-1.74-5.14-1.23-9l-.43,1.25c-1.15-.46-.26-2.35-.78-3.57,.95,.07,1.25-.72,1.82-1.27-.7,.1-.06-2.8-1.96-3.06l1.16-1.76c.37-3.1-2.83-3.42-2.61-6.4,1.05,.86,1.68-.52,2.48,1.45-.02-.99,.12-1.89-.54-1.88,.57-.6-1.36-2.7-.5-3.65-.43-.4-1.42-.51-1.38-1.63,.19-.13,.46-.01,.46-.01-.46,.01-.69-1.72-1.7-.72,2.83-3.14-.43-8.55,2.02-11.27-.38-2.16-.72-4.76-.82-6.73,.28,.12,.47,0,.38,.37,.83-2.73-2.73-1.63-1.8-4.73,1.5-1.6,.85,1.63,1.41,.64,3.1-.47-.49-3.72,1.31-5.82l.19,.5c1.04-1.6-1.2-3.86-1-6.46,0,0,.27,.12,.47,.01-1.6-1.76-2.14-5.13-2.57-7.63,1.21,.78,.64,1.13,1.87,.66-.17-1.12-1.98,.33-2.32-1.91,.67-.73,1.25-2.34,2.56-2.55l.07,2.11c1.7-1.08-.05-2.73,.24-3.84l.74,.14c-.24-3.23-2.11-3.28-1.94-6.75l-.57,.35c-1.84-1.91,1.06-1.58-.3-3.49l1.89-.55c-.44-1.26-1.79-4.41-2.1-6.66,1.37,1.29,2.06,3.93,2.87,5.56,.03-1.24-.1-4.21-1.01-4.87,.17,.5,.62,1.14,.33,1.63-1.46-1.54-2.15-3.56-2.07-6.03,3.65,.5,1.02-6.43,3.91-8.16-1.23-4.4,.77-8.65,.73-13.74-2.9,1.72-.03-1.49-2.96-1.27-.15-1.19-.09-1.64,.11-1.74l1.86-3.54c.88-.82,.61,1.15,1.27,1.06,.31-2.59,1.27-1.05,2.1-2.73-1.06,.31-1.46-.95-1-2.42l-1.43,2.03c-1.41-3.68,2.57-3.04,1.17-6.75l.87,1.19c-.47-1.9,.29-6.91-1.96-8.85,.35-.32,1.17-.72,1.34,.11,.55-4.46-2.04-10.09-.41-13.5l.69,.38c-.16-.85-1.27-1.52-.49-2.53,.29,.07,.69,.37,.76-.01-.22-.45-1.14-2.29-.66-3.37l.75,.99c1.16-4.32-1.58-6.81-1.86-10.51,2.1,.13,2.97-3.26,3.43-4.96l.29,.08c.58-5.06-1.21-8.74-1.7-13.51,2.46-2.77,1.64-9.83,3.27-14.43-.43,.69-1.62-.24-1.77-1.09,.5-1.07-1.22-3.16,.69-2.84l-.07,.39c1.95-.69,1.63-2.99,1.82-4.75l-2.49-.49c4-4.33-.35-12.23,3.13-14.48-.54-1.17-.4-2.55-.93-3.71l1.34,.18c.62-3.06,.92-4.58,.94-8.43l.89,.87c.29-2.14-3.63-3.07-3.52-5.07l2.06-.41c.31-3.76,2.45-7.39,.99-11.28,.29,.09,.86,.26,.88,.87,.22-1.76,2.03-6.7-.78-6.33,1.8,.14,.57-3.85-.02-5.96l1.29,.45c-1.52-1.89-1.97-1.99-2.19-4.43,.23-.55,1.11-.39,.69,.33,.89-1.81-1.1-1.6-.15-3.82l.75,.94c.31-1.93-.16-1.82-1.03-3-.4-1.28,.73-3.65,1.96-3.8-.7-.34-1.56-1.51-1.09-2.62,.47-.1,.7,.34,.82,.57,1.26-3.14-1.01-5,.55-7.08,.44,0,.68-.12,.83-.29-.33,2.57-.63,4.64-.7,4.44,1.22,.13,1.66-1.92,3.16-.08-.74-1.77-2.4-4.85-1.6-6.82,.13-.08,.26-.17,.45-.22l.11,.23c.17-.45,.11-.89-.05-1.3,.27-.62,.47-1.02,.56-1.64,1.03-.12,.82-2.32,.99-3.35-1.34-.07-.97-1.4-2.22-.26,.12-.15,.14,.21,.11,.91,.02,.16,.02,.35,.09,.46l-.11-.08c-.04,.69-.12,1.58-.21,2.59-.59-.9-1.05-1.82-.18-2.88-.79-.63-1.61-1.32-1.98-1.7,2.03-1.2,3.35-3.82,4.54-4.06-.37-3.25,.41-7.51-1.85-9.81-.21-.94,.85-.95,1.28-1.23,.19,.55,.07,1.16,.4,1.49-.42-1.88,.42-5.36-1.28-6.01,1.07-2.17,1.45,1.48,1.55-1.68l.48,.49c3.57-5.76-3.18-10.54,1.31-16.87-.28,.44-.42,.66-.72,.72,2.61-7.52,.7-16.16,4.31-23.43,.82-2.09-.26-2.49-.91-3.94l1.5-.26-1.31-2.51c-.72-3.39,4.33-5.02,2.68-9.42l-1.04,.37c.41-1.43,.15-4.7,1.22-4.29-.15-.18-.92-.63-.33-1.12l.75,.07-.71-3.78c.99-2.68,2.88,.91,3.69-3.1-.04-1.55-1.45-4.62-2.04-4.14-.14,.59-.73,1.46-1.48,1.38l-.16-1.44c-2.14-.63-4.21-2.08-6.32,1.07l.95,2.59-1.19,.59,.26-2c-1.19,.97-.42,1.83,.06,2.73-.6,.1-1.05,.37-1.33,.8l1.72,2.66c-.9,.14-1.54-1.31-2.26,.17,.8,1.24,2.09-.74,2.44,1.16-1.17,.97-1.94,.52-1.29,1.98-.59,.1-.91-.24-1.08-.81,.49,1.29-.2,3.17,.87,3.96-1.42,.99-.29,4.04-2.35,3.6,.44,.45,1.31,2.33,1.24,3.43-2.19-2.36-.76,4.04-3.35,3.12,2.02,1.8,.21,5.46,1.08,8.24-.16-.17-.48-.51-.33-.72-.4,1.44-1.13,1.77-1.69,2.65,1.82,.45,1.92,2.79,2.89,4.18-2.04,1.54-2.02-1.4-3.82-1.08,1.51,.12,1.06,3.33,2.39,2.9-1.3,1.22-.7,1.11-2.34,1.6,2.28,.56,.22,1.33,1.48,2.67-1.42,1.83-2.24,.21-1.84,2.49-.85,.94-1.41-1.11-1.41-1.11Zm-2.51,52.54h-.03l.05-1.09-.02,1.09Zm-.48,4.38c.11-.53,.2-1.19,.27-1.89,.48-.1,.93,.12,.86,.56-.28-.27-.66,.73-1.13,1.34Zm10.29-8.18c.11,.71-.18,.91-.46,.97,.01-.33,.01-.71-.02-1.22-.05-.03-.1-.07-.15-.1,.25,.1,.48,.2,.64,.35Z"/><path class="i" d="M377.46,723.89c-.02-.1-.07-.16-.06-.3-.13,.13-.25,.25-.35,.38l.39,.29,.02-.37Z"/><polygon class="i" points="360.23 793.8 360.57 793.82 360.31 793.41 360.23 793.8"/><path class="i" d="M353.2,993.95s.01,0,.02,0v-.26l-.02,.26Z"/><path class="i" d="M364.65,981.79l-1.49,.37c.29,.75,1.98,.87,1.49-.37Z"/><path class="i" d="M362.78,937.9c.76-.47,1.25-1.7,.52-2.47-.11,.99-.71,1.97-.52,2.47Z"/><polygon class="i" points="371.29 806.43 371.72 807.35 371.43 805.66 371.29 806.43"/></g><g><path class="i" d="M468.76,651.28c.1,.01,.16,0,.24,0-.14-.1-.23-.13-.24,0Z"/><path class="i" d="M475.04,631.3l.08,.27c.25,.02,.5,.05,.75,.04l-.83-.32Z"/><path class="i" d="M483.88,899.98c-1.18,1.66-1.56-2.67-2.87-.18,.52-.24,2.11,2.24,2.87,.18Z"/><path class="i" d="M481,899.8h-.01l-.12,.26,.13-.26Z"/><path class="i" d="M482.79,994.76c.1-.37,.29-.49,.1-.99-.07,.05-.12,.09-.16,.15,.18,.18,.27,.42,.06,.84Z"/><path class="i" d="M482.71,980.07c-.1,.08-.18,.18-.27,.27l.07,.47,.19-.74Z"/><path class="i" d="M470.16,695.89c.37-.33,.79-.53,1.19-.7-.95,.24-1.32-1.91-1.19,.7Z"/><path class="i" d="M472.2,994.21l.19-2.33c-.13,.65-.19,1.5-.19,2.33Z"/><path class="i" d="M471.84,801.21l-.17-.53c-.03,.21,.01,.4,.17,.53Z"/><path class="i" d="M472.16,984.95c.47-.42,.74-.86,.92-1.32-.11-.1-.19-.21-.35-.27l-.57,1.59Z"/><path class="i" d="M471.37,695.18s-.01,0-.01,0c0,0,0,0,.01,0Z"/><path class="i" d="M467.94,679.87c0,2.22,1.74,1.02,2.76,1.47,.55,2.64-1.28,1.25-2.16,2.17,.49,1.65,2.13,2.89,2.08,4.13-.29,.1-.39,.34-.76,.06,1.43,1.73,.15,5.2,1.94,7.21-.15,.15-.3,.23-.43,.27,.88-.34,1.78-.41,2.42-.35,.05,1,1.14,1.83,0,2.22,.02-.61-.44-.65-.81-.93l.52,1.04c-1.64,.97-.6-1.42-1.82-1.4,.57,2.03,1.98,4.38,1.54,5.95-1.62,.35-.6-3.64-2.01-1.53l.58-2.42c-2.53,1.89,.15-1.47-2.55,.27-.42,3.18,.88,3.54,.46,6.72,.91,.7,1.33-.26,2.24,.44,1.69,4.48-4.02,3.61-1.81,6.89,1.09,.84,3.15,1.14,2.1,3.52l-1.84-.78c-.14,3.08,2.66,1.72,1.48,4.96-.73-.56-.64-2.41-.85-1.94-1.42,2.11,1.06,1.46,1.09,3.06l-1.62,.36c.3,3.27,1.53,6.86,1.88,10.48-.49-.19-1-.81-1.49,.05,.88,4.56-.05,9.77-.95,14.19l1.42,1.67c0,.39-.62,.74-.9,.32-.51,1.73,.89,.08,1.45,.9,.11,.98-.79,1.3-1.22,.69,1.23,3.02,2.68,8.61,1.22,11.82l-.42-.62c-.53,2.5,2.91,2.77,1.63,5.1l-.25-.44c-.53,5.41,.83,11.36-1.23,15.51,2.03,.76-.83,5.36,1.98,5.67-1.36,3.1-1.87,2.23-2.75,6.58-.12,1.16,1.78,1.71,2.09,3.14l-1.47,.05,1.57,1.93-1.75,1.06,.39,1.34c.08-.54,.65-1.15,1.07-1.07,.69,2.09-.96,5.14-1.71,5.2l1.31,4.96c-.59-.1-.81-.93-1.19-1.59,1.53,2.64-1.54,.5-.14,2.92,.33-.33,.88,.17,1.18,.22-.87,1.22-.85,3.98-.45,6.02l-1.02-.38c-.21,3.69,.57,7.77,.6,11.91,.46-1.49,2.22-1.17,2.4,.04l-1.55,.5c.97,.77,.57-1.27,1.77,.32-.16,1.55-1.76,1.06-2.27,.18l.56,1.87c-.46,.12-.71-.32-1.31-.43,.97,.76-1.53,3.26,.16,4.36l-.46,.11c.03,4.14,.59,6.01,.7,9.38,1.34,.05,1.06,1.37,2.15,2.37-.4,2.48-1.43,5.24-1.28,8.23,.69,2.09,1.14,.6,1.95,1.54-1.22,.17-1.07,3.15-1.97,1.61,.24,3.58,.29,4.57,1.33,9.09,.5-.5,.71-1.05,1.13-.77,.21,.82-.5,1.88-1.08,1.76l-.13-.22c1.88,5.07-3.46,11.77-.87,15.8l-.13-.23,1.37,4.19c-.19,1.93-.93-1.15-1.67,.29,2.08,4.51-.23,7.16,1.16,10.88-3.58,2.92,.35,10.24-1.93,14.16l.85-.23c.84,1-.48,1.22-.67,1.97,.66-.11,.76-1.1,1.22-.48,1.09,8.53-1.11,17.62-1.81,26.38-.2,3.2,4.41,1.79,2.41,5.83l-1.58-1.13c1.94,6.44,.03,13.2,1.66,19.51-.37-.37-.84-.38-.84-1-1.14,1.34-.03,4.94,.9,4.95-.1,.99-.84,.23-1.32,.84-.67,1.34,1.48,3.35,.34,4.07-.18,.12-.37-.37-.46-.62,.56,.87-.12,4.07,1.2,3.22-.62,2.38,.61,4.54-.16,6.43,1.48,1.23-.69,4.06,1.4,4.45-2.16-.16-1.72,4.17-.7,5.66-.66-.5-.67,1.31-1.58,.72,.04,1.71,.45,3.28,1.56,2.98-2.57,3.17,2.11,6.33-1.19,8.12,1.18,5.08,1.97,9.78,2.49,14.36-2.15-.16-.23-5.06-2.49-4.85,.9,4.34,2.76,6.83,2.25,11.14-.29,1.12-.94-.63-1.3-1,.9,4.33-.17,8.38,1.01,12.24-.2-.01-.42-.43-.59-.82,.07,.76-.31,1.77,.67,1.68l-.27-.74c1.42-1.22,2.98,3.01,3.73,3.15-2.81-1.28-.69,3.81-4.24,1.77,.19,.5,.65,1.13,1.3,1.01-.19,.74-.57,.98-1.32,.23,.54,2.72,1.58,1.75,1.56,4.22-.47,0-.66-.51-1.22-.76,.93,1.25,1.86,2.5,1.46,4.59-.29-.12-.66,.12-.65-.5,.16,3.58,2.47,6.1,1.58,10.03-2.06-1.16-.68,1.34-2.46,1.55l.53,2.11,.86-.85c-.03,1.85,1.27,3.48,.69,5.08l-.73-1.37,.34,3.47,.68-1.96c.92,1.87,2.25-.2,1.76,2.26-.18-.5-.02,1.85-1.07,2.82h0c.57,.91,1.16,1.85,.72,3.22-.57,.36-1.97-.29-2.35-.05,1.49,.9,.41,4.33,2,5.48-.37-.38-1.31-.4-1.5-.28l1.21,.76c-.39,.86-.57,.98-1.32,.84-.22,2.58,2.26-.82,1.29,2.24-.1-.24-.28-.13-.46-.63-.51,3.07,.77,5.94,.18,8.76-1.79,.83-.44-2.47-1.95-1.51,.33,4.07,2.15,8.43,1.73,12.37l.2-.73c2.53,.55-1.25,2.93-.07,4.93-.19-.49-1.4-.64-1.12-.51-.41,2.7,.61,5.52,1.39,9.61l-.65-.51c-.58,1.59-.35,4.19-.65,5.91,.65,.51,.54,1.49,1.49,.9-3.72,5.29,1.96,10.11-1.14,14.8,0-.56-.57-1.34-.57-.89l.59,4.01c1.1-.31,.67-.52,1.53-1.36,.65,.51,1.16,1.64,1.15,2.63-.73-1.8-1.77,0-2.39,.78,.34-.13,.71,.14,1.05,.07-1.97,2.08,2.22,.36,.89,3.21l-.58-.15c.29,1.07,1.06,2.06,.89,3.21-1.28,.47-.59-1.14-1.64-1.22,.07,1.62,2.41,3.2,1.13,4.66-.35-.69-.36-1.68-.71-2.37-1.5,1.59-1.12,1.78-1.36,2.96l.03-.12-.69,2.74,.41-.7c3.31,2.04,.58,4.13,2.74,6.87-2.05-2.66-1.19-.44-2.63-.65-.41,.69-.86,1.75-1.27,1.45,1.16,1.29-.93,2.15,.76,3.98-.47,.08-.05,1.38-1.22,1.08,.36,1.68,.81-.39,1.4-.25,1.57,2.59-1.97,6.06,.19,9.79,.88,3.21,2.44,3.81,3.21,6.79-.75,1-1.69-.83-1.69-.83-.7,1.62-.58,2.83-.05,4.36-.4-.31-.75,0-1.28,.47,.11,1.23,1.69,.83,.99,2.44-.52-.28-1.35-.64-1.86-1.24,.42,1.45,1.28,2.88,1.69,4.38-.81,.39-1.22-.91-1.75-1.44,.36,1.68,.71,4.36,1.99,4.88l.46-1.07c.06,.61-1.1,.31-1.34-.15-1-1.45,.46-2.07,.93-2.15l.29,1.07c2.74-1.07-.41-4.28-.24-6.42l1.98,.91-1.63-2.21c.52-.46,1.63-.78,1.92,.28,.99-1.53-.7-1.36,.4-2.68,.17-.14,.27-.08,.34,.06l-.58-1.5c.42,.3,1.4-.24,1.11,.68,1.16-2.69-1.46-4.35,.05-5.36l.12,.23c-.65-3.74-1.46-.37-3.15-3.18l3.61-1.87-1.45-.38c.05-.39,.17-1.15,.75-1-.99-1.44-.64,.24-1.57-.6,1.34-1.85-.59-5.12,1.73-5.53-1.1-.67-.86,1.77-1.62-.21,2.5-.55-.41-2.29,.74-3.98,1.29,.53,.59,2.13,1.75,.44-2.17-1.03,.5-3.3,.09-4.73-1.73-.07-.7-3.11-1.28-5.52,.58,.15,.97-4.51,1.6-6.74l.29,.07c-1.75-.44-1.41-2.74-1.77-4.42,1.05,.07,1.46,.37,1.93,1.28v-1.58c-.56-.37-.86-.87-1.06-1.89l1.31,.4c-.07-2.1-1.53-4.23-.65-6.93-1.22-.16-3.41,2.14-4.22-.72,.66-.1,1.79-.21,2.06,.54-.09-.24-.55-.87-.26-1.37l1.11,1.14c.49-1.23-.93-.65-.82-1.63,.94,.02,.67-.73,1.42-.58,.09,.25-.39,.86-.02,1.23,.17-1.11,.73-2.45,1.45-2.89-.54,.1-1.27,0-1.39-.82-.06-2.1,1.14-.72,1.62-1.94-.65-.51,.03-1.85-1.38-1.89,0-.61,.67-.73,1.05-.96-.62-1.09-.16-5.07-1.67-3.85l-.1,.28c-.03-.05-.03-.11-.06-.18h0c-1.39-3.56,.82-7.39,.22-10.93h.47c-.53-2.1-.3-4.69-1.32-6.19,0-.62,.86-1.47,1.42-1.2-.35-1.61-.88-1.79-.11-4.12,.82,1.62,.73-.56,.6,1.66,.41-2.09,1.16-2.57-.13-4.82,1.21,.77,1.52-1.58,1.16-2.57l-.86,1.47c-.18-1.12-.07-2.1,.03-3.09l1.59,.54c1.93-4.29-3.29-7.73-.06-10.99-1.11-1.13-.78,2.33-2.08,1.31,.21-1.97,2.49-4.03,2.5-4.64,.88-2.7-2.32-2.52-1.72-5.34-.57,.36-2.08,.7-2.61-1.41,.21-1.97,2.38-2.43,2.83-1.18,.05,.47-.13,.7-.32,.68,.21,.64,.45,1.47,1.06,.69l-.57-.26c.58-.98,.52-3.69,1.45-3.06-.54-1.49-.93-.64-1.22,.47,.82-2.53,.02-3.95,.57-6.56-.31,.41-.98,.8-.97,.38,.7-3.82-1.08-1.68-1.32-4.27,.86-1.47,2.06,.52,1.34-2.08,.58-1.59,1.5-.34,1.96,.29-1.09-2.37,.71-4.44,.9-5.79l.46,1.25c-.27-.75-.27-1.36-.27-1.98l-1.13,.72c.2-.73,.2-1.36,.67-1.34-.74-.76-1.88,.58-2.9-.92,.57-.98-.63-2.98,.88-3.32-.5,3.08,1.51-.34,1.76,2.26-.18-.5-.18-1.12,.02-1.85,.17-.11,.31,.1,.4,.3,1.33-2.95-1.7-1.35-1.68-4.4,.85,.39,1.61-.71,1.42-1.21-.01,1.23-1.41,.59-2.06-.54,.65-1.96-.5-2.13-.42-3.15l-.31,1.17c-.85-.39-.74-1.37-1.01-2.74,.66-.12,.46,1.24,.75,.75-1.49-1.51,1.53-3.43,.52-5.54,.57-.98,1.59-.1,1.98-.96-1.11-2.36,1.15-2.57,.24-5.05-1.14,.72-.86,.85-1.97-.9l.81,4.09-1.66-2.62c-.01,1.23,.72,2.6,.53,3.34-.93-1.25-.65-1.12-1.59-.53,1.7-1.69-1.01-3.35,.14-5.3l2.82,.05c1.25-2.94-1.46-5.21-.76-9.03l-.49,1.23c-1.12-.51-.16-2.35-.62-3.59,.94,.11,1.28-.66,1.87-1.19-.7,.07,.06-2.79-1.83-3.13l1.24-1.71c.49-3.08-2.7-3.5-2.4-6.46,1.03,.89,1.69-.46,2.43,1.52,0-.99,.17-1.88-.48-1.89,.59-.58-1.28-2.73-.39-3.65-.42-.41-1.4-.55-1.33-1.66,.19-.12,.46,0,.46,0-.46,0-.64-1.73-1.68-.76,2.92-3.06-.26-8.5,2.25-11.17-.33-2.15-.64-4.75-.72-6.71,.28,.12,.47,0,.37,.37,.86-2.7-2.71-1.64-1.75-4.72,1.51-1.58,.83,1.63,1.4,.65,3.1-.44-.44-3.71,1.36-5.78l.19,.5c1.05-1.59-1.19-3.85-.99-6.43,0,0,.27,.12,.47,.01-1.59-1.76-2.13-5.1-2.59-7.58,1.22,.76,.65,1.12,1.88,.64-.18-1.11-1.98,.34-2.34-1.88,.66-.73,1.23-2.33,2.54-2.56l.09,2.1c1.69-1.09-.08-2.71,.21-3.82l.74,.14c-.27-3.21-2.14-3.24-2.03-6.7l-.56,.36c-1.87-1.87,1.03-1.59-.36-3.46l1.88-.58c-.46-1.24-1.85-4.35-2.22-6.58,1.41,1.25,2.14,3.86,2.98,5.47,0-1.23-.17-4.19-1.1-4.83,.19,.5,.65,1.12,.37,1.61-1.49-1.5-2.24-3.49-2.22-5.95,3.66,.41,.87-6.42,3.7-8.22-1.38-4.34,.52-8.64,.25-13.7-2.83,1.82-.09-1.48-3.01-1.14-.2-1.18-.15-1.63,.03-1.74l1.71-3.59c.84-.86,.65,1.12,1.31,1,.2-2.59,1.23-1.1,1.99-2.81-1.04,.36-1.5-.89-1.12-2.36l-1.33,2.09c-1.59-3.6,2.42-3.14,.85-6.77l.93,1.14c-.56-1.86-.04-6.89-2.41-8.7,.33-.33,1.13-.78,1.35,.04,.31-4.47-2.59-9.92-1.17-13.4l.72,.33c-.21-.83-1.35-1.44-.65-2.49,.3,.05,.72,.33,.75-.06-.25-.44-1.27-2.2-.87-3.31l.81,.94c.89-4.37-2.03-6.67-2.56-10.31,2.1-.01,2.75-3.45,3.07-5.16l.3,.06c.2-5.08-1.83-8.6-2.71-13.29,2.25-2.94,.85-9.89,2.08-14.59-.37,.72-1.64-.1-1.86-.93,.41-1.1-1.49-3.02,.43-2.87l-.03,.39c1.88-.85,1.35-3.11,1.38-4.87l-2.52-.26c3.61-4.66-1.5-12.08,1.76-14.64-.64-1.11-.65-2.49-1.3-3.58l1.35,.04c.31-3.09,.46-4.63,.09-8.44l.98,.77c.06-2.15-3.93-2.67-4.03-4.65l2.01-.62c-.08-3.75,1.64-7.58-.24-11.26,.3,.06,.88,.16,.97,.77,.03-1.77,1.27-6.85-1.49-6.17,1.8-.07,.12-3.88-.7-5.89l1.33,.3c-1.72-1.69-2.19-1.74-2.69-4.12,.17-.57,1.06-.51,.73,.25,.67-1.9-1.28-1.45-.6-3.75l.86,.84c.08-1.94-.38-1.78-1.38-2.84-.55-1.21,.29-3.69,1.48-3.99-.74-.25-1.73-1.3-1.4-2.45,.45-.16,.74,.25,.88,.46,.86-3.26-1.62-4.8-.34-7.06,.44-.05,.66-.2,.79-.39,0,2.58-.04,4.66-.14,4.46,1.23-.02,1.41-2.1,3.13-.47-.95-1.66-3-4.49-2.45-6.53,.12-.1,.23-.2,.42-.27l.14,.21c.12-.47,0-.89-.22-1.28,.19-.65,.34-1.06,.34-1.69,1.01-.26,.51-2.4,.54-3.44-1.34,.11-1.14-1.26-2.23,.03,.09-.17,.16,.19,.23,.88,.04,.16,.06,.34,.15,.44l-.12-.07c.05,.68,.09,1.57,.13,2.58-.69-.81-1.28-1.66-.55-2.82-.87-.52-1.77-1.09-2.19-1.42,1.85-1.45,2.82-4.2,3.97-4.6-.8-3.16-.61-7.46-3.16-9.42-.34-.9,.71-1.05,1.1-1.39,.26,.52,.23,1.14,.6,1.41-.68-1.79-.34-5.34-2.1-5.74,.76-2.28,1.64,1.25,1.3-1.87l.55,.41c2.72-6.19-4.65-9.91-1.15-16.78-.21,.48-.31,.71-.61,.81,1.47-7.79-1.76-15.97,.63-23.68,.47-2.19-.66-2.4-1.54-3.72l1.43-.5-1.7-2.24c-1.28-3.2,3.44-5.64,1.06-9.68l-.96,.54c.16-1.47-.66-4.63,.46-4.41-.18-.15-1.02-.46-.52-1.04l.75-.06-1.36-3.57c.49-2.8,3,.38,3.07-3.7-.32-1.51-2.28-4.27-2.77-3.69-.03,.61-.44,1.57-1.19,1.63l-.42-1.38c-2.23-.21-4.52-1.22-6.01,2.2l1.4,2.34-1.06,.78-.11-1.99c-.99,1.15-.08,1.85,.55,2.64-.57,.2-.96,.54-1.17,1.01l2.17,2.28c-.86,.3-1.74-1.01-2.19,.56,1.01,1.07,1.93-1.08,2.61,.71-.99,1.15-1.82,.84-.93,2.15-.57,.2-.94-.08-1.2-.6,.71,1.17,.35,3.12,1.54,3.71-1.23,1.2,.4,3.99-1.71,3.91,.51,.36,1.69,2.05,1.8,3.14-2.55-1.94-.07,4.07-2.78,3.59,2.29,1.43,1.1,5.29,2.4,7.87-.18-.14-.55-.42-.44-.65-.16,1.47-.84,1.91-1.25,2.85,1.87,.16,2.34,2.43,3.51,3.64-1.77,1.83-2.21-1.05-3.94-.46,1.51-.12,1.57,3.09,2.82,2.46-1.09,1.39-.52,1.19-2.06,1.93,2.34,.2,.42,1.27,1.87,2.39-1.12,2.01-2.18,.55-1.43,2.72-.7,1.05-1.56-.88-1.56-.88Zm4.85,51.85h-.03c-.04-.45-.07-.83-.09-1.07,.02,.22,.06,.53,.12,1.07Zm.09,4.36c.04-.53,.04-1.19,.02-1.89,.46-.16,.94,0,.92,.44-.31-.23-.57,.8-.95,1.46Zm9.16-9.37c.2,.69-.06,.92-.33,1.02-.03-.33-.08-.71-.18-1.21-.05-.02-.11-.06-.17-.08,.26,.06,.5,.13,.68,.26Z"/><path class="i" d="M480.26,725.5c-.03-.1-.09-.15-.1-.28-.12,.14-.21,.28-.3,.42l.42,.24-.03-.37Z"/><polygon class="i" points="471.11 796.36 471.45 796.35 471.15 795.97 471.11 796.36"/><path class="i" d="M472.18,994.47s.01,0,.02,0v-.26l-.02,.26Z"/><path class="i" d="M483.91,982.68l-1.5,.34c.27,.75,1.96,.9,1.5-.34Z"/><path class="i" d="M482.11,938.96c.75-.48,1.22-1.71,.48-2.47-.1,.98-.68,1.97-.48,2.47Z"/><polygon class="i" points="483.32 807.81 483.83 808.68 483.39 807.03 483.32 807.81"/></g><g><path class="i" d="M549.04,647.8c.1,0,.16-.02,.24-.02-.14-.09-.24-.11-.24,.02Z"/><path class="i" d="M554.21,627.43l.09,.27c.26,0,.51,.02,.75,0l-.85-.27Z"/><path class="i" d="M569.79,897.24c-1.19,1.66-1.55-2.69-2.87-.19,.53-.23,2.1,2.26,2.87,.19Z"/><path class="i" d="M566.92,897.05h-.01l-.12,.26,.13-.26Z"/><path class="i" d="M566.92,992.57c.11-.36,.3-.48,.13-.99-.07,.04-.12,.09-.17,.15,.18,.19,.26,.43,.04,.84Z"/><path class="i" d="M567.27,977.79c-.1,.08-.18,.18-.28,.27l.06,.47,.22-.74Z"/><path class="i" d="M552.44,692.45c.36-.34,.76-.57,1.17-.75-.94,.28-1.4-1.86-1.17,.75Z"/><path class="i" d="M556.36,991.67l.25-2.33c-.15,.65-.23,1.5-.25,2.33Z"/><path class="i" d="M557.12,798.07l-.18-.53c-.02,.21,.02,.4,.18,.53Z"/><path class="i" d="M556.58,982.39c.48-.41,.77-.84,.96-1.29-.1-.1-.19-.21-.34-.28l-.62,1.57Z"/><path class="i" d="M553.62,691.69s-.01,0-.01,0c0,0,0,0,.01,0Z"/><path class="i" d="M549.55,676.48c.09,2.23,1.78,.94,2.82,1.35,.66,2.63-1.22,1.31-2.07,2.26,.56,1.63,2.26,2.81,2.26,4.05-.28,.11-.38,.36-.76,.09,1.51,1.67,.36,5.21,2.23,7.15-.15,.16-.29,.25-.42,.29,.86-.38,1.76-.48,2.4-.45,.09,1,1.22,1.79,.09,2.23,0-.61-.47-.64-.84-.91l.56,1.02c-1.6,1.03-.65-1.4-1.87-1.33,.65,2.01,2.15,4.32,1.77,5.91-1.6,.41-.75-3.63-2.07-1.46l.48-2.45c-2.45,1.99,.1-1.48-2.54,.37-.29,3.21,1.03,3.51,.72,6.72,.94,.67,1.32-.31,2.26,.36,1.85,4.43-3.89,3.77-1.56,6.97,1.12,.8,3.19,1.03,2.23,3.45l-1.87-.71c-.02,3.09,2.73,1.63,1.65,4.92-.74-.54-.73-2.39-.92-1.92-1.34,2.16,1.11,1.43,1.19,3.04l-1.61,.41c.41,3.27,1.76,6.83,2.23,10.45-.49-.18-1.03-.78-1.48,.1,1.04,4.55,.24,9.8-.53,14.27l1.47,1.63c0,.39-.6,.76-.89,.34-.46,1.75,.89,.05,1.48,.86,.14,.98-.75,1.33-1.2,.73,1.33,2.99,2.91,8.57,1.54,11.83l-.44-.61c-.47,2.52,2.98,2.71,1.77,5.07l-.27-.43c-.38,5.44,1.1,11.39-.87,15.6,2.04,.72-.71,5.39,2.11,5.65-1.29,3.14-1.81,2.27-2.62,6.66-.09,1.17,1.81,1.68,2.14,3.11l-1.47,.08,1.6,1.91-1.73,1.09,.42,1.34c.07-.54,.63-1.16,1.05-1.09,.73,2.09-.87,5.17-1.62,5.24l1.39,4.95c-.59-.09-.82-.92-1.22-1.57,1.58,2.62-1.54,.53-.09,2.93,.32-.34,.88,.15,1.18,.2-.86,1.24-.8,4.01-.37,6.05l-1.02-.37c-.17,3.71,.67,7.79,.76,11.94,.44-1.5,2.2-1.2,2.4,.02l-1.54,.52c.98,.77,.56-1.29,1.77,.3-.14,1.56-1.74,1.08-2.27,.2l.59,1.87c-.46,.12-.72-.32-1.31-.42,.99,.75-1.49,3.29,.21,4.37l-.46,.12c.06,4.15,.63,6.02,.78,9.4,1.34,.04,1.07,1.37,2.17,2.36-.39,2.49-1.38,5.27-1.22,8.26,.69,2.09,1.14,.6,1.95,1.53-1.22,.17-1.07,3.16-1.97,1.62,.24,3.59,.3,4.59,1.35,9.12,.49-.5,.7-1.06,1.13-.77,.21,.82-.49,1.88-1.08,1.77l-.13-.22c1.91,5.09-3.42,11.81-.86,15.85l-.13-.23,1.35,4.21c-.2,1.94-.93-1.16-1.67,.28,2.07,4.53-.25,7.18,1.13,10.92-3.6,2.91,.25,10.28-2.05,14.19l.85-.22c.83,1.01-.49,1.22-.68,1.97,.66-.1,.76-1.1,1.23-.47,1.05,8.57-1.33,17.67-2.15,26.43-.25,3.21,4.38,1.87,2.32,5.89l-1.57-1.17c1.81,6.5-.27,13.24,1.24,19.6-.36-.38-.83-.4-.82-1.02-1.17,1.32-.13,4.95,.8,4.99-.12,.99-.85,.21-1.33,.81-.69,1.33,1.38,3.4,.23,4.09-.19,.12-.36-.39-.44-.63,.53,.89-.24,4.07,1.1,3.26-.69,2.36,.48,4.56-.35,6.44,1.45,1.27-.81,4.05,1.27,4.5-2.15-.23-1.84,4.12-.86,5.66-.64-.52-.71,1.29-1.6,.67,0,1.72,.33,3.3,1.45,3.03-2.69,3.08,1.87,6.42-1.5,8.1,.99,5.13,1.62,9.88,1.97,14.49-2.14-.25-.04-5.08-2.31-4.96,.75,4.38,2.49,6.96,1.78,11.26-.34,1.1-.91-.67-1.26-1.06,.7,4.38-.56,8.39,.44,12.31-.2-.02-.4-.45-.55-.85,.04,.77-.39,1.76,.59,1.72l-.23-.76c1.47-1.15,2.83,3.16,3.58,3.34-2.75-1.43-.87,3.79-4.32,1.56,.16,.51,.6,1.16,1.26,1.08-.22,.74-.61,.95-1.33,.16,.39,2.75,1.48,1.84,1.32,4.31-.47-.03-.63-.54-1.17-.82,.85,1.3,1.71,2.6,1.2,4.67-.28-.14-.66,.08-.62-.54-.05,3.59,2.12,6.25,1.02,10.14-1.99-1.28-.75,1.3-2.54,1.41l.42,2.15,.91-.8c-.14,1.85,1.09,3.57,.4,5.13l-.65-1.42,.11,3.49,.8-1.92c.79,1.93,2.26-.06,1.61,2.37-.15-.51-.14,1.85-1.26,2.75h0c.51,.95,1.04,1.93,.51,3.27-.59,.32-1.95-.41-2.34-.21,1.43,1,.12,4.37,1.63,5.62-.35-.41-1.28-.49-1.48-.38l1.16,.84c-.44,.83-.64,.95-1.37,.76-.39,2.57,2.31-.67,1.13,2.33-.08-.25-.27-.15-.42-.66-.72,3.04,.4,6.01-.44,8.79-1.85,.7-.24-2.5-1.83-1.66,0,4.09,1.48,8.59,.74,12.51l.26-.72c2.48,.75-1.48,2.84-.45,4.93-.15-.5-1.35-.75-1.08-.6-.64,2.66,.22,5.57,.62,9.73l-.6-.56c-.73,1.54-.72,4.15-1.18,5.84,.6,.57,.4,1.54,1.4,1.03-4.18,4.94,1.03,10.29-2.48,14.69,.05-.56-.44-1.39-.48-.95,.08,1.35,.11,2.7,.17,4.05,1.13-.2,.72-.45,1.67-1.21,.6,.57,.98,1.75,.87,2.74-.53-1.87-1.76-.17-2.46,.54,.35-.09,.69,.21,1.04,.18-2.18,1.88,2.17,.58,.54,3.3l-.56-.21c.18,1.1,.83,2.16,.54,3.3-1.32,.34-.47-1.2-1.5-1.39-.1,1.62,2.05,3.45,.63,4.78-.28-.73-.18-1.71-.45-2.44-1.66,1.43-1.3,1.65-1.67,2.81l.05-.11-.97,2.66,.48-.65c3.07,2.4,.18,4.18,2,7.16-1.71-2.88-1.13-.58-2.54-.95-.49,.65-1.07,1.64-1.43,1.3,1,1.42-1.18,2.03,.28,4.04-.47,.02-.22,1.37-1.34,.93,.15,1.71,.85-.29,1.42-.08,1.25,2.77-2.68,5.79-.99,9.77,.48,3.31,1.98,4.11,2.35,7.18-.88,.9-1.56-1.05-1.56-1.05-.91,1.52-.97,2.74-.66,4.33-.36-.36-.74-.09-1.33,.29-.06,1.23,1.56,1.05,.64,2.56-.47-.35-1.24-.82-1.67-1.48,.21,1.49,.87,3.03,1.06,4.57-.86,.28-1.09-1.07-1.53-1.67,.12,1.72,.1,4.42,1.29,5.13l.61-1c-.03,.62-1.14,.15-1.3-.33-.79-1.57,.74-1.99,1.22-2.01l.14,1.1c2.86-.69,.19-4.31,.66-6.41l1.84,1.17-1.31-2.41c.58-.39,1.73-.56,1.86,.54,1.2-1.39-.5-1.45,.78-2.61,.19-.12,.28-.04,.33,.1l-.37-1.57c.37,.35,1.43-.06,1.01,.82,1.5-2.53-.92-4.53,.71-5.35l.09,.24c-.19-3.82-1.4-.55-2.74-3.57l3.8-1.42-1.4-.55c.1-.38,.31-1.13,.87-.91-.81-1.56-.66,.16-1.49-.79,1.55-1.69,.03-5.18,2.39-5.31-1.01-.8-1.07,1.67-1.59-.4,2.55-.26-.13-2.34,1.22-3.89,1.21,.67,.33,2.2,1.69,.64-2.02-1.28,.87-3.24,.61-4.73-1.72-.27-.38-3.19-.69-5.66,.56,.22,1.44-4.41,2.31-6.58l.28,.1c-1.7-.62-1.11-2.89-1.29-4.6,1.04,.17,1.41,.52,1.78,1.48l.16-1.58c-.52-.43-.76-.95-.85-2l1.26,.53c.17-2.11-1.12-4.39,.01-7.01-1.2-.27-3.59,1.82-4.13-1.12,.67-.04,1.8-.04,2,.74-.06-.25-.46-.93-.14-1.39l1,1.25c.6-1.18-.86-.73-.67-1.71,.94,.11,.74-.66,1.47-.45,.07,.26-.47,.82-.14,1.23,.27-1.09,.95-2.38,1.71-2.76-.54,.05-1.26-.12-1.31-.95,.13-2.11,1.2-.61,1.79-1.8-.6-.57,.2-1.85-1.2-2.01,.06-.61,.73-.67,1.13-.87-.52-1.15,.3-5.1-1.31-4.01l-.12,.27c-.02-.05-.02-.12-.04-.18h0c-1.04-3.68,1.46-7.34,1.13-10.93l.47,.04c-.37-2.16,.06-4.73-.84-6.32,.05-.62,.97-1.41,1.51-1.1-.23-1.64-.74-1.87,.22-4.14,.69,1.69,.77-.51,.47,1.71,.57-2.07,1.36-2.49,.26-4.84,1.14,.86,1.64-1.47,1.36-2.5l-.98,1.41c-.09-1.14,.1-2.11,.27-3.1l1.55,.65c2.21-4.17-2.77-7.99,.68-11.05-1.03-1.21-.93,2.29-2.16,1.18,.34-1.96,2.76-3.88,2.8-4.5,1.06-2.66-2.15-2.68-1.36-5.48-.59,.33-2.12,.58-2.51-1.57,.34-1.97,2.53-2.29,2.9-1.01,.02,.48-.18,.7-.37,.66,.16,.65,.35,1.51,1.02,.76l-.55-.29c.65-.95,.76-3.68,1.64-2.98-.46-1.53-.89-.7-1.25,.4,.96-2.49,.24-3.97,.93-6.56-.33,.4-1.02,.74-.99,.33,.91-3.8-.98-1.75-1.09-4.36,.94-1.43,2.03,.64,1.45-2.01,.67-1.57,1.52-.26,1.95,.4-.96-2.45,.96-4.42,1.23-5.78l.39,1.28c-.23-.77-.19-1.38-.15-2.01l-1.17,.66c.24-.73,.28-1.35,.75-1.32-.7-.8-1.91,.49-2.85-1.07,.63-.95-.45-3.03,1.07-3.29-.68,3.07,1.53-.27,1.63,2.36-.15-.51-.11-1.13,.13-1.86,.17-.1,.31,.12,.38,.33,1.5-2.9-1.63-1.45-1.46-4.51,.83,.43,1.64-.64,1.48-1.15-.07,1.24-1.44,.53-2.04-.64,.74-1.94-.4-2.16-.28-3.19l-.36,1.16c-.83-.44-.68-1.42-.88-2.8,.66-.09,.4,1.27,.71,.79-1.42-1.59,1.69-3.37,.78-5.54,.62-.96,1.59-.03,2.02-.88-.99-2.43,1.27-2.53,.47-5.07-1.17,.68-.9,.81-1.93-.99l.62,4.15-1.54-2.71c-.07,1.24,.6,2.65,.38,3.38-.87-1.3-.6-1.15-1.57-.6,1.78-1.63-.85-3.4,.39-5.32l2.81,.17c1.39-2.91-1.26-5.3-.41-9.11l-.53,1.21c-1.1-.55-.08-2.37-.49-3.63,.94,.15,1.31-.62,1.91-1.13-.7,.04,.16-2.81-1.71-3.22l1.3-1.67c.61-3.08-2.57-3.62-2.15-6.58,.99,.93,1.71-.41,2.37,1.61,.04-.99,.24-1.88-.41-1.92,.61-.56-1.18-2.79-.27-3.68-.4-.43-1.39-.6-1.28-1.71,.19-.12,.46,.02,.46,.02-.46-.02-.59-1.76-1.66-.82,3.01-2.98,0-8.55,2.58-11.16-.26-2.18-.5-4.79-.52-6.76,.28,.13,.47,.02,.36,.39,.94-2.7-2.66-1.72-1.63-4.79,1.55-1.55,.8,1.66,1.39,.68,3.11-.37-.36-3.74,1.48-5.78l.17,.51c1.08-1.57-1.11-3.9-.85-6.49,0,0,.27,.13,.47,.02-1.55-1.8-2.02-5.17-2.42-7.67,1.2,.79,.62,1.14,1.86,.68-.16-1.12-1.98,.3-2.29-1.94,.68-.72,1.28-2.32,2.6-2.52l.04,2.11c1.72-1.06-.02-2.73,.28-3.84l.74,.15c-.22-3.24-2.09-3.3-1.93-6.77l-.57,.35c-1.84-1.91,1.06-1.58-.31-3.49l1.89-.56c-.44-1.26-1.79-4.4-2.12-6.65,1.39,1.28,2.08,3.91,2.9,5.55,.02-1.24-.11-4.22-1.03-4.87,.18,.5,.63,1.13,.34,1.63-1.47-1.53-2.18-3.54-2.13-6.01,3.67,.45,.93-6.44,3.77-8.23-1.35-4.38,.58-8.69,.37-13.79-2.84,1.81-.08-1.49-3-1.17-.19-1.19-.14-1.64,.05-1.75l1.72-3.6c.84-.86,.65,1.13,1.3,1.02,.21-2.6,1.23-1.1,1.99-2.82-1.04,.36-1.5-.9-1.11-2.38l-1.33,2.1c-1.58-3.63,2.43-3.16,.87-6.81l.93,1.15c-.55-1.88-.02-6.94-2.38-8.76,.33-.34,1.13-.78,1.35,.04,.33-4.5-2.61-9.98-1.2-13.48l.72,.33c-.22-.84-1.36-1.44-.65-2.5,.3,.05,.72,.33,.75-.06-.25-.44-1.28-2.21-.88-3.33l.81,.94c.88-4.4-2.03-6.7-2.59-10.36,2.1-.02,2.72-3.48,3.03-5.21l.3,.05c.16-5.11-1.9-8.64-2.81-13.34,2.21-2.98,.71-9.95,1.88-14.7-.36,.73-1.64-.08-1.87-.91,.4-1.12-1.53-3.02,.4-2.89l-.03,.4c1.87-.88,1.32-3.14,1.31-4.92l-2.53-.22c3.53-4.74-1.71-12.12,1.5-14.75-.66-1.1-.7-2.49-1.36-3.58l1.35,.02c.25-3.11,.36-4.67-.1-8.5l.99,.75c.01-2.17-3.99-2.6-4.14-4.59l2-.67c-.16-3.77,1.48-7.66-.5-11.32,.3,.05,.88,.14,.99,.75-.02-1.78,1.1-6.93-1.65-6.17,1.8-.11,.02-3.9-.85-5.91l1.34,.26c-1.77-1.65-2.23-1.69-2.8-4.07,.15-.58,1.04-.54,.74,.23,.61-1.92-1.32-1.42-.72-3.75l.89,.82c.02-1.95-.43-1.78-1.47-2.81-.59-1.2,.17-3.71,1.36-4.05-.74-.23-1.77-1.26-1.47-2.42,.45-.18,.75,.23,.89,.44,.76-3.3-1.75-4.78-.55-7.08,.44-.07,.65-.22,.77-.42,.09,2.59,.1,4.68,0,4.49,1.22-.05,1.35-2.16,3.11-.57-.99-1.64-3.14-4.42-2.66-6.49,.11-.1,.23-.21,.41-.29l.15,.2c.1-.48-.03-.89-.26-1.28,.17-.66,.3-1.08,.29-1.71,1-.29,.43-2.43,.43-3.47-1.34,.15-1.19-1.23-2.23,.11,.09-.17,.17,.19,.26,.88,.05,.16,.08,.34,.16,.44l-.12-.07c.07,.68,.14,1.58,.21,2.59-.72-.79-1.33-1.63-.65-2.82-.89-.49-1.8-1.04-2.23-1.35,1.8-1.52,2.68-4.32,3.81-4.76-.91-3.15-.88-7.48-3.5-9.35-.37-.89,.67-1.08,1.05-1.44,.28,.51,.27,1.13,.65,1.4-.74-1.78-.53-5.35-2.31-5.69,.67-2.32,1.69,1.2,1.23-1.92l.56,.39c2.46-6.33-5.04-9.78-1.83-16.82-.19,.49-.28,.73-.57,.84,1.14-7.89-2.45-15.97-.42-23.81,.36-2.22-.77-2.38-1.71-3.66l1.41-.57-1.81-2.17c-1.42-3.15,3.15-5.84,.57-9.78l-.93,.6c.08-1.48-.9-4.61,.23-4.45-.19-.14-1.04-.41-.58-1.02l.75-.1-1.55-3.52c.33-2.84,3.02,.22,2.86-3.88-.41-1.5-2.53-4.17-2.99-3.55,.01,.62-.35,1.61-1.09,1.71l-.5-1.36c-2.24-.07-4.58-.95-5.87,2.56l1.54,2.26-1.02,.84-.22-1.98c-.92,1.2,.02,1.85,.7,2.61-.56,.23-.93,.59-1.11,1.08l2.29,2.17c-.85,.34-1.79-.92-2.16,.68,1.06,1.02,1.87-1.19,2.64,.57-.92,1.21-1.77,.93-.81,2.2-.56,.23-.94-.03-1.23-.54,.77,1.13,.52,3.11,1.74,3.64-1.16,1.27,.6,3.98-1.51,4,.53,.34,1.79,1.97,1.95,3.05-2.65-1.82,.12,4.08-2.61,3.74,2.35,1.32,1.36,5.25,2.78,7.77-.19-.13-.57-.4-.47-.63-.1,1.48-.75,1.95-1.12,2.92,1.88,.07,2.45,2.33,3.68,3.49-1.69,1.91-2.26-.96-3.95-.28,1.51-.19,1.71,3.03,2.93,2.34-1.03,1.44-.47,1.22-1.97,2.02,2.35,.1,.47,1.26,1.98,2.31-1.03,2.06-2.16,.64-1.32,2.79-.65,1.08-1.59-.81-1.59-.81Zm6.8,51.82h-.03c-.05-.45-.1-.83-.13-1.07,.03,.22,.08,.53,.15,1.07Zm.23,4.38c.03-.54,0-1.2-.03-1.9,.45-.17,.94-.03,.94,.41-.32-.22-.54,.82-.9,1.49Zm8.85-9.7c.22,.69-.03,.93-.3,1.04-.04-.33-.1-.71-.22-1.21-.05-.02-.11-.06-.17-.07,.26,.05,.5,.12,.69,.24Z"/><path class="i" d="M563.61,721.81c-.03-.1-.09-.15-.11-.28-.11,.15-.21,.29-.28,.43l.43,.23-.04-.37Z"/><polygon class="i" points="556.31 793.21 556.65 793.19 556.34 792.82 556.31 793.21"/><path class="i" d="M556.33,991.92s.01,0,.02,0v-.26l-.02,.26Z"/><path class="i" d="M568.4,980.45l-1.51,.3c.25,.76,1.94,.96,1.51-.3Z"/><path class="i" d="M567.59,936.44c.76-.47,1.25-1.71,.52-2.47-.11,.99-.71,1.97-.52,2.47Z"/><polygon class="i" points="568.71 804.5 569.24 805.37 568.77 803.72 568.71 804.5"/></g><g><path class="i" d="M629.27,640.1c.1,0,.15-.03,.24-.03-.15-.08-.25-.1-.24,.03Z"/><path class="i" d="M632.9,619.32l.11,.26c.26-.01,.51-.02,.75-.06l-.87-.2Z"/><path class="i" d="M662.19,889.35c-1.15,1.7-1.61-2.67-2.88-.13,.52-.25,2.15,2.22,2.88,.13Z"/><path class="i" d="M659.31,889.22h-.01l-.12,.26,.13-.26Z"/><path class="i" d="M661.64,999.64c-.24,.07-.43,.2-.61,.35,.14,0,.31-.08,.61-.35Z"/><path class="i" d="M660.28,985.28c.11-.37,.3-.49,.14-1-.07,.04-.12,.09-.17,.15,.18,.19,.26,.43,.03,.85Z"/><path class="i" d="M660.73,970.42c-.1,.08-.18,.18-.27,.27l.06,.47,.21-.74Z"/><path class="i" d="M635.7,684.58c.34-.37,.73-.62,1.12-.82-.92,.34-1.51-1.78-1.12,.82Z"/><path class="i" d="M649.72,984.32l.27-2.34c-.15,.65-.25,1.5-.27,2.34Z"/><path class="i" d="M646.12,790.19l-.2-.53c-.02,.21,.04,.4,.2,.53Z"/><path class="i" d="M650.02,975.03c.49-.41,.78-.84,.97-1.3-.1-.1-.18-.21-.34-.28l-.63,1.58Z"/><path class="i" d="M636.83,683.75s-.01,0-.01,0c0,0,0,0,.01,0Z"/><path class="i" d="M631.78,668.78c.24,2.23,1.84,.83,2.9,1.17,.83,2.59-1.13,1.39-1.92,2.4,.67,1.6,2.43,2.67,2.52,3.91-.28,.13-.35,.38-.75,.14,1.61,1.58,.72,5.19,2.7,7.02-.14,.17-.28,.26-.4,.32,.84-.44,1.72-.59,2.37-.6,.15,.99,1.32,1.72,.22,2.23-.04-.62-.51-.61-.9-.86l.62,.99c-1.53,1.14-.74-1.36-1.95-1.21,.77,1.97,2.42,4.19,2.13,5.81-1.57,.51-.97-3.59-2.16-1.34l.33-2.49c-2.32,2.15,0-1.49-2.51,.53-.09,3.23,1.24,3.46,1.14,6.68,.98,.61,1.3-.39,2.28,.22,2.14,4.33-3.65,4.01-1.13,7.08,1.17,.74,3.24,.84,2.43,3.33l-1.91-.6c.16,3.1,2.81,1.47,1.95,4.83-.78-.5-.87-2.36-1.04-1.87-1.21,2.25,1.2,1.37,1.38,2.97l-1.58,.51c.63,3.25,2.14,6.74,2.82,10.35-.5-.15-1.07-.72-1.48,.18,1.28,4.5,.83,9.81,.28,14.32l1.56,1.55c.02,.39-.56,.79-.87,.39-.36,1.78,.89,0,1.52,.78,.19,.97-.68,1.37-1.16,.79,1.47,2.93,3.4,8.43,2.18,11.78l-.47-.59c-.35,2.55,3.11,2.56,2.01,5l-.29-.42c-.13,5.48,1.7,11.37-.08,15.68,2.07,.62-.47,5.44,2.36,5.57-1.14,3.21-1.72,2.36-2.3,6.8-.04,1.17,1.89,1.6,2.3,3.02l-1.46,.15,1.69,1.84-1.67,1.17,.47,1.32c.05-.55,.58-1.19,1.01-1.14,.81,2.06-.66,5.23-1.41,5.33l1.59,4.91c-.6-.07-.86-.89-1.28-1.53,1.69,2.56-1.51,.59,.03,2.94,.31-.35,.89,.12,1.19,.15-.8,1.28-.61,4.05-.09,6.08l-1.04-.33c.02,3.72,.98,7.78,1.23,11.94,.38-1.52,2.16-1.29,2.4-.08l-1.52,.58c1.01,.73,.51-1.31,1.78,.23-.08,1.57-1.7,1.15-2.26,.29l.65,1.86c-.46,.14-.73-.29-1.33-.37,1.01,.72-1.36,3.35,.38,4.37l-.46,.13c.24,4.16,.9,6.01,1.14,9.4,1.34,0,1.11,1.34,2.25,2.29-.3,2.52-1.22,5.34-.95,8.33,.77,2.08,1.17,.56,2.01,1.47-1.21,.21-.95,3.21-1.9,1.69,.37,3.59,.5,4.59,1.66,9.11,.48-.52,.68-1.08,1.1-.81,.23,.82-.44,1.91-1.03,1.81l-.14-.21c2.03,5.05-3.1,11.95-.39,15.93l-.13-.22,1.48,4.18c-.16,1.95-.95-1.14-1.67,.33,2.16,4.5-.1,7.21,1.36,10.93-3.55,3,.58,10.31-1.71,14.28l.85-.24c.85,1-.47,1.24-.65,1.99,.66-.12,.75-1.11,1.22-.49,1.11,8.58-.92,17.75-1.75,26.54-.23,3.22,4.39,1.82,2.36,5.88l-1.58-1.15c.94,3.25,.93,6.57,.87,9.87-.05,3.3-.23,6.59,.54,9.78-.36-.38-.83-.4-.82-1.02-1.17,1.33-.13,4.96,.8,5-.12,.99-.85,.22-1.33,.82-.7,1.33,1.41,3.41,.26,4.1-.19,.12-.37-.39-.45-.63,.54,.89-.21,4.09,1.13,3.27-.67,2.37,.53,4.58-.33,6.46,1.44,1.28-.84,4.06,1.23,4.52-2.15-.23-1.88,4.13-.91,5.67-.64-.53-.72,1.29-1.6,.67-.03,1.72,.32,3.31,1.44,3.05-2.68,3.07,1.87,6.46-1.5,8.11,.9,5.15,1.44,9.92,1.71,14.55-2.14-.28,.04-5.09-2.22-5.01,.66,4.4,2.38,7.02,1.64,11.31-.35,1.1-.9-.69-1.25-1.09,.7,4.41-.72,8.4,.18,12.34-.2-.02-.39-.46-.52-.86,.02,.77-.44,1.75,.54,1.73l-.21-.76c1.5-1.12,2.74,3.24,3.48,3.43-2.71-1.5-.98,3.78-4.36,1.46,.15,.52,.57,1.18,1.23,1.11-.24,.73-.64,.94-1.33,.13,.34,2.77,1.44,1.88,1.24,4.35-.47-.05-.62-.56-1.16-.86,.83,1.32,1.66,2.66,1.11,4.72-.28-.15-.66,.06-.61-.56-.12,3.6,1.9,6.33,.66,10.19-1.94-1.35-.8,1.28-2.59,1.32l.33,2.16,.94-.77c-.2,1.85,.93,3.61,.2,5.15l-.6-1.45v3.51l.87-1.9c.74,1.97,2.26,.02,1.54,2.45-.13-.52-.2,1.86-1.33,2.72h0c.47,.97,1,1.98,.39,3.3-.61,.3-1.93-.5-2.33-.3,1.37,1.06-.1,4.37,1.34,5.7-.33-.42-1.25-.55-1.46-.44l1.11,.89c-.49,.81-.69,.92-1.41,.69-.53,2.55,2.34-.56,1.01,2.39-.07-.25-.26-.16-.39-.68-.87,3.01,.06,6.03-.87,8.79-1.88,.61-.14-2.52-1.76-1.76-.08,2.05,.2,4.23,.39,6.37,.14,2.14,.18,4.26-.32,6.19l.3-.7c2.43,.9-1.67,2.75-.78,4.9-.11-.51-1.3-.84-1.04-.67-.8,2.63-.19,5.58,0,9.78l-.57-.61c-.81,1.49-.92,4.12-1.55,5.77,.55,.61,.27,1.57,1.31,1.13-4.58,4.62,.17,10.37-3.7,14.48,.09-.56-.32-1.43-.41-.99l-.12,4.07c1.14-.1,.75-.39,1.74-1.07,.55,.63,.85,1.84,.67,2.83-.41-1.93-1.72-.32-2.5,.32,.36-.06,.67,.27,1.02,.27-2.37,1.68,2.1,.78,.2,3.34l-.54-.26c.06,1.11,.61,2.24,.2,3.34-1.35,.21-.34-1.24-1.36-1.53-.27,1.6,1.69,3.64,.14,4.82-.2-.75,0-1.73-.2-2.48-1.8,1.26-1.47,1.52-1.95,2.64l.06-.11-1.24,2.55,.54-.6c2.82,2.71-.27,4.18,1.27,7.36-1.45-3.08-1.07-.7-2.44-1.22-.54,.6-1.2,1.53-1.53,1.14,.88,1.54-1.39,1.89-.18,4.05-.47-.03-.39,1.33-1.45,.77-.06,1.71,.89-.19,1.42,.08,.9,2.9-3.38,5.43-2.18,9.59,.07,3.35,1.44,4.33,1.45,7.45-.97,.78-1.43-1.25-1.43-1.25-1.04,1.41-1.29,2.6-1.22,4.22-.3-.41-.72-.2-1.36,.11-.24,1.21,1.39,1.26,.26,2.62-.42-.41-1.11-.99-1.44-1.7,0,1.5,.41,3.12,.38,4.68-.89,.15-.92-1.22-1.27-1.87-.14,1.71-.56,4.38,.52,5.26l.75-.9c-.12,.61-1.15-.02-1.24-.52-.55-1.67,1.03-1.87,1.5-1.81l-.02,1.11c2.93-.27,.83-4.25,1.6-6.26l1.65,1.41-.94-2.57c.63-.31,1.79-.32,1.77,.79,1.39-1.22-.27-1.5,1.15-2.49,.2-.1,.28,0,.32,.15l-.2-1.63c.33,.4,1.41,.13,.91,.95,1.78-2.35-.35-4.65,1.36-5.26l.06,.25c.29-3.84-1.32-.73-2.28-3.9l3.95-.96-1.32-.72c.15-.37,.44-1.09,.97-.81-.61-1.65-.68,.09-1.38-.96,1.75-1.5,.67-5.15,3.04-5.02-.91-.91-1.27,1.54-1.53-.58,2.57,.02,.18-2.34,1.63-3.76,1.15,.8,.14,2.24,1.62,.82-1.91-1.5,1.17-3.17,1.06-4.68-1.68-.44-.05-3.24-.1-5.74,.54,.27,1.89-4.28,2.98-6.37l.27,.12c-1.64-.78-.78-2.98-.85-4.73,1.01,.26,1.38,.65,1.66,1.64,.11-.52,.19-1.05,.28-1.57-.49-.48-.69-1.02-.7-2.08l1.22,.64c.3-2.11-.76-4.5,.58-7.04-1.18-.37-3.73,1.53-4.03-1.45,.67,.01,1.8,.11,1.93,.9-.04-.26-.39-.97-.02-1.41l.89,1.33c.7-1.14-.8-.8-.52-1.76,.92,.18,.79-.61,1.5-.34,.05,.27-.54,.79-.24,1.23,.36-1.08,1.15-2.32,1.93-2.64-.55,0-1.25-.22-1.23-1.05,.31-2.1,1.24-.52,1.94-1.67-.56-.62,.35-1.84-1.03-2.11,.12-.61,.78-.62,1.2-.79-.21-.59-.03-1.87,0-2.87,0-1.01-.17-1.74-1-1.25l-.14,.26c-.02-.06-.01-.12-.03-.19h0c-.86-3.78,1.87-7.28,1.8-10.91l.47,.07c-.22-2.19,.37-4.75-.41-6.39,.09-.62,1.07-1.36,1.59-1.01-.12-1.66-.59-1.91,.48-4.15,.61,1.74,.81-.46,.37,1.75,.7-2.05,1.47-2.43,.47-4.86,1.11,.92,1.7-1.4,1.46-2.44l-1.03,1.37c-.04-1.15,.18-2.12,.4-3.11l1.51,.74c2.43-4.1-2.34-8.17,1.26-11.08-.97-1.26-1.06,2.26-2.23,1.09,.45-1.96,2.96-3.78,3.04-4.4,1.19-2.63-2.05-2.79-1.17-5.57-.6,.31-2.13,.5-2.47-1.68,.39-1.96,2.59-2.21,2.93-.91,0,.48-.2,.69-.39,.66,.14,.66,.31,1.53,.99,.8l-.54-.31c.67-.93,.86-3.68,1.73-2.94-.4-1.56-.86-.73-1.26,.35,1.06-2.48,.4-3.99,1.19-6.57-.35,.39-1.05,.71-1,.3,1.06-3.79-.91-1.79-.91-4.42,1-1.41,2,.71,1.53-1.98,.73-1.56,1.53-.21,1.93,.46-.85-2.49,1.11-4.42,1.4-5.78l.36,1.3c-.22-.78-.16-1.4-.12-2.03l-1.18,.63c.25-.73,.3-1.36,.77-1.31-.69-.82-1.92,.44-2.82-1.16,.64-.94-.4-3.06,1.12-3.29-.73,3.07,1.53-.23,1.58,2.42-.14-.52-.09-1.14,.16-1.87,.18-.1,.3,.13,.37,.34,1.55-2.88-1.6-1.5-1.34-4.58,.82,.45,1.65-.6,1.51-1.12-.11,1.24-1.45,.5-2.02-.69,.8-1.93-.34-2.18-.19-3.21l-.39,1.16c-.82-.46-.64-1.44-.8-2.83,.67-.07,.36,1.28,.69,.81-1.38-1.63,1.78-3.36,.94-5.56,.64-.95,1.6,0,2.03-.85-.97-2.46,1.29-2.53,.51-5.1-1.17,.66-.9,.8-1.92-1.03l.59,4.18-1.52-2.75c-.08,1.25,.58,2.68,.35,3.41-.86-1.32-.59-1.17-1.56-.63,1.79-1.61-.82-3.44,.43-5.35l2.81,.21c1.41-2.91-1.18-5.36-.27-9.17l-.55,1.22c-1.09-.57-.03-2.39-.42-3.66,.94,.16,1.32-.61,1.93-1.11-.7,.03,.21-2.82-1.65-3.25l1.31-1.67c.61-3.1-2.57-3.66-2.15-6.64,.99,.94,1.71-.4,2.37,1.63,.04-1,.24-1.89-.41-1.93,.61-.56-1.18-2.82-.25-3.7-.4-.44-1.38-.6-1.27-1.72,.19-.12,.46,.02,.46,.02-.46-.02-.58-1.77-1.65-.83,3.03-2.99,.09-8.6,2.66-11.21-.28-2.19-.54-4.82-.58-6.8,.28,.13,.47,.02,.37,.39,.92-2.72-2.68-1.73-1.65-4.81,1.55-1.56,.8,1.66,1.39,.68,3.11-.38-.36-3.76,1.48-5.82l.17,.51c1.08-1.59-1.11-3.92-.85-6.53,0,0,.27,.13,.47,.02-1.56-1.8-2.1-5.18-2.53-7.69,1.21,.79,.64,1.14,1.87,.67-.17-1.13-1.98,.32-2.32-1.92,.66-.73,1.25-2.35,2.56-2.56l.07,2.12c1.7-1.08-.06-2.75,.24-3.86l.74,.14c-.24-3.25-2.12-3.29-1.98-6.79l-.56,.36c-1.86-1.9,1.05-1.6-.33-3.5l1.88-.59c-.45-1.26-1.88-4.4-2.25-6.65,1.41,1.26,2.17,3.9,3.02,5.53,0-1.25-.2-4.24-1.14-4.89,.19,.5,.66,1.13,.38,1.63-1.5-1.52-2.26-3.52-2.26-6.01,3.66,.39,.83-6.49,3.64-8.34-.71-2.19-.58-4.38-.35-6.66,.22-2.28,.59-4.66,.41-7.22-2.79,1.89-.12-1.5-3.03-1.11-.22-1.19-.18-1.64,0-1.76l1.64-3.67c.83-.88,.67,1.12,1.33,.99,.15-2.62,1.21-1.13,1.94-2.89-1.03,.39-1.52-.87-1.16-2.37l-1.29,2.14c-1.65-3.61,2.36-3.24,.73-6.88l.95,1.14c-.58-1.88-.24-6.98-2.65-8.75,.32-.35,1.1-.82,1.35,0,.17-4.54-2.89-9.96-1.58-13.53l.73,.31c-.24-.83-1.4-1.41-.72-2.49,.3,.04,.73,.31,.75-.08-.27-.44-1.36-2.18-1-3.32l.85,.92c.71-4.45-2.29-6.67-2.97-10.33,2.1-.1,2.61-3.6,2.86-5.35l.3,.04c.02-5.15-2.23-8.62-3.33-13.31,2.09-3.08,.36-10.03,1.32-14.85-.33,.75-1.64,0-1.91-.84,.35-1.14-1.67-2.97,.26-2.92v.4c1.82-.96,1.15-3.21,1.08-5l-2.54-.12c3.33-4.92-2.19-12.1,.86-14.89-.72-1.08-.82-2.47-1.54-3.53l1.35-.05c.1-3.14,.14-4.71-.49-8.53l1.03,.71c-.09-2.18-4.1-2.42-4.34-4.41l1.96-.77c-.36-3.78,1.06-7.77-1.09-11.34,.3,.04,.89,.09,1.03,.7-.1-1.79,.75-7.02-1.95-6.12,1.79-.21-.17-3.92-1.16-5.89l1.35,.19c-1.86-1.56-2.33-1.58-3.03-3.94,.12-.59,1.01-.6,.75,.19,.51-1.97-1.4-1.36-.91-3.73l.93,.78c-.09-1.96-.52-1.77-1.61-2.74-.65-1.18-.02-3.74,1.15-4.15-.76-.19-1.83-1.16-1.6-2.35,.44-.2,.76,.19,.92,.39,.56-3.36-2.04-4.7-.97-7.07,.43-.09,.64-.26,.75-.46,.24,2.6,.38,4.69,.26,4.51,1.22-.12,1.22-2.24,3.07-.74-1.09-1.59-3.39-4.26-3.03-6.36,.11-.11,.21-.22,.39-.31l.16,.2c.07-.48-.08-.89-.33-1.27,.13-.67,.24-1.1,.19-1.73,.98-.35,.29-2.46,.23-3.51-1.33,.23-1.25-1.16-2.22,.24,.08-.18,.18,.18,.31,.87,.06,.15,.09,.34,.18,.43l-.12-.06c.11,.68,.23,1.57,.36,2.59-.76-.75-1.42-1.56-.8-2.79-.91-.44-1.86-.94-2.3-1.23,1.71-1.63,2.41-4.49,3.51-5-1.1-3.11-1.33-7.46-4.05-9.18-.42-.87,.6-1.12,.96-1.51,.31,.49,.34,1.12,.73,1.36-.84-1.74-.86-5.34-2.66-5.57,.52-2.37,1.76,1.1,1.11-2.01l.58,.36c2.07-6.51-5.63-9.5-2.9-16.76-.16,.5-.23,.75-.51,.88,.63-7.99-3.5-15.85-2.03-23.86,.21-2.25-.94-2.34-1.97-3.55l1.36-.67-1.96-2.05c-1.66-3.05,2.72-6.08-.14-9.84l-.88,.66c-.03-1.49-1.24-4.56-.1-4.48-.2-.12-1.07-.33-.65-.98l.74-.15-1.81-3.41c.12-2.87,3.03,0,2.55-4.11-.52-1.47-2.85-3.99-3.26-3.34,.06,.62-.22,1.64-.96,1.8l-.61-1.32c-2.24,.1-4.64-.58-5.65,3.01l1.71,2.14-.95,.92-.37-1.97c-.83,1.27,.16,1.85,.89,2.55-.54,.27-.88,.67-1.03,1.16l2.45,2c-.82,.41-1.86-.78-2.11,.84,1.13,.94,1.78-1.33,2.68,.37-.83,1.28-1.7,1.07-.65,2.26-.54,.27-.94,.04-1.27-.45,.85,1.08,.74,3.07,2,3.51-1.06,1.35,.88,3.94-1.21,4.12,.55,.3,1.93,1.85,2.17,2.92-2.77-1.63,.42,4.08-2.33,3.92,2.44,1.16,1.71,5.16,3.31,7.59-.2-.12-.6-.36-.51-.6,.01,1.49-.61,2-.91,3,1.88-.06,2.6,2.17,3.9,3.25-1.56,2.03-2.32-.81-3.96-.02,1.49-.29,1.9,2.92,3.08,2.15-.93,1.52-.38,1.25-1.83,2.16,2.35-.06,.56,1.23,2.13,2.18-.89,2.13-2.11,.79-1.13,2.88-.58,1.13-1.64-.71-1.64-.71Zm9.99,51.5h-.03c-.08-.44-.14-.82-.19-1.06l.21,1.06Zm.47,4.37c0-.54-.06-1.2-.14-1.9,.44-.2,.94-.08,.96,.36-.33-.21-.49,.85-.81,1.54Zm8.29-10.24c.26,.68,.02,.94-.24,1.06-.06-.33-.14-.7-.29-1.2-.05-.01-.11-.05-.17-.06,.26,.04,.51,.09,.7,.2Z"/><path class="i" d="M648.65,713.36c-.04-.1-.1-.15-.13-.28-.1,.15-.19,.3-.26,.45l.44,.2-.06-.37Z"/><polygon class="i" points="645.09 785.36 645.43 785.33 645.1 784.97 645.09 785.36"/><path class="i" d="M649.69,984.58s.01,0,.02,0v-.26l-.02,.26Z"/><path class="i" d="M661.85,973.09l-1.51,.3c.24,.77,1.93,.97,1.51-.3Z"/><path class="i" d="M660.74,928.81c.75-.48,1.24-1.73,.5-2.5-.1,1-.69,1.99-.5,2.5Z"/><polygon class="i" points="657.97 796.15 658.53 797 658 795.36 657.97 796.15"/></g><path class="f" d="M226.72,734.58s231.39,74.25,513.27,0c0,0,9.04,30.16,6.66,54.71,0,0-287.16,66.92-528.85-5.86,0,0-1.23-43.47,8.92-48.85Z"/></g></g></svg>