<?xml version="1.0" encoding="UTF-8"?><svg id="a" xmlns="http://www.w3.org/2000/svg" viewBox="0 0 1918.06 942.94"><defs><style>.b{fill:#fff;}.c{fill:#ede8d5;}</style></defs><path class="b" d="M1251.9,419.31c-20.04-58.78-79.46-101.4-149.66-101.4-9.59,0-18.97,.8-28.08,2.32-23.18-53.35-79.65-91.03-145.64-91.03-55,0-103.39,26.18-131.4,65.79-24.45-14.55-53.56-23-84.81-23-70.84,0-130.7,43.41-150.19,103.03-5.23-.49-10.53-.74-15.89-.74-86.65,0-156.9,64.95-156.9,145.08,0,63.99,44.8,118.29,106.98,137.57,25.42,12.14,57.58,22.94,94.98,31.95,28.17,38.75,76.02,64.26,130.31,64.26,39.49,0,75.57-13.5,103.15-35.77,9.49,.28,19.07,.47,28.73,.57,22.29,11.25,47.86,17.64,75.04,17.64,32.65,0,62.96-9.22,88.07-25,48.15-5.04,92.38-12.47,131.01-21.81,22.66,11.74,48.78,18.45,76.6,18.45,86.65,0,156.9-64.95,156.9-145.07,0-71.39-55.77-130.73-129.21-142.82Z"/><path class="c" d="M656.17,639.39c-26.53-8.91-41.44-44.28-44.21-94.53-28.63,6.31-59.28,5.18-89.1-4.84-8.51-2.86-16.64-6.35-24.36-10.38,4.54,48.82,36.39,92.42,84.91,108.72,24.89,8.36,50.61,8.34,74.24,1.46-.49-.15-.99-.28-1.48-.44Z"/><path class="c" d="M918.07,612.98c14.68,5.1,30.13,9.52,46.33,13.14,29.5,6.6,59.44,10.14,89.04,10.91-28.94-20.31-49.42-45.5-59.53-72.86-36.72,.76-74.27-2.72-111.14-10.96-16.19-3.62-31.65-8.04-46.33-13.14,6.37,45.66,41.11,87.68,96,114.86-7.45-13.38-12.35-27.48-14.37-41.95Z"/><path class="c" d="M1329.81,575.89c-24.43,13.66-60.64,.92-99.71-30.79-14.57,25.44-36.01,47.38-63.46,62.72-7.84,4.38-15.88,8.06-24.06,11.06,39.2,29.45,92.89,35.17,137.57,10.2,22.92-12.81,40.2-31.87,50.98-53.98-.44,.27-.87,.55-1.32,.8Z"/></svg>