<?xml version="1.0" encoding="UTF-8"?><svg xmlns="http://www.w3.org/2000/svg" viewBox="0 0 1915.69 2000"><defs><style>.j{fill:#b23b25;}.k{fill:#7f94af;}</style></defs><g id="a"/><g id="b"/><g id="c"/><g id="d"/><g id="e"/><g id="f"/><g id="g"/><g id="h"/><g id="i"><g><path class="k" d="M1039.04,1002.63c254.55,210.35,512.27,430.94,762.6,646.47l3.01,2.59c.98,.88,2.08,1.63,2.8,2.84,1.97,3.15,1.69,8.1,.55,11.8-3.44,1.76-8.19,3.11-11.69,1.7-1.32-.48-2.26-1.41-3.32-2.21l-3.11-2.46c-157.27-124.26-327.86-259.88-484.05-385.7-95.49-77.09-201.23-162.59-295.33-240.44-21.86-19.28,4.31-52.75,28.54-34.58h0Z"/><path class="j" d="M1294.63,596.89c-37.28-30.77-146.67,36.46-271.81,159.08L495.3,320.61c53.35-89.52,75.5-159.67,51.31-179.63-37.88-31.26-175.04,72.37-306.35,231.48C108.95,531.56,33.21,685.89,71.09,717.15c24.19,19.96,88.86-15.08,166.64-84.45l527.51,435.36c-96.66,146.13-141.92,266.29-104.64,297.05,50.51,41.69,233.39-96.49,408.47-308.63,175.08-212.14,276.07-417.91,225.56-459.59Z"/></g></g></svg>