<?xml version="1.0" encoding="UTF-8"?><svg id="a" xmlns="http://www.w3.org/2000/svg" viewBox="0 0 1000 1000"><defs><style>.b{fill:#0d1b3e;stroke-width:13.44px;}.b,.c,.d{stroke:#0d1b3e;stroke-miterlimit:10;}.c{fill:#eead47;stroke-width:11.2px;}.d{fill:#b23b25;stroke-width:6.72px;}.e{fill:#2c3856;}</style></defs><path class="b" d="M831.83,92.81c0-22.28-134.75-40.35-300.97-40.35s-300.97,18.06-300.97,40.35"/><path class="b" d="M832.81,92.81c0,22.28-134.75,40.35-300.97,40.35s-300.97-18.06-300.97-40.35l118.11-4.91c111.19,13.71,205.29,5.84,316.57-6.52l167.25,11.43Z"/><path class="c" d="M227.9,105.91s-148.8,473.41,0,808.62c0,0,276.11,74.26,604.74,0,0,0,165.51-439.38,0-808.62,0,0-361.25,68.07-604.74,0Z"/><g><path class="e" d="M308.38,933.05c.71,.15,1.79-.63,1.06-1.61l-2.37,.16,1.3,1.45Z"/><path class="e" d="M308.82,923.98c-1.56-.84-3.96-1.56-5.45,.11,2.53,.41,1.85,1.09,4.79,1.41,.73,.98,.21,2.2-.62,2.36,.69,.15,.32,1.91,1.85,1.91,.92-2.15,.18-3.96-1.96-5.26,.27-.6,.97-.45,1.39-.53Z"/><path class="e" d="M275.7,812.55l-.08,.79c.09-.23,.11-.5,.08-.79Z"/><path class="e" d="M263.61,741.63c.13,.53,.38,.73,.59,.73-.22-.48-.41-.87-.59-.73Z"/><path class="e" d="M264.3,729.14c-.04,.27-.04,.49-.06,.74,.17-.3,.24-.59,.06-.74Z"/><path class="e" d="M275.7,812.55l.26-2.03c-.74,.03-.31,1.08-.26,2.03Z"/><path class="e" d="M297.51,911.23c.26,.34,.58,.57,.95,.76-.22-.27-.42-.54-.6-.83-.12,.03-.22,.05-.35,.07Z"/><path class="e" d="M285.31,842.78l.16,.56c.29,.1,.63,.17,1.01,.22l-1.17-.78Z"/><path class="e" d="M292.67,865.89c-.09-.55-1.95-.15-2.8-.1,.84,.06,1.31,.33,1.6,.75,.34-.1,.73-.3,1.2-.64Z"/><path class="e" d="M302.5,903.28l.5,.54c-.14-.13-.33-.38-.5-.54Z"/><path class="e" d="M281.24,825.89c.26-.11,.48-.25,.6-.38-.23,.06-.43,.2-.6,.38Z"/><path class="e" d="M278.75,146.68c.13,.04,.22,.03,.33,.06-.16-.18-.28-.25-.33-.06Z"/><path class="e" d="M293.6,120.71v.4c.35,.12,.69,.24,1.03,.31l-1.03-.71Z"/><path class="e" d="M263.95,706.61s-.01,.06-.02,.1c.28,.56,.21,.23,.02-.1Z"/><path class="e" d="M255.38,500.93c-1.75,2.29-2.06-3.88-4.03-.41,.75-.3,2.86,3.29,4.03,.41Z"/><path class="e" d="M297.49,910.54c-.15-.3-.29-.61-.4-.93,.12,.45,.24,.74,.4,.93Z"/><path class="e" d="M251.34,500.52h-.01l-.19,.36,.2-.36Z"/><path class="e" d="M258.14,655.28c-.32,.13-.56,.35-.79,.58,.19-.03,.42-.17,.79-.58Z"/><path class="e" d="M258.74,693.91l.16-.98c-.13,.39-.16,.71-.16,.98Z"/><path class="e" d="M254.24,635.47c.11-.53,.36-.72,.07-1.41-.09,.07-.15,.14-.22,.23,.27,.24,.41,.58,.15,1.18Z"/><path class="e" d="M253.24,614.63c-.14,.12-.24,.27-.36,.4l.13,.66,.23-1.06Z"/><path class="e" d="M268.49,209.75c.6-.37,1.22-.56,1.83-.68-1.38,.1-1.35-3.02-1.83,.68Z"/><path class="e" d="M298.48,910.82c-.49,.07-.78-.01-.99-.27,.11,.22,.24,.42,.36,.61,.28-.05,.53-.14,.63-.34Z"/><path class="e" d="M239.31,635.42l.09-3.36c-.14,.94-.16,2.17-.09,3.36Z"/><path class="e" d="M249.21,359.24l-.15-.79c-.07,.29-.04,.57,.15,.79Z"/><path class="e" d="M238.68,622.14c.64-.63,1-1.28,1.22-1.94-.16-.13-.28-.29-.5-.37l-.71,2.31Z"/><path class="e" d="M270.34,209.07s-.02,0-.02,0c0,0,.01,0,.02,0Z"/><path class="e" d="M269.55,186.63c-.59,3.13,2.14,1.89,3.43,2.79,.06,3.86-2.1,1.42-3.57,2.48,.25,2.45,2.19,4.62,1.81,6.35-.42,.06-.63,.38-1.07-.11,1.54,2.8-1.14,7.36,.85,10.64-.25,.18-.47,.25-.67,.28,1.3-.27,2.56-.13,3.43,.11-.19,1.41,1.12,2.86-.56,3.13,.19-.85-.45-1.03-.88-1.51l.46,1.58c-2.52,.95-.47-2.14-2.17-2.42,.28,3,1.64,6.65,.65,8.75-2.33,.1,.06-5.27-2.41-2.65l1.41-3.27c-3.98,2.03,.58-2.03-3.61-.25-1.39,4.39,.35,5.21-1.02,9.58,1.09,1.21,1.91-.04,3,1.16,1.25,6.71-6.45,4.13-4.17,9.28,1.32,1.44,4.1,2.34,2.08,5.45l-2.38-1.52c-.91,4.32,3.3,3.03,.9,7.33-.88-.96-.34-3.55-.74-2.93-2.45,2.65,1.14,2.3,.8,4.57l-2.33,.14c-.34,4.69,.58,10.03,.25,15.22-.63-.38-1.21-1.36-2.08-.25,.23,6.64-2.2,13.8-4.36,19.88l1.64,2.65c-.1,.55-1.02,.92-1.32,.26-1.07,2.34,1.22,.29,1.84,1.56-.05,1.4-1.37,1.69-1.84,.73,1.11,4.53,2,12.72-.65,17l-.47-.96c-1.22,3.44,3.53,4.48,1.3,7.53l-.27-.67c-1.79,7.57-.96,16.25-4.57,21.78,2.7,1.43-2.09,7.47,1.79,8.39-2.44,4.17-3,2.84-4.95,8.89-.35,1.63,2.21,2.72,2.41,4.8l-2.06-.16,1.87,2.99-2.61,1.23,.34,1.97c.2-.75,1.08-1.53,1.66-1.36,.64,3.08-2.14,7.15-3.21,7.13l1.06,7.25c-.82-.24-.99-1.45-1.43-2.44,1.74,3.98-2.24,.48-.63,4.13,.51-.42,1.21,.37,1.62,.48-1.4,1.61-1.77,5.55-1.51,8.51l-1.37-.69c-.86,5.23-.26,11.16-.8,17.06,.84-2.07,3.27-1.37,3.36,.37l-2.24,.52c1.26,1.23,.97-1.74,2.43,.69-.44,2.18-2.6,1.28-3.21-.04l.54,2.74c-.66,.11-.96-.55-1.78-.78,1.27,1.21-2.54,4.47-.31,6.24l-.66,.1c-.47,5.91,.07,8.65-.15,13.47,1.88,.23,1.33,2.08,2.75,3.62-.85,3.49-2.61,7.32-2.7,11.6,.75,3.06,1.54,.98,2.58,2.39-1.73,.11-1.83,4.38-2.93,2.1-.03,5.14-.07,6.56,.99,13.11,.74-.66,1.09-1.44,1.65-1,.22,1.19-.86,2.63-1.68,2.42l-.16-.32c2.16,7.39-5.85,16.54-2.52,22.51l-.16-.33,1.62,6.08c-.4,2.75-1.23-1.71-2.37,.29,2.64,6.59-.81,10.23,.94,15.64-5.18,3.99-.09,14.68-3.39,20.19l1.2-.3c1.14,1.47-.72,1.73-1.01,2.79,.93-.13,1.1-1.55,1.74-.64,.31,3.06,.31,6.17,.15,9.3-.14,3.13-.47,6.29-.87,9.47-.84,6.34-1.87,12.74-2.41,19.02-.31,4.6,6.16,2.57,3.38,8.37l-2.24-1.62c1.38,4.62,1.41,9.35,1.39,14.06,.02,4.71,0,9.4,1.23,13.9-.52-.53-1.19-.53-1.2-1.41-1.58,1.96,.08,7.09,1.41,7.08-.1,1.42-1.18,.36-1.82,1.25-.89,1.95,2.22,4.76,.65,5.83-.25,.18-.54-.52-.68-.87,.82,1.23,0,5.84,1.82,4.58-.79,3.44,1.06,6.47,.09,9.23,2.16,1.68-.74,5.87,2.23,6.29-3.04-.1-2.2,6.08-.62,8.15-.96-.67-.84,1.92-2.16,1.14,.18,2.45,.88,4.67,2.41,4.15-3.36,4.74,3.42,8.89-1.03,11.73,2.16,7.18,3.67,13.83,4.97,20.3-3.03,.01-.92-7.2-4.04-6.68,1.74,6.12,4.65,9.48,4.44,15.68-.28,1.63-1.39-.79-1.95-1.28,1.76,6.09,.88,12.01,3.04,17.36-.28,.01-.65-.55-.93-1.09,.2,1.08-.19,2.57,1.16,2.31l-.48-1.02c1.81-1.93,4.58,3.87,5.67,3.94-4.13-1.41-.37,5.53-5.66,3.15,.34,.69,1.09,1.51,1.99,1.24-.15,1.09-.64,1.48-1.81,.53,1.19,3.8,2.48,2.25,2.85,5.77-.66,.07-1-.61-1.82-.89,1.5,1.63,2.98,3.27,2.78,6.3-.42-.13-.9,.28-1-.61,.86,5.08,4.56,8.24,4.03,13.98-3.09-1.26-.7,2.03-3.15,2.66l1.18,2.9,1.03-1.37c.34,2.63,2.49,4.69,2,7.06l-1.31-1.8,1.19,4.85,.53-2.92c1.67,2.46,3.1-.75,2.92,2.84-.36-.67,.35,2.62-.91,4.21,0,0,0,0,0,0,.99,1.17,2.05,2.37,1.75,4.4-.71,.63-2.81,.03-3.28,.44,2.28,.95,1.58,6.04,4.04,7.29-.61-.45-1.91-.26-2.15-.04l1.86,.79c-.34,1.3-.57,1.52-1.64,1.5,.29,3.7,2.94-1.69,2.31,2.86-.2-.31-.42-.11-.8-.77,.08,4.46,2.59,8.17,2.48,12.3-2.27,1.64-1.24-3.37-3.09-1.63,1.45,5.69,5.25,11.31,5.78,16.95l.07-1.09c3.65,.04-.91,4.48,1.33,6.93-.41-.63-2.13-.48-1.7-.38,.28,3.9,2.58,7.55,4.94,13.01l-1.05-.5c-.33,2.41,.91,5.96,1.09,8.45,1.06,.5,1.25,1.9,2.34,.75-1.62,4.3-.12,7.68,1.56,10.87,1.69,3.2,3.46,6.23,2.24,10.06-.22-.78-1.27-1.65-1.11-1.02l2.31,5.32c1.37-.86,.71-.98,1.56-2.47,1.07,.46,2.18,1.82,2.59,3.17-1.71-2.19-2.39,.7-2.91,2.01,.4-.31,1.02-.09,1.46-.31-1.81,3.64,3.14-.38,2.5,4.05l-.84,.02c.83,1.35,2.26,2.39,2.5,4.04-1.53,1.17-1.26-1.32-2.71-1,.77,2.2,4.51,3.4,3.45,5.92-.79-.78-1.19-2.14-1.94-2.94-1.38,2.81-.78,2.91-.58,4.62v-.17l.29,4.04,.24-1.13c5.35,1.35,2.62,5.38,6.73,8.14-3.91-2.7-1.79-.07-3.8,.3-.23,1.13-.36,2.78-1.04,2.55,2.17,1.23-.2,3.35,2.93,5.04-.58,.33,.59,1.89-1.1,2.04,1.28,2.11,.89-.92,1.73-.99,3.34,2.74,.28,9.19,5.12,13.12,2.82,3.86,5.18,3.86,7.72,7.42-.45,1.72-2.64-.22-2.64-.22-.09,2.53,.8,4.06,2.32,5.8-.7-.19-.97,.41-1.4,1.31,.83,1.56,2.66,.18,2.65,2.69-.83-.09-2.1-.11-3.1-.62,1.35,1.69,3.26,3.11,4.63,4.86-.83,.97-2.09-.52-3.07-.93,.7,1.02,1.53,2.37,2.45,3.45,.94,1.07,1.95,1.88,2.92,1.86l-.04-1.67c.44,.76-1.24,1.03-1.81,.57-2.17-1.32-.59-2.99-.04-3.35l.97,1.24c2.94-2.96-2.9-5.4-3.88-8.34l3.07,.12-3.35-2.02c.42-.89,1.69-1.9,2.66-.66,.45-2.54-1.66-1.42-.95-3.73,.14-.28,.3-.24,.48-.11-.54-.55-1.04-1.12-1.55-1.68,.7,.18,1.71-1.05,1.8,.32,.15-4.15-4.15-5.01-2.68-7.12l.27,.24c-2.77-4.63-2.1,.25-5.78-2.65l3.79-4.26-2.11,.21c-.11-.54-.32-1.62,.51-1.71-1.99-1.45-.72,.63-2.36-.04,.89-3.12-3.23-6.6-.34-8.23-1.79-.39-.3,2.78-2.26,.47,3.07-1.9-1.67-2.88-.89-5.69,1.93,.14,1.79,2.59,2.53-.2-3.35-.42-.79-4.67-1.97-6.41-2.35,.66-2.32-3.89-4.13-6.89,.81-.02-.54-6.54-.59-9.82l.42-.03c-2.54,.11-3.02-3.17-4.18-5.31,1.45-.31,2.13-.06,3.13,.99l-.64-2.14c-.92-.29-1.48-.85-2.14-2.18l1.92,.05c-.87-2.84-3.65-5.21-3.45-9.23-1.72,.22-3.84,4.18-6.01,.53,.86-.38,2.36-.93,3.01,0-.21-.3-1.07-1-.87-1.78l1.93,1.17c.21-1.86-1.5-.55-1.72-1.94,1.29-.31,.65-1.24,1.72-1.3,.22,.31-.21,1.31,.43,1.7-.19-1.58,.1-3.61,.94-4.47-.7,.32-1.73,.44-2.17-.64-.8-2.87,1.31-1.38,1.56-3.23-1.07-.48-.59-2.55-2.53-2.12-.2-.85,.66-1.22,1.1-1.68-1.22-1.29-1.95-6.92-3.59-4.75l-.04,.42c-.06-.06-.08-.15-.14-.23h0c-3.06-4.49-1.2-10.5-3.13-15.21l.65-.13c-1.4-2.76-1.77-6.43-3.61-8.25-.17-.87,.77-2.29,1.62-2.08-.94-2.14-1.72-2.26-1.3-5.71,1.59,2.03,.85-.97,1.3,2.15-.02-3.02,.87-3.87-1.47-6.68,1.86,.75,1.7-2.59,.95-3.89l-.82,2.27c-.53-1.52-.63-2.91-.74-4.32l2.34,.35c.8-3.22-.83-5.7-2.2-8.06-1.33-2.36-2.4-4.6-.53-7.25-1.8-1.33-.55,3.43-2.59,2.32-.15-2.82,2.54-6.2,2.41-7.06,.61-3.96-3.83-3.01-3.56-7.11-.71,.63-2.75,1.43-3.92-1.44-.11-2.83,2.81-3.9,3.7-2.24,.16,.65-.04,1.01-.31,1.02,.42,.85,.93,1.97,1.62,.75l-.84-.24c.6-1.49-.04-5.28,1.39-4.58-1.06-1.98-1.42-.71-1.61,.9,.64-3.71-.8-5.54-.51-9.31-.36,.64-1.22,1.3-1.29,.72,.28-5.51-1.8-2.16-2.62-5.77,.94-2.23,2.97,.37,1.49-3.17,.53-2.34,2.04-.74,2.8,.06-1.95-3.14,.18-6.35,.25-8.28l.84,1.68c-.51-1-.59-1.86-.69-2.74l-1.47,1.19c.16-1.07,.07-1.94,.73-2-1.16-.94-2.54,1.13-4.2-.82,.65-1.47-1.34-4.11,.71-4.82-.22,4.42,2.06-.72,2.81,2.91-.33-.68-.42-1.54-.26-2.61,.22-.18,.45,.1,.6,.37,1.41-4.35-2.59-1.63-3.03-5.94,1.25,.42,2.14-1.24,1.8-1.91,.17,1.73-1.89,1.04-2.97-.45,.65-2.86-.98-2.93-1.02-4.39l-.27,1.7c-1.24-.44-1.22-1.84-1.79-3.73,.91-.26,.81,1.69,1.15,.96-2.3-1.94,1.68-5.05-.02-7.89,.67-1.46,2.22-.34,2.64-1.6-1.87-3.2,1.31-3.76-.27-7.16-1.51,1.15-1.11,1.3-2.87-1.05l1.61,5.68-2.63-3.51c.12,1.75,1.31,3.6,1.13,4.67-1.45-1.65-1.04-1.51-2.29-.55,2.19-2.61-1.79-4.62-.41-7.53l3.96-.25c1.43-4.29-2.69-7.2-2.05-12.68l-.57,1.79c-1.62-.61-.45-3.32-1.22-5.02,1.34,.07,1.74-1.06,2.51-1.86-.98,.16-.19-3.95-2.87-4.27l1.57-2.52c.44-4.4-4.06-4.74-3.86-8.98,1.51,1.18,2.34-.78,3.53,1.97-.07-1.4,.1-2.67-.82-2.64,.78-.86-2.01-3.78-.82-5.14-.62-.56-2.01-.68-2-2.26,.26-.19,.65-.03,.65-.03-.66,.03-1-2.42-2.41-.97,3.94-4.53-.85-12.09,2.53-16-.55-3.04-1.1-6.72-1.29-9.5,.4,.17,.66-.01,.54,.52,1.11-3.87-3.89-2.24-2.65-6.65,2.07-2.29,1.24,2.29,2,.87,4.33-.73-.74-5.25,1.74-8.26l.27,.7c1.43-2.28-1.77-5.44-1.54-9.12,0,0,.39,.17,.66,0-2.3-2.47-3.06-7.22-3.73-10.75,1.72,1.08,.92,1.6,2.65,.9-.26-1.58-2.78,.5-3.3-2.66,.92-1.04,1.72-3.33,3.56-3.64l.13,2.98c2.38-1.55-.12-3.85,.27-5.43l1.05,.19c-.36-4.56-2.99-4.62-2.81-9.53l-.79,.51c-2.61-2.69,1.47-2.25-.48-4.93l2.65-.8c-.66-1.77-2.54-6.21-3-9.4,1.96,1.82,2.91,5.54,4.08,7.84,0-1.75-.15-5.96-1.45-6.88,.25,.71,.89,1.6,.48,2.3-2.06-2.17-3.06-5.01-2.99-8.52,2.57,.34,2.91-1.94,3.12-4.61,.23-2.67,.32-5.74,2.34-6.97-.89-3.11-.63-6.17-.17-9.35,.48-3.18,1.18-6.48,1.13-10.08-4.07,2.44-.05-2.1-4.17-1.78-.22-1.69-.13-2.33,.14-2.47l2.62-5.01c1.24-1.16,.85,1.62,1.77,1.5,.45-3.66,1.8-1.48,2.98-3.87-1.49,.45-2.06-1.35-1.42-3.42l-2,2.88c-2-5.21,3.61-4.3,1.64-9.55l1.23,1.68c-.69-2.68,.45-9.76-2.74-12.52,.5-.45,1.65-1.01,1.89,.17,.76-6.3-2.8-14.28-.51-19.1l.98,.54c-.23-1.2-1.77-2.16-.69-3.59,.41,.1,.98,.53,1.06-.01-.32-.64-1.57-3.24-.89-4.77l1.05,1.4c1.7-6.09-2.18-9.65-2.52-14.88,2.95,.21,4.24-4.59,4.89-6.97l.41,.11c.84-7.16-1.56-12.38-2.21-19.13,3.5-3.88,2.48-13.88,4.84-20.36-.63,.97-2.28-.37-2.47-1.57,.74-1.5-1.65-4.49,1.03-4l-.1,.55c2.76-.93,2.34-4.19,2.64-6.68l-3.5-.74c5.76-6.04-.25-17.31,4.74-20.41-.72-1.66-.51-3.61-1.23-5.27l1.88,.28c.93-4.31,1.41-6.46,1.55-11.89l1.23,1.25c.45-3.02-5.03-4.44-4.83-7.26l2.91-.53c.57-5.31,3.66-10.38,1.72-15.92,.4,.14,1.2,.39,1.21,1.26,.38-2.49,3.08-9.41-.9-8.98,2.52,.25,.91-5.43,.17-8.43l1.8,.68c-2.07-2.71-2.71-2.87-2.93-6.33,.34-.77,1.58-.51,.97,.49,1.31-2.54-1.5-2.3-.09-5.4l1.03,1.36c.51-2.72-.16-2.58-1.34-4.28-.52-1.82,1.16-5.14,2.89-5.32-.97-.51-2.15-2.19-1.44-3.74,.66-.13,.98,.51,1.13,.83,1.89-4.4-1.22-7.1,1.04-10,.62,.02,.96-.14,1.18-.38-.55,3.63-1.05,6.54-1.15,6.25,1.71,.23,2.41-2.66,4.45,0-.96-2.53-3.22-6.95-2-9.69,.19-.12,.37-.23,.65-.29l.15,.32c.26-.64,.19-1.25-.02-1.85,.41-.87,.7-1.42,.85-2.29,1.46-.14,1.24-3.25,1.52-4.7-1.89-.15-1.31-2.02-3.11-.45,.17-.21,.18,.31,.12,1.29,.02,.23,.01,.49,.1,.65-.05-.04-.1-.08-.15-.12-.08,.97-.22,2.23-.4,3.65-.78-1.29-1.41-2.61-.14-4.08-1.09-.92-2.21-1.93-2.72-2.48,2.9-1.63,4.88-5.27,6.57-5.57-.4-4.62,.88-10.6-2.19-13.95-.26-1.34,1.23-1.3,1.85-1.69,.24,.79,.05,1.65,.5,2.12-.52-2.68,.81-7.56-1.54-8.55,1.61-3.02,1.97,2.15,2.26-2.3l.66,.71c5.27-7.99-3.99-15.05,2.62-23.79-.42,.61-.62,.92-1.05,.98,4.04-10.51,1.79-22.82,7.26-32.91,1.26-2.92-.23-3.53-1.06-5.61l2.12-.29-1.7-3.61c-.83-4.84,6.37-6.86,4.31-13.17l-1.49,.47c.66-1.99,.5-6.64,1.97-5.99-.2-.26-1.26-.95-.4-1.61l1.05,.15-.76-5.38c1.56-3.73,4,1.46,5.38-4.15,.04-2.18-1.74-6.6-2.6-5.97-.24,.82-1.12,2.02-2.17,1.86l-.12-2.04c-2.97-1.03-5.78-3.23-8.96,1.12l1.17,3.73-1.71,.76,.5-2.82c-1.74,1.3-.71,2.57-.09,3.87-.85,.1-1.5,.46-1.93,1.06l2.26,3.87c-1.28,.15-2.08-1.95-3.19,.11,1.05,1.81,2.99-.92,3.37,1.79-1.71,1.31-2.76,.62-1.94,2.72-.84,.1-1.27-.39-1.46-1.2,.61,1.85-.47,4.48,.99,5.66-2.05,1.32-.65,5.7-3.52,4.97,.59,.66,1.72,3.37,1.55,4.92-2.95-3.46-1.3,5.68-4.89,4.24,2.74,2.66,0,7.74,1.07,11.72-.21-.25-.64-.75-.42-1.04-.64,2.02-1.7,2.44-2.52,3.66,2.54,.73,2.56,4.05,3.85,6.07-2.95,2.08-2.77-2.08-5.31-1.71,2.12,.25,1.31,4.77,3.22,4.22-1.89,1.66-1.04,1.53-3.37,2.15,3.18,.91,.24,1.9,1.94,3.85-2.09,2.52-3.17,.19-2.71,3.44-1.24,1.3-1.92-1.64-1.92-1.64Zm-5.87,74.29h-.04l.11-1.54-.07,1.54Zm-.83,6.18c.18-.74,.32-1.68,.44-2.67,.67-.13,1.31,.2,1.19,.82-.39-.4-.96,1.01-1.63,1.85Zm14.8-11.2c.13,1.01-.29,1.28-.69,1.36,.03-.46,.05-1.01,.02-1.73-.07-.04-.14-.11-.21-.15,.34,.14,.66,.3,.88,.52Z"/><path class="e" d="M275.45,253.79c-.02-.15-.09-.24-.08-.42-.19,.17-.36,.34-.5,.52l.54,.43,.05-.53Z"/><path class="e" d="M275.61,813.47v-.14c-.04,.12-.08,.24-.19,.33,.07-.11,.13-.12,.19-.19Z"/><polygon class="e" points="248.98 352.22 249.46 352.26 249.1 351.68 248.98 352.22"/><path class="e" d="M277.97,848.29c-.14,.11-.27,.28-.34,.57,.11-.05,.22-.29,.34-.57Z"/><path class="e" d="M281.81,862.69v2.21c.09-.98,.06-1.67,0-2.21Z"/><path class="e" d="M284.42,873.89c.36,.03,.61,0,.84-.04,0-.01,0-.02,0-.03l-.84,.07Z"/><path class="e" d="M246.24,695.98c-.03-.15-.07-.3-.13-.43-.47-.99-.25-.31,.13,.43Z"/><path class="e" d="M257.44,749.1c-.42-.51-.84-1.02-1.13-1.58,0,.97,.07,1.72,1.13,1.58Z"/><path class="e" d="M239.3,635.79s.02,0,.03,0c-.01-.13-.01-.24-.02-.37v.37Z"/><path class="e" d="M255.98,745.02c-.23,1.01-.04,1.79,.33,2.49,.01-.8,.07-1.75-.33-2.49Z"/><path class="e" d="M301.3,920.77l.16,.54c.11-.06,.22-.07,.31-.06l-.46-.48Z"/><path class="e" d="M301.76,921.25l.46,.47c-.12-.26-.23-.48-.46-.47Z"/><path class="e" d="M303.19,922.71l-.97-.99c.18,.41,.35,.94,.97,.99Z"/><path class="e" d="M296.25,906.37l-.7,.09c.17,.04,.4,0,.7-.09Z"/><path class="e" d="M294.39,902.14c.26,1.08-.4,3.13,.6,4.4l.56-.07c-1.25-.29,.29-3.77-1.16-4.33Z"/><path class="e" d="M295.7,881.24l.74,3.79c.47-.88,1.1-2.03,1.84-.46,.47-5.26-1.21,1.49-2.58-3.33Z"/><path class="e" d="M292.89,869.71c.95,1.84,1-.35,1.42-.38-1.03-1.03-1.28-1.28-1.42,.38Z"/><path class="e" d="M271.44,787.03l1.73-.14c-.55-1.5-.66,.12-1.73,.14Z"/><polygon class="e" points="259.64 772.53 258.87 774.26 260.55 774.7 259.64 772.53"/><polygon class="e" points="270.02 760.88 270.37 761.52 269.33 759.03 270.02 760.88"/><path class="e" d="M255.08,618.27l-2.09,.57c.43,1.05,2.81,1.18,2.09-.57Z"/><path class="e" d="M251.64,556.23c1.06-.68,1.74-2.42,.7-3.5-.14,1.4-.97,2.79-.7,3.5Z"/><polygon class="e" points="264.25 370.34 264.84 371.65 264.48 369.25 264.25 370.34"/></g><g><path class="e" d="M408.9,944.59c.7,.17,1.81-.55,1.13-1.56l-2.37,.06,1.24,1.5Z"/><path class="e" d="M409.75,935.59c-1.52-.9-3.88-1.72-5.45-.14,2.51,.52,1.8,1.16,4.72,1.61,.68,1.01,.11,2.2-.73,2.32,.68,.18,.23,1.91,1.76,1.98,1.02-2.1,.37-3.93-1.72-5.31,.29-.59,.99-.4,1.41-.46Z"/><path class="e" d="M382.55,823.23l-.12,.78c.11-.23,.14-.49,.12-.78Z"/><path class="e" d="M373.53,752.23c.11,.54,.35,.74,.56,.74-.2-.49-.38-.89-.56-.74Z"/><path class="e" d="M374.7,739.83c-.04,.27-.05,.49-.08,.73,.18-.29,.26-.58,.08-.73Z"/><path class="e" d="M382.55,823.23l.34-2c-.74,0-.35,1.06-.34,2Z"/><path class="e" d="M399.09,922.39c.24,.35,.55,.6,.91,.8-.2-.28-.39-.56-.56-.85-.12,.02-.22,.04-.35,.06Z"/><path class="e" d="M390.62,853.74l.13,.56c.28,.11,.62,.2,.99,.27l-1.12-.83Z"/><path class="e" d="M396.66,877.09c-.06-.55-1.94-.25-2.79-.24,.83,.1,1.3,.4,1.57,.82,.35-.08,.75-.26,1.23-.58Z"/><path class="e" d="M404.52,914.71l.46,.56c-.13-.14-.3-.4-.46-.56Z"/><path class="e" d="M387.41,836.76c.27-.1,.49-.23,.62-.35-.23,.05-.43,.18-.62,.35Z"/><path class="e" d="M386.13,159.65c.13,.04,.22,.03,.33,.05-.17-.17-.29-.23-.33-.05Z"/><path class="e" d="M399.82,133.24l.03,.4c.35,.1,.68,.2,1.03,.26l-1.06-.66Z"/><path class="e" d="M375.12,717.39s-.02,.06-.03,.1c.26,.57,.2,.24,.03-.1Z"/><path class="e" d="M369.88,512.44c-1.76,2.27-2.05-3.86-4.03-.41,.75-.3,2.84,3.28,4.03,.41Z"/><path class="e" d="M399.1,921.71c-.13-.31-.26-.62-.36-.94,.1,.45,.21,.74,.36,.94Z"/><path class="e" d="M365.85,512.03h-.01l-.19,.36,.2-.36Z"/><path class="e" d="M370.76,666.15c-.33,.12-.57,.34-.8,.56,.19-.03,.42-.16,.8-.56Z"/><path class="e" d="M370.3,704.6l.19-.97c-.15,.39-.19,.7-.19,.97Z"/><path class="e" d="M367.31,646.34c.13-.52,.38-.71,.1-1.4-.09,.07-.16,.14-.22,.22,.27,.25,.4,.58,.12,1.18Z"/><path class="e" d="M366.72,625.59c-.14,.11-.25,.26-.37,.39l.12,.66,.25-1.05Z"/><path class="e" d="M378.2,222.64c.59-.39,1.2-.59,1.81-.74-1.37,.15-1.45-2.96-1.81,.74Z"/><path class="e" d="M400.08,922.02c-.49,.04-.77-.05-.98-.32,.1,.22,.22,.43,.33,.63,.29-.04,.54-.11,.65-.31Z"/><path class="e" d="M352.39,645.99l.16-3.33c-.15,.94-.21,2.15-.16,3.33Z"/><path class="e" d="M362.62,371.58l-.16-.78c-.07,.29-.04,.56,.16,.78Z"/><path class="e" d="M352.01,632.8c.65-.61,1.02-1.25,1.26-1.9-.15-.13-.28-.29-.5-.37l-.76,2.28Z"/><path class="e" d="M380.03,221.89s-.02,0-.02,0c0,0,.01,0,.02,0Z"/><path class="e" d="M378.48,199.64c-.49,3.13,2.2,1.8,3.52,2.66,.2,3.83-2.04,1.48-3.47,2.59,.34,2.43,2.35,4.52,2.02,6.25-.42,.08-.62,.39-1.07-.07,1.63,2.73-.87,7.34,1.21,10.54-.25,.19-.47,.27-.66,.3,1.29-.31,2.56-.21,3.44,0-.14,1.41,1.22,2.8-.46,3.12,.16-.85-.48-1.01-.93-1.48l.51,1.56c-2.48,1.03-.54-2.11-2.25-2.33,.38,2.97,1.87,6.55,.93,8.67-2.32,.17-.1-5.24-2.49-2.56l1.3-3.29c-3.9,2.14,.51-2.04-3.61-.14-1.23,4.4,.5,5.16-.71,9.55,1.13,1.16,1.9-.1,3.04,1.07,1.47,6.63-6.32,4.29-3.88,9.34,1.36,1.4,4.17,2.21,2.25,5.35l-2.42-1.44c-.78,4.31,3.38,2.92,1.11,7.26-.91-.93-.44-3.51-.82-2.89-2.38,2.7,1.2,2.26,.94,4.52l-2.32,.2c-.19,4.67,.85,9.95,.69,15.12-.64-.36-1.25-1.32-2.08-.2,.39,6.59-1.82,13.76-3.85,19.86l1.71,2.59c-.08,.55-.99,.93-1.31,.29-1,2.35,1.23,.26,1.88,1.51,0,1.4-1.32,1.71-1.82,.77,1.2,4.47,2.3,12.59-.25,16.9l-.49-.94c-1.15,3.44,3.61,4.37,1.46,7.46l-.29-.66c-1.6,7.56-.62,16.17-4.11,21.73,2.72,1.37-1.96,7.46,1.95,8.3-2.34,4.19-2.94,2.88-4.79,8.92-.33,1.63,2.25,2.66,2.49,4.73l-2.07-.13,1.93,2.94-2.59,1.26,.37,1.95c.19-.75,1.06-1.54,1.65-1.37,.69,3.05-2.04,7.14-3.11,7.13l1.19,7.19c-.82-.22-1.01-1.43-1.47-2.4,1.81,3.93-2.23,.51-.57,4.11,.51-.43,1.21,.35,1.62,.46-1.38,1.62-1.71,5.53-1.39,8.47l-1.38-.66c-.74,5.21-.14,11.08-.57,16.96,.81-2.06,3.24-1.4,3.36,.34l-2.23,.54c1.28,1.21,.95-1.74,2.44,.66-.4,2.17-2.58,1.3-3.21,0l.58,2.72c-.66,.11-.96-.54-1.78-.76,1.28,1.19-2.51,4.46-.26,6.2l-.66,.11c-.42,5.87,.19,8.59-.01,13.38,1.88,.21,1.34,2.06,2.78,3.57-.83,3.48-2.51,7.3-2.6,11.54,.77,3.03,1.55,.96,2.59,2.36-1.73,.12-1.81,4.36-2.92,2.1,0,5.1,0,6.52,1.07,13.02,.74-.66,1.08-1.43,1.65-1,.22,1.18-.86,2.62-1.67,2.41l-.16-.32c2.21,7.34-5.79,16.45-2.45,22.37l-.16-.33,1.64,6.04c-.4,2.73-1.23-1.7-2.37,.29,2.62,6.55-.81,10.16,.95,15.54-2.6,1.97-2.63,5.62-2.43,9.46,.22,3.84,.67,7.85-1.02,10.59l1.2-.29c1.14,1.46-.73,1.72-1.03,2.77,.93-.13,1.11-1.53,1.74-.63,1.15,12.17-2.21,25.03-3.39,37.51-.34,4.56,6.18,2.62,3.31,8.35l-2.22-1.64c2.61,9.2-.07,18.82,2.26,27.81-.52-.53-1.18-.54-1.18-1.42-1.61,1.92,.02,7.04,1.33,7.05-.13,1.4-1.18,.34-1.84,1.22-.92,1.92,2.13,4.76,.54,5.8-.26,.18-.53-.53-.66-.87,.8,1.23-.11,5.8,1.73,4.57-.82,3.4,.98,6.45-.06,9.17,2.12,1.7-.86,5.81,2.1,6.29-3.06-.16-2.28,6-.77,8.09-.94-.69-.89,1.89-2.19,1.09,.13,2.44,.77,4.66,2.31,4.17-3.5,4.63,3.26,8.91-1.28,11.63,.98,3.59,1.82,7.04,2.54,10.41,.74,3.36,1.39,6.64,1.92,9.87-3.04-.07-.7-7.17-3.86-6.73,1.6,6.12,4.37,9.53,4.01,15.69-.31,1.61-1.37-.82-1.92-1.32,1.66,6.09,.51,11.95,2.54,17.32-.28,0-.64-.56-.91-1.11,.17,1.07-.25,2.55,1.11,2.32l-.46-1.03c1.86-1.87,4.5,3.98,5.57,4.09-4.08-1.53-.57,5.48-5.77,2.96,.31,.69,1.03,1.53,1.94,1.3-.18,1.08-.69,1.45-1.82,.47,1.05,3.81,2.4,2.32,2.65,5.82-.67,.04-.98-.64-1.79-.94,1.42,1.67,2.89,3.34,2.6,6.34-.42-.14-.91,.25-.98-.64,.67,5.07,4.21,8.34,3.52,14.02-3.06-1.36-.75,1.99-3.22,2.53l1.06,2.92,1.09-1.33c.23,2.63,2.29,4.75,1.71,7.09l-1.23-1.84,.99,4.86,.66-2.88c1.56,2.51,3.13-.63,2.79,2.93-.34-.68,.28,2.61-1.03,4.14,0,0,0,0,0,0,.95,1.2,1.94,2.43,1.55,4.43-.74,.6-2.8-.08-3.29,.31,2.23,1.03,1.3,6.06,3.71,7.4-.59-.47-1.89-.34-2.14-.13l1.83,.86c-.38,1.28-.62,1.49-1.68,1.42,.18,3.68,3-1.56,2.22,2.93-.18-.32-.41-.13-.76-.8-.12,4.43,2.18,8.23,1.91,12.32-2.34,1.53-1.1-3.39-3.02-1.75,1.27,5.7,4.76,11.45,5,17.08l.11-1.08c3.62,.21-1.06,4.4,1.06,6.93-.37-.64-2.1-.58-1.68-.46,.03,1.94,.58,3.85,1.37,5.96,.78,2.11,1.82,4.43,2.92,7.19l-1.03-.55c-.39,2.37,.63,5.95,.66,8.44,1.03,.54,1.14,1.95,2.29,.86-1.91,4.2-.42,7.6,1.05,10.86,1.51,3.26,3.03,6.38,1.68,10.11-.19-.78-1.2-1.69-1.07-1.07l2.09,5.39c1.42-.78,.75-.94,1.67-2.37,1.06,.5,2.11,1.91,2.42,3.28-1.57-2.26-2.43,.58-3.02,1.85,.42-.29,1.02-.04,1.47-.24-2.03,3.53,3.15-.22,2.24,4.16l-.84-.02c.77,1.38,2.16,2.48,2.32,4.12-1.58,1.09-1.21-1.37-2.67-1.12,.66,2.22,4.4,3.59,3.17,6.04-.72-.83-1.07-2.19-1.79-3.02-1.5,2.71-.91,2.84-.83,4.56v-.17l.03,4.03,.31-1.11c5.21,1.62,2.36,5.47,6.33,8.41-3.8-2.87-1.79-.16-3.82,.1-.28,1.11-.49,2.74-1.16,2.48,2.07,1.33-.43,3.33,2.57,5.18-.6,.29,.51,1.91-1.19,1.97,1.19,2.16,.93-.86,1.78-.9,3.22,2.89-.12,9.12,4.41,13.29,2.64,3.97,5.01,4.08,7.37,7.73-.55,1.69-2.63-.35-2.63-.35-.18,2.49,.49,4.11,1.96,5.9-.69-.22-.99,.36-1.46,1.23,.76,1.59,2.65,.3,2.52,2.79-.82-.12-2.1-.21-3.07-.76,1.27,1.75,3.12,3.24,4.4,5.04-.88,.93-2.06-.61-3.02-1.06,1.31,2.09,3.08,5.51,5.08,5.53l.04-1.66c.41,.78-1.29,.97-1.83,.48-2.03-1.44-.42-3.01,.15-3.35l.91,1.28c3.07-2.8-2.65-5.5-3.49-8.46l3.07,.26-3.25-2.16c.46-.87,1.78-1.8,2.69-.53,.56-2.49-1.57-1.5-.71-3.76,.16-.27,.32-.23,.48-.08l-1.45-1.75c.69,.21,1.76-.96,1.79,.4,.34-4.11-3.92-5.17-2.35-7.18l.26,.25c-2.54-4.73-2.15,.16-5.62-2.92l4.06-4.06-2.11,.1c-.09-.54-.25-1.62,.59-1.67-1.93-1.53-.75,.59-2.36-.15,1.04-3.05-2.94-6.7,.05-8.18-1.76-.48-.47,2.75-2.28,.35,3.17-1.73-1.44-2.96-.52-5.72,1.94,.23,1.62,2.67,2.54-.07-3.34-.58-.58-4.67-1.68-6.45-1.18,.27-1.74-.72-2.16-2.17-.42-1.45-.73-3.35-1.54-4.9,.86,0-.26-6.51-.13-9.77h.42c-2.54-.03-2.8-3.31-3.82-5.51,1.46-.24,2.12,.05,3.05,1.15l-.5-2.16c-.89-.34-1.45-.92-2.04-2.27l1.92,.14c-.75-2.85-3.45-5.34-2.99-9.33-1.73,.14-4.08,3.97-6.02,.24,.88-.34,2.41-.81,2.99,.15-.19-.31-1-1.05-.76-1.82l1.86,1.26c.32-1.84-1.46-.62-1.6-2.02,1.31-.24,.72-1.2,1.79-1.21,.2,.32-.29,1.3,.32,1.71-.08-1.58,.31-3.59,1.17-4.4-.71,.28-1.75,.35-2.15-.74-.69-2.88,1.36-1.3,1.68-3.12-1.06-.52-.46-2.56-2.42-2.23-.15-.85,.73-1.19,1.2-1.62-1.14-1.34-1.55-6.98-3.31-4.9l-.06,.41c-.05-.06-.07-.15-.13-.23h0c-1.42-2.3-1.64-4.92-1.68-7.56-.02-2.65,.11-5.31-.72-7.7l.66-.1c-1.23-2.82-1.56-6.46-3.27-8.35-.13-.87,.89-2.24,1.73-1.99-.83-2.17-1.61-2.32-1.01-5.73,1.48,2.09,.9-.93,1.19,2.19,.13-3.01,1.08-3.82-1.19-6.7,1.85,.82,1.77-2.5,1.1-3.82l-.92,2.22c-.47-1.53-.49-2.92-.54-4.33l2.31,.45c1.92-6.33-6.07-10.19-2.09-15.34-1.74-1.4-.71,3.4-2.69,2.2-.03-2.81,2.81-6.07,2.72-6.93,.78-3.92-3.66-3.15-3.29-7.2-.72,.59-2.8,1.32-3.87-1.57,0-2.81,2.97-3.77,3.79-2.09,.14,.66-.08,1.01-.35,1.01,.38,.86,.84,2,1.59,.81l-.83-.27c.67-1.46,.18-5.26,1.58-4.5-.97-2.01-1.39-.76-1.64,.84,.78-3.67-.55-5.55-.16-9.28-.38,.62-1.25,1.25-1.3,.67,.42-5.46-1.74-2.21-2.44-5.82,1.02-2.18,2.96,.47,1.61-3.1,.62-2.31,2.06-.67,2.79,.16-1.83-3.19,.44-6.31,.55-8.24l.8,1.7c-.48-1.01-.54-1.87-.62-2.75l-1.5,1.14c.18-1.05,.11-1.93,.77-1.96-1.13-.97-2.58,1.04-4.17-.95,.7-1.44-1.2-4.13,.88-4.77-.38,4.39,2.08-.65,2.71,2.98-.31-.68-.36-1.55-.17-2.6,.22-.17,.45,.11,.59,.38,1.56-4.29-2.53-1.71-2.82-6.01,1.23,.45,2.18-1.17,1.87-1.85,.11,1.73-1.92,.98-2.95-.54,.71-2.82-.93-2.94-.92-4.4l-.32,1.68c-1.24-.47-1.17-1.86-1.67-3.76,.92-.23,.75,1.7,1.12,.99-2.23-1.99,1.84-4.98,.24-7.86,.71-1.43,2.23-.28,2.69-1.52-1.75-3.24,1.37-3.71-.09-7.13-1.54,1.1-1.14,1.26-2.84-1.12,.48,1.9,.96,3.8,1.47,5.7l-2.56-3.56c.06,1.75,1.24,3.61,1.03,4.67-1.42-1.68-1.01-1.53-2.28-.61,2.23-2.53-1.69-4.65-.22-7.5l3.97-.14c1.54-4.23-2.45-7.24-1.73-12.67l-.6,1.76c-1.62-.64-.37-3.31-1.09-5.02,1.33,.1,1.77-1.01,2.56-1.79-.98,.13-.09-3.94-2.75-4.31l1.64-2.48c.51-4.37-3.99-4.81-3.68-9.01,1.48,1.21,2.36-.73,3.49,2.03-.03-1.4,.16-2.66-.75-2.65,.8-.84-1.92-3.81-.7-5.13-.6-.57-2-.72-1.94-2.29,.26-.18,.65-.01,.65-.01-.65,.01-.97-2.43-2.4-1.01,3.98-4.43-.61-12.03,2.84-15.87-.53-3.04-1.01-6.7-1.15-9.47,.4,.17,.66,0,.53,.52,1.17-3.84-3.84-2.29-2.53-6.66,2.11-2.25,1.2,2.29,1.99,.9,4.36-.66-.7-5.24,1.85-8.19l.26,.7c1.47-2.25-1.69-5.44-1.4-9.09,0,0,.39,.18,.66,.02-2.25-2.48-3.01-7.22-3.61-10.73,1.71,1.09,.9,1.6,2.64,.93-.24-1.58-2.79,.46-3.27-2.69,.94-1.02,1.76-3.29,3.61-3.59l.09,2.97c2.4-1.51-.08-3.84,.34-5.4l1.05,.2c-.34-4.54-2.97-4.62-2.73-9.51l-.8,.5c-2.59-2.69,1.49-2.23-.42-4.91l2.66-.78c-.62-1.77-2.52-6.2-2.95-9.37,1.93,1.82,2.9,5.53,4.04,7.83,.04-1.75-.14-5.93-1.42-6.86,.25,.71,.87,1.6,.46,2.29-2.05-2.17-3.03-5.01-2.92-8.49,5.14,.71,1.43-9.05,5.51-11.49-1.73-6.19,1.08-12.18,1.02-19.34-4.08,2.42-.05-2.09-4.17-1.78-.21-1.68-.12-2.31,.15-2.45l2.61-4.98c1.23-1.16,.85,1.62,1.78,1.5,.43-3.64,1.78-1.47,2.96-3.85-1.49,.44-2.05-1.34-1.41-3.4l-2.01,2.86c-1.99-5.19,3.62-4.28,1.65-9.5l1.23,1.68c-.67-2.67,.4-9.72-2.77-12.45,.49-.45,1.64-1.01,1.89,.16,.77-6.28-2.88-14.2-.58-19.01l.98,.53c-.23-1.19-1.78-2.14-.7-3.57,.41,.1,.98,.53,1.06-.02-.31-.64-1.6-3.22-.93-4.75l1.06,1.39c1.64-6.08-2.22-9.59-2.62-14.79,2.95,.19,4.19-4.59,4.82-6.98l.41,.11c.82-7.13-1.7-12.31-2.39-19.02,3.47-3.9,2.3-13.84,4.6-20.32-.61,.97-2.29-.34-2.5-1.53,.71-1.51-1.72-4.45,.97-3.99l-.1,.55c2.74-.97,2.29-4.2,2.56-6.68l-3.51-.69c5.64-6.1-.49-17.21,4.41-20.38-.75-1.65-.56-3.59-1.31-5.22l1.89,.25c.87-4.3,1.29-6.45,1.33-11.87l1.25,1.22c.4-3.02-5.11-4.32-4.96-7.13l2.91-.58c.44-5.29,3.44-10.4,1.39-15.87,.4,.13,1.21,.36,1.24,1.23,.31-2.48,2.86-9.43-1.1-8.91,2.53,.19,.8-5.42-.02-8.4l1.82,.64c-2.14-2.65-2.78-2.8-3.08-6.23,.33-.77,1.56-.54,.98,.47,1.26-2.55-1.54-2.26-.21-5.37l1.06,1.33c.43-2.72-.23-2.57-1.45-4.22-.57-1.8,1.03-5.14,2.76-5.35-.99-.48-2.19-2.13-1.53-3.68,.66-.15,.99,.48,1.15,.8,1.77-4.43-1.42-7.04,.77-9.97,.62,0,.96-.17,1.17-.4-.46,3.62-.88,6.53-.99,6.24,1.72,.19,2.34-2.7,4.45-.11-1.04-2.49-3.38-6.83-2.25-9.59,.18-.12,.36-.24,.64-.31l.16,.32c.25-.64,.15-1.25-.07-1.84,.39-.88,.66-1.43,.79-2.3,1.45-.17,1.16-3.27,1.4-4.72-1.89-.1-1.36-1.97-3.12-.37,.16-.22,.19,.3,.16,1.28,.03,.23,.03,.49,.12,.65-.05-.03-.1-.08-.15-.12-.06,.96-.17,2.22-.3,3.64-.82-1.26-1.48-2.56-.25-4.06-1.12-.89-2.26-1.86-2.79-2.39,2.85-1.69,4.72-5.38,6.39-5.72-.52-4.58,.57-10.58-2.6-13.81-.29-1.32,1.19-1.33,1.8-1.74,.26,.78,.1,1.64,.56,2.1-.59-2.64,.58-7.55-1.8-8.46,1.51-3.05,2.04,2.08,2.19-2.36l.68,.69c5.03-8.11-4.48-14.84,1.84-23.74-.4,.62-.59,.93-1.02,1.01,3.67-10.59,.98-22.75,6.06-32.98,1.15-2.95-.36-3.5-1.28-5.54l2.1-.36-1.84-3.53c-1.02-4.77,6.09-7.07,3.77-13.26l-1.46,.53c.57-2.01,.21-6.62,1.72-6.03-.21-.25-1.3-.89-.47-1.58l1.06,.1-.99-5.32c1.39-3.77,4.06,1.28,5.19-4.36-.06-2.18-2.04-6.5-2.88-5.83-.2,.83-1.02,2.06-2.08,1.95l-.22-2.03c-3.02-.88-5.93-2.93-8.89,1.51l1.34,3.64-1.67,.83,.37-2.82c-1.67,1.36-.59,2.57,.08,3.84-.84,.14-1.47,.52-1.88,1.13l2.43,3.74c-1.27,.2-2.16-1.85-3.18,.24,1.13,1.75,2.94-1.04,3.44,1.64-1.65,1.37-2.73,.73-1.82,2.78-.84,.14-1.28-.34-1.51-1.13,.69,1.81-.28,4.47,1.23,5.58-2,1.39-.41,5.68-3.31,5.07,.62,.63,1.85,3.28,1.75,4.83-3.09-3.32-1.06,5.69-4.71,4.39,2.85,2.54,.3,7.68,1.53,11.6-.22-.24-.67-.72-.46-1.02-.56,2.02-1.6,2.49-2.38,3.73,2.56,.64,2.71,3.93,4.07,5.89-2.87,2.17-2.85-1.97-5.37-1.52,2.13,.17,1.49,4.69,3.37,4.08-1.83,1.72-.99,1.56-3.29,2.26,3.21,.79,.31,1.88,2.09,3.76-1.99,2.58-3.15,.3-2.59,3.51-1.2,1.33-1.98-1.57-1.98-1.57Zm-3.53,73.95h-.04c.03-.64,.05-1.18,.07-1.53l-.03,1.53Zm-.67,6.16c.16-.74,.28-1.67,.38-2.66,.67-.14,1.31,.17,1.21,.78-.4-.39-.93,1.02-1.59,1.88Zm14.49-11.52c.15,1-.25,1.28-.65,1.37,.02-.46,.02-1.01-.03-1.72-.07-.04-.14-.1-.22-.14,.35,.13,.67,.28,.9,.49Z"/><path class="e" d="M386.51,266.2c-.03-.15-.09-.23-.09-.42-.19,.18-.35,.35-.49,.53l.55,.41,.03-.53Z"/><path class="e" d="M382.41,824.15l.02-.14c-.05,.12-.11,.23-.21,.32,.07-.1,.13-.11,.2-.18Z"/><polygon class="e" points="362.26 364.61 362.74 364.64 362.37 364.07 362.26 364.61"/><path class="e" d="M382.97,858.86c-.15,.1-.29,.27-.37,.55,.12-.05,.24-.27,.37-.55Z"/><path class="e" d="M386.05,873.35l-.14,2.2c.15-.98,.17-1.66,.14-2.2Z"/><path class="e" d="M388.05,884.61c.36,.05,.61,.03,.84,0,0,0,0-.02,0-.02l-.85,.02Z"/><path class="e" d="M357.75,706.29c-.02-.15-.06-.3-.11-.43-.43-1-.24-.31,.11,.43Z"/><path class="e" d="M367.13,759.41c-.41-.53-.81-1.05-1.09-1.61-.03,.97,.02,1.71,1.09,1.61Z"/><path class="e" d="M352.37,646.36s.02,0,.03,0c-.01-.13,0-.24-.01-.37l-.02,.37Z"/><path class="e" d="M365.78,755.32c-.27,.99-.09,1.78,.26,2.49,.03-.79,.11-1.73-.26-2.49Z"/><path class="e" d="M402.41,932.06l.12,.55c.11-.05,.22-.06,.31-.05l-.43-.5Z"/><path class="e" d="M402.83,932.56l.44,.49c-.1-.26-.21-.48-.44-.49Z"/><path class="e" d="M404.19,934.08l-.92-1.03c.16,.42,.31,.95,.92,1.03Z"/><path class="e" d="M398.11,917.49l-.7,.06c.16,.04,.39,.03,.7-.06Z"/><path class="e" d="M396.48,913.19c.2,1.09-.52,3.08,.37,4.4l.56-.04c-1.19-.36,.49-3.74-.93-4.36Z"/><path class="e" d="M398.87,892.49l.57,3.79c.51-.85,1.2-1.96,1.86-.36,.71-5.19-1.28,1.41-2.43-3.43Z"/><path class="e" d="M396.72,880.88c.87,1.87,1.02-.3,1.44-.3-.98-1.07-1.23-1.33-1.44,.3Z"/><path class="e" d="M379.47,797.68l1.73-.06c-.48-1.52-.66,.09-1.73,.06Z"/><polygon class="e" points="368.33 782.78 367.47 784.46 369.13 784.97 368.33 782.78"/><polygon class="e" points="379.18 771.62 379.52 772.27 378.56 769.75 379.18 771.62"/><path class="e" d="M368.48,629.24l-2.1,.53c.41,1.06,2.79,1.22,2.1-.53Z"/><path class="e" d="M365.86,567.46c1.06-.67,1.76-2.4,.73-3.48-.16,1.39-1,2.77-.73,3.48Z"/><polygon class="e" points="377.83 382.4 378.44 383.69 378.03 381.31 377.83 382.4"/></g><g><path class="e" d="M524.59,947.5c.57,.43,1.89,.2,1.64-.98l-2.22-.85,.58,1.83Z"/><path class="e" d="M528.76,939.61c-1.07-1.39-2.95-3-5-2.12,2.13,1.39,1.23,1.71,3.77,3.21,.25,1.18-.73,2.05-1.54,1.85,.57,.42-.5,1.83,.89,2.47,1.73-1.52,1.81-3.46,.4-5.5,.49-.43,1.07,0,1.48,.1Z"/><path class="e" d="M532.75,824.51l-.27,.74c.15-.2,.23-.46,.27-.74Z"/><path class="e" d="M534.01,753.18c.05,.54,.27,.77,.48,.8-.15-.5-.28-.92-.48-.8Z"/><path class="e" d="M536.45,741c-.07,.26-.1,.48-.15,.72,.2-.27,.32-.55,.15-.72Z"/><path class="e" d="M532.75,824.51l.7-1.9c-.72-.13-.54,.98-.7,1.9Z"/><path class="e" d="M523.49,923.7c.1,.4,.31,.73,.58,1.04-.09-.33-.17-.65-.23-.97-.12-.02-.22-.03-.35-.07Z"/><path class="e" d="M534.47,855.96v.58c.25,.17,.56,.33,.9,.48l-.9-1.06Z"/><path class="e" d="M534.73,880.1c.09-.55-1.8-.74-2.63-.96,.78,.31,1.14,.72,1.29,1.2,.36,.01,.79-.06,1.34-.24Z"/><path class="e" d="M531.18,918.35l.26,.68c-.08-.18-.15-.48-.26-.68Z"/><path class="e" d="M534.92,838.69c.28-.04,.53-.13,.67-.22-.24,0-.46,.09-.67,.22Z"/><path class="e" d="M515.04,164c.13,.02,.22-.01,.34,0-.19-.14-.33-.18-.34,0Z"/><path class="e" d="M523.87,135.87l.11,.39c.36,.03,.71,.07,1.06,.06l-1.17-.45Z"/><path class="e" d="M538.83,718.71s-.02,.06-.04,.1c.22,.59,.18,.25,.04-.1Z"/><path class="e" d="M536.31,514.08c-1.67,2.33-2.2-3.75-4.05-.25,.74-.33,2.98,3.15,4.05,.25Z"/><path class="e" d="M523.74,923.08c-.02-.33-.03-.66-.01-.99-.07,.45-.06,.75,.01,.99Z"/><path class="e" d="M532.27,513.83h-.01l-.17,.36,.19-.36Z"/><path class="e" d="M537.54,667.35c-.33,.11-.58,.31-.82,.53,.19-.02,.43-.14,.82-.53Z"/><path class="e" d="M534.97,705.62l.25-.95c-.17,.38-.23,.68-.25,.95Z"/><path class="e" d="M534.79,647.49c.14-.52,.4-.69,.14-1.39-.1,.07-.16,.13-.23,.21,.26,.25,.38,.59,.08,1.18Z"/><path class="e" d="M534.67,626.82c-.14,.11-.25,.26-.38,.38l.1,.65,.27-1.04Z"/><path class="e" d="M517.01,226.79c.52-.46,1.11-.75,1.68-.98-1.34,.34-1.86-2.69-1.68,.98Z"/><path class="e" d="M524.55,923.7c-.47-.12-.71-.3-.81-.62,.02,.24,.06,.47,.1,.69,.28,.06,.55,.08,.71-.07Z"/><path class="e" d="M519.88,646.72l.26-3.28c-.18,.92-.27,2.11-.26,3.28Z"/><path class="e" d="M519.36,375.05l-.24-.75c-.04,.29,.02,.56,.24,.75Z"/><path class="e" d="M519.81,633.69c.66-.59,1.05-1.21,1.3-1.86-.15-.14-.27-.29-.49-.38l-.81,2.23Z"/><path class="e" d="M518.71,225.8s-.02,0-.02,0c0,0,.01,0,.02,0Z"/><path class="e" d="M513.88,204.25c0,3.13,2.45,1.43,3.89,2.07,.77,3.72-1.8,1.76-3.05,3.05,.7,2.32,3,4.07,2.93,5.81-.41,.14-.55,.48-1.07,.09,2.01,2.43,.21,7.32,2.74,10.15-.22,.22-.42,.33-.61,.39,1.24-.49,2.5-.58,3.4-.5,.06,1.4,1.61,2.58,0,3.13,.03-.86-.62-.92-1.13-1.32l.73,1.46c-2.31,1.36-.84-1.99-2.56-1.97,.8,2.85,2.79,6.16,2.16,8.37-2.27,.5-.85-5.12-2.83-2.16l.82-3.41c-3.56,2.65,.22-2.07-3.59,.38-.59,4.48,1.24,4.98,.65,9.45,1.28,.98,1.87-.36,3.15,.62,2.38,6.3-5.66,5.08-2.55,9.69,1.54,1.18,4.43,1.61,2.95,4.95l-2.6-1.09c-.19,4.33,3.75,2.41,2.08,6.98-1.03-.79-.91-3.39-1.2-2.73-1.99,2.97,1.49,2.06,1.53,4.31l-2.28,.5c.43,4.6,2.15,9.66,2.65,14.76-.68-.27-1.41-1.14-2.09,.07,1.23,6.42-.07,13.75-1.34,19.98l2,2.34c-.01,.55-.88,1.04-1.27,.44-.71,2.43,1.25,.11,2.04,1.26,.16,1.38-1.11,1.84-1.71,.97,1.73,4.25,3.77,12.12,1.72,16.65l-.6-.87c-.75,3.51,4.1,3.9,2.3,7.17l-.36-.62c-.75,7.62,1.17,16-1.73,21.84,2.85,1.07-1.17,7.54,2.79,7.98-1.91,4.37-2.63,3.13-3.88,9.27-.16,1.64,2.5,2.4,2.94,4.42l-2.07,.08,2.21,2.71-2.46,1.49,.55,1.89c.11-.76,.91-1.62,1.51-1.51,.97,2.95-1.35,7.23-2.41,7.32l1.84,6.98c-.83-.15-1.13-1.31-1.68-2.23,2.16,3.71-2.17,.7-.19,4.11,.47-.46,1.24,.23,1.66,.31-1.23,1.72-1.19,5.61-.63,8.48l-1.43-.54c-.3,5.2,.8,10.94,.84,16.76,.64-2.1,3.12-1.65,3.38,.06l-2.18,.71c1.37,1.09,.81-1.79,2.49,.45-.23,2.18-2.47,1.49-3.2,.25l.79,2.64c-.65,.16-1-.45-1.84-.61,1.37,1.07-2.15,4.59,.23,6.13l-.65,.16c.04,5.82,.83,8.46,.99,13.2,1.89,.07,1.49,1.93,3.03,3.33-.57,3.49-2.01,7.38-1.8,11.58,.97,2.94,1.61,.85,2.75,2.16-1.72,.23-1.51,4.43-2.77,2.27,.34,5.04,.41,6.44,1.87,12.8,.7-.7,1-1.48,1.59-1.08,.29,1.15-.7,2.64-1.53,2.48l-.18-.3c2.65,7.13-4.87,16.57-1.23,22.24l-.18-.32,1.92,5.89c-.27,2.72-1.31-1.62-2.36,.4,2.93,6.35-.32,10.08,1.64,15.31-5.04,4.11,.49,14.42-2.72,19.93l1.19-.33c1.18,1.41-.67,1.72-.94,2.77,.93-.16,1.06-1.55,1.72-.67,1.53,12-1.57,24.81-2.55,37.13-.29,4.51,6.2,2.51,3.39,8.21l-2.23-1.6c2.73,9.07,.04,18.59,2.34,27.47-.51-.53-1.18-.54-1.18-1.41-1.6,1.89-.04,6.95,1.27,6.97-.14,1.39-1.19,.33-1.85,1.19-.94,1.89,2.08,4.72,.48,5.73-.26,.17-.53-.53-.65-.87,.79,1.22-.17,5.72,1.69,4.54-.87,3.34,.86,6.38-.23,9.05,2.09,1.73-.97,5.72,1.97,6.26-3.04-.22-2.42,5.87-.98,7.97-.92-.7-.94,1.84-2.22,1.02,.06,2.41,.63,4.62,2.19,4.19-3.61,4.46,2.98,8.91-1.68,11.43,1.65,7.15,2.78,13.77,3.51,20.21-3.03-.22-.32-7.12-3.5-6.83,1.27,6.1,3.88,9.62,3.16,15.68-.41,1.57-1.32-.89-1.84-1.41,1.27,6.1-.24,11.8,1.43,17.23-.28-.01-.59-.6-.83-1.15,.1,1.07-.44,2.49,.94,2.37l-.38-1.04c1.99-1.71,4.19,4.24,5.25,4.43-3.95-1.81-.98,5.37-5.97,2.49,.26,.7,.92,1.59,1.84,1.42-.26,1.05-.8,1.38-1.85,.32,.76,3.83,2.22,2.47,2.2,5.94-.67-.01-.93-.71-1.71-1.07,1.3,1.76,2.61,3.52,2.06,6.46-.4-.18-.92,.17-.92-.71,.22,5.04,3.48,8.59,2.23,14.12-2.9-1.63-.95,1.88-3.46,2.18l.75,2.97,1.22-1.19c-.04,2.6,1.79,4.91,.97,7.15l-1.03-1.93,.48,4.88,.95-2.76c1.29,2.63,3.17-.29,2.48,3.18-.26-.7-.03,2.61-1.51,3.96,0,0,0,0,0,0,.8,1.29,1.64,2.61,1.02,4.54-.8,.5-2.77-.4-3.31-.08,2.1,1.27,.58,6.1,2.82,7.71-.52-.54-1.84-.56-2.11-.39l1.7,1.07c-.54,1.21-.81,1.38-1.86,1.19-.31,3.63,3.18-1.15,1.81,3.15-.14-.34-.39-.18-.65-.88-.71,4.33,1.08,8.36,.25,12.34-2.52,1.17-.62-3.47-2.75-2.13,.46,5.73,3.03,11.87,2.44,17.42l.28-1.03c3.57,.77-1.77,4.13-.09,6.94-.26-.69-1.97-.9-1.58-.72-.58,3.8,.86,7.77,1.96,13.53l-.91-.71c-.82,2.24-.49,5.89-.91,8.31,.91,.72,.76,2.1,2.09,1.27-5.23,7.44,2.76,14.23-1.6,20.84,0-.79-.8-1.89-.8-1.26l.83,5.64c1.55-.44,.94-.74,2.15-1.92,.92,.72,1.63,2.31,1.62,3.71-1.02-2.54-2.49,.01-3.36,1.1,.48-.18,1,.2,1.48,.1-2.77,2.93,3.12,.5,1.25,4.52l-.81-.22c.41,1.51,1.49,2.9,1.25,4.52-1.8,.67-.83-1.6-2.31-1.71,.1,2.28,3.39,4.51,1.6,6.56-.5-.97-.5-2.36-1-3.33-2.12,2.24-1.58,2.5-1.92,4.17l.05-.16-.97,3.85,.58-.98c4.66,2.87,.82,5.81,3.86,9.66-2.88-3.75-1.68-.63-3.71-.92-.57,.98-1.21,2.47-1.78,2.04,1.63,1.82-1.31,3.02,1.07,5.6-.66,.11-.08,1.94-1.72,1.52,.5,2.36,1.14-.55,1.96-.35,2.22,3.65-2.77,8.53,.27,13.78,1.24,4.52,3.44,5.37,4.52,9.56-1.06,1.41-2.38-1.17-2.38-1.17-.98,2.27-.81,3.99-.07,6.14-.57-.44-1.06,0-1.8,.66,.16,1.73,2.38,1.17,1.4,3.44-.73-.4-1.89-.9-2.62-1.74,.59,2.04,1.8,4.05,2.38,6.16-1.14,.55-1.72-1.28-2.47-2.03,.5,2.37,1,6.13,2.8,6.88l.65-1.51c.08,.86-1.55,.43-1.88-.21-1.4-2.04,.64-2.92,1.3-3.03l.41,1.5c3.85-1.51-.58-6.02-.34-9.04l2.79,1.28-2.3-3.11c.73-.65,2.3-1.09,2.7,.4,1.39-2.15-.98-1.92,.57-3.77,.24-.2,.37-.11,.49,.08l-.82-2.12c.58,.42,1.98-.34,1.56,.96,1.64-3.78-2.06-6.13,.07-7.54l.17,.32c-.91-5.27-2.05-.52-4.43-4.48l5.08-2.63-2.05-.53c.08-.54,.24-1.62,1.06-1.41-1.39-2.03-.89,.34-2.21-.84,1.88-2.6-.83-7.21,2.44-7.78-1.55-.95-1.22,2.49-2.28-.3,3.52-.78-.58-3.23,1.04-5.61,1.81,.74,.83,3,2.47,.62-3.06-1.45,.7-4.65,.13-6.66-2.44-.11-.99-4.38-1.8-7.76,.82,.22,1.36-6.35,2.25-9.49l.41,.09c-2.47-.62-1.99-3.86-2.5-6.22,1.48,.1,2.06,.52,2.72,1.81v-2.22c-.79-.53-1.21-1.22-1.49-2.66l1.84,.56c-.09-2.95-2.16-5.96-.91-9.75-1.72-.22-4.8,3.01-5.94-1.01,.93-.15,2.52-.29,2.9,.76-.12-.34-.77-1.23-.37-1.92l1.56,1.61c.69-1.73-1.31-.91-1.16-2.29,1.33,.03,.95-1.02,2-.82,.13,.35-.55,1.21-.03,1.74,.24-1.56,1.03-3.44,2.04-4.06-.75,.13-1.79,0-1.96-1.15-.09-2.95,1.6-1.01,2.29-2.73-.92-.72,.04-2.6-1.94-2.65,.01-.86,.94-1.02,1.48-1.35-.87-1.53-.23-7.14-2.34-5.42l-.14,.39c-.04-.07-.04-.16-.09-.25h0c-1.96-5.01,1.15-10.41,.31-15.38h.66c-.75-2.96-.43-6.6-1.86-8.72,0-.88,1.21-2.07,2-1.69-.5-2.27-1.24-2.52-.15-5.8,1.16,2.28,1.03-.79,.85,2.34,.57-2.95,1.63-3.61-.18-6.78,1.7,1.08,2.14-2.22,1.63-3.62l-1.21,2.07c-.25-1.58-.1-2.95,.05-4.35l2.24,.76c2.72-6.03-4.63-10.88-.08-15.47-1.56-1.6-1.1,3.28-2.93,1.85,.3-2.77,3.51-5.67,3.51-6.54,1.24-3.8-3.27-3.54-2.42-7.52-.8,.51-2.92,.99-3.68-1.98,.29-2.78,3.34-3.42,3.98-1.66,.07,.67-.19,.99-.46,.96,.29,.9,.63,2.07,1.5,.97l-.8-.36c.81-1.38,.73-5.2,2.03-4.3-.76-2.1-1.31-.9-1.72,.66,1.15-3.56,.03-5.56,.81-9.23-.44,.58-1.38,1.12-1.37,.54,.99-5.38-1.51-2.37-1.86-6.01,1.21-2.07,2.9,.74,1.88-2.93,.82-2.24,2.12-.48,2.77,.41-1.54-3.34,.99-6.25,1.27-8.15l.65,1.76c-.39-1.05-.38-1.91-.38-2.79l-1.59,1.01c.28-1.03,.28-1.91,.94-1.89-1.05-1.06-2.65,.82-4.08-1.29,.81-1.38-.88-4.19,1.23-4.67-.71,4.33,2.12-.48,2.48,3.18-.25-.71-.25-1.57,.03-2.61,.24-.16,.44,.15,.56,.43,1.88-4.15-2.4-1.9-2.36-6.2,1.19,.54,2.26-1,2-1.7-.02,1.73-1.99,.83-2.91-.75,.92-2.76-.7-2.99-.6-4.44l-.43,1.65c-1.19-.56-1.04-1.93-1.42-3.85,.93-.17,.64,1.74,1.05,1.06-2.1-2.13,2.16-4.82,.73-7.79,.8-1.38,2.24-.14,2.78-1.35-1.56-3.33,1.62-3.61,.34-7.11-1.6,1.01-1.21,1.19-2.78-1.27l1.15,5.75-2.34-3.69c-.02,1.74,1.02,3.66,.75,4.71-1.31-1.76-.91-1.58-2.24-.74,2.4-2.39-1.41-4.71,.2-7.46l3.97,.07c1.76-4.14-2.06-7.34-1.08-12.71l-.68,1.73c-1.58-.71-.23-3.31-.87-5.05,1.33,.16,1.81-.93,2.63-1.68-.98,.09,.08-3.93-2.57-4.41l1.74-2.4c.69-4.34-3.81-4.93-3.38-9.1,1.45,1.25,2.38-.65,3.42,2.14,0-1.39,.24-2.64-.68-2.66,.83-.82-1.81-3.85-.56-5.13-.59-.58-1.98-.77-1.87-2.33,.27-.17,.65,0,.65,0-.65,0-.9-2.44-2.36-1.07,4.12-4.3-.36-11.97,3.17-15.72-.46-3.03-.91-6.69-1.02-9.44,.4,.17,.66,0,.53,.53,1.21-3.81-3.82-2.32-2.47-6.65,2.13-2.22,1.17,2.29,1.98,.91,4.36-.62-.62-5.22,1.91-8.14l.26,.7c1.47-2.23-1.68-5.42-1.39-9.05,0,0,.39,.17,.66,.02-2.24-2.47-3.01-7.17-3.65-10.66,1.72,1.08,.92,1.58,2.65,.91-.26-1.57-2.78,.48-3.29-2.65,.93-1.02,1.73-3.29,3.58-3.6l.12,2.95c2.39-1.53-.11-3.82,.3-5.38l1.05,.19c-.37-4.52-3.01-4.57-2.86-9.43l-.79,.51c-2.63-2.64,1.46-2.24-.51-4.87l2.65-.82c-.65-1.75-2.61-6.12-3.13-9.26,1.98,1.77,3.01,5.44,4.2,7.7,0-1.74-.24-5.9-1.55-6.8,.26,.7,.92,1.58,.51,2.27-2.1-2.12-3.15-4.91-3.13-8.38,5.15,.57,1.23-9.03,5.2-11.58-1.95-6.11,.73-12.16,.35-19.29-3.98,2.56-.13-2.08-4.24-1.61-.28-1.66-.22-2.29,.05-2.44l2.41-5.06c1.19-1.2,.92,1.57,1.84,1.41,.28-3.64,1.73-1.54,2.8-3.96-1.46,.51-2.12-1.25-1.57-3.33l-1.87,2.94c-2.23-5.07,3.41-4.43,1.2-9.53l1.31,1.61c-.79-2.62-.06-9.7-3.39-12.25,.47-.47,1.59-1.09,1.9,.06,.44-6.29-3.64-13.96-1.65-18.87l1.01,.47c-.3-1.17-1.91-2.02-.91-3.5,.42,.07,1.01,.46,1.06-.08-.35-.62-1.79-3.1-1.22-4.66l1.14,1.32c1.25-6.15-2.85-9.38-3.6-14.52,2.96-.02,3.87-4.85,4.32-7.27l.42,.08c.29-7.14-2.58-12.1-3.81-18.7,3.17-4.14,1.19-13.92,2.92-20.53-.53,1.01-2.31-.14-2.62-1.31,.58-1.55-2.1-4.25,.61-4.04l-.05,.55c2.65-1.2,1.9-4.37,1.94-6.86l-3.55-.37c5.08-6.56-2.1-17,2.47-20.6-.91-1.56-.92-3.5-1.83-5.04l1.9,.06c.43-4.35,.64-6.52,.13-11.89l1.37,1.08c.08-3.03-5.53-3.75-5.68-6.55l2.83-.88c-.12-5.28,2.3-10.66-.34-15.85,.42,.08,1.24,.22,1.37,1.08,.04-2.49,1.79-9.65-2.09-8.69,2.54-.1,.17-5.45-.98-8.29l1.88,.42c-2.42-2.38-3.08-2.44-3.79-5.8,.23-.8,1.49-.72,1.02,.35,.94-2.67-1.8-2.04-.85-5.28l1.21,1.18c.11-2.73-.53-2.51-1.95-3.99-.77-1.71,.4-5.19,2.09-5.62-1.04-.35-2.44-1.83-1.98-3.45,.64-.23,1.04,.35,1.24,.65,1.21-4.59-2.28-6.76-.49-9.93,.62-.07,.93-.28,1.11-.55,0,3.63-.05,6.56-.19,6.28,1.73-.02,1.99-2.96,4.4-.66-1.34-2.34-4.22-6.32-3.45-9.19,.17-.14,.33-.28,.59-.39l.2,.29c.16-.66,0-1.25-.31-1.8,.27-.92,.47-1.5,.48-2.37,1.42-.36,.72-3.37,.77-4.84-1.89,.15-1.61-1.77-3.14,.05,.13-.23,.23,.27,.32,1.24,.06,.22,.09,.48,.2,.62-.05-.03-.11-.06-.17-.1,.07,.96,.13,2.21,.18,3.63-.98-1.14-1.8-2.34-.78-3.97-1.23-.73-2.48-1.54-3.08-2,2.6-2.04,3.97-5.92,5.59-6.48-1.13-4.45-.85-10.51-4.45-13.26-.48-1.26,.99-1.48,1.54-1.96,.37,.73,.33,1.6,.84,1.99-.95-2.52-.47-7.51-2.96-8.08,1.07-3.22,2.31,1.76,1.83-2.63l.77,.58c3.82-8.71-6.55-13.95-1.62-23.62-.3,.67-.44,1-.85,1.15,2.07-10.97-2.48-22.48,.89-33.33,.67-3.08-.92-3.38-2.16-5.23l2.02-.7-2.4-3.16c-1.8-4.5,4.84-7.94,1.49-13.63l-1.35,.77c.22-2.07-.92-6.52,.65-6.2-.25-.21-1.43-.65-.74-1.47l1.06-.08-1.91-5.03c.69-3.94,4.22,.53,4.32-5.2-.45-2.12-3.21-6.01-3.9-5.19-.04,.86-.62,2.21-1.68,2.3l-.59-1.94c-3.13-.29-6.37-1.72-8.46,3.1l1.98,3.29-1.5,1.1-.15-2.8c-1.4,1.62-.12,2.6,.77,3.71-.8,.28-1.36,.76-1.65,1.43l3.05,3.21c-1.22,.42-2.45-1.42-3.09,.79,1.42,1.51,2.72-1.52,3.67,1-1.39,1.62-2.56,1.18-1.31,3.02-.8,.28-1.32-.11-1.69-.84,1,1.65,.49,4.4,2.17,5.23-1.72,1.69,.56,5.61-2.41,5.5,.72,.51,2.38,2.89,2.53,4.42-3.59-2.73-.11,5.73-3.92,5.06,3.23,2.01,1.55,7.44,3.38,11.08-.26-.2-.78-.59-.62-.92-.23,2.07-1.18,2.68-1.76,4.02,2.64,.22,3.29,3.42,4.95,5.12-2.5,2.57-3.12-1.48-5.54-.65,2.13-.16,2.2,4.35,3.97,3.46-1.54,1.96-.73,1.68-2.9,2.71,3.3,.28,.59,1.79,2.64,3.36-1.57,2.82-3.07,.77-2.02,3.83-.98,1.48-2.19-1.23-2.19-1.23Zm6.83,72.98h-.04c-.05-.63-.1-1.16-.13-1.51l.17,1.51Zm.12,6.14c.06-.75,.06-1.68,.03-2.66,.65-.22,1.32,0,1.3,.62-.44-.33-.8,1.12-1.33,2.05Zm12.89-13.18c.28,.97-.08,1.3-.47,1.44-.04-.46-.11-.99-.25-1.7-.07-.03-.15-.08-.23-.11,.36,.09,.7,.19,.95,.37Z"/><path class="e" d="M531.22,268.47c-.04-.14-.12-.22-.14-.4-.16,.2-.3,.39-.42,.59l.6,.34-.04-.52Z"/><path class="e" d="M532.44,825.38l.04-.13c-.07,.11-.15,.21-.27,.27,.09-.09,.15-.09,.23-.14Z"/><polygon class="e" points="518.35 368.22 518.83 368.2 518.4 367.67 518.35 368.22"/><path class="e" d="M525.87,859.2c-.17,.06-.34,.19-.48,.44,.12-.02,.29-.21,.48-.44Z"/><path class="e" d="M525.41,873.81l-.68,2.06c.38-.89,.57-1.54,.68-2.06Z"/><path class="e" d="M524.41,885.04c.33,.14,.58,.19,.81,.22,0,0,0-.02,.01-.02l-.82-.2Z"/><path class="e" d="M522.33,706.42c-.01-.15-.04-.3-.09-.43-.37-1.02-.22-.33,.09,.43Z"/><path class="e" d="M526.83,759.57c-.34-.56-.68-1.12-.89-1.71-.14,.95-.18,1.68,.89,1.71Z"/><path class="e" d="M519.85,647.08s.02,0,.03,0c0-.13,0-.24,0-.37l-.03,.36Z"/><path class="e" d="M525.97,755.39c-.38,.95-.3,1.74-.03,2.47,.13-.78,.32-1.69,.03-2.47Z"/><path class="e" d="M523.25,933.72l-.08,.54c.13,0,.23,.02,.3,.07l-.22-.61Z"/><path class="e" d="M523.48,934.33l.22,.6c0-.28-.01-.52-.22-.6Z"/><path class="e" d="M524.17,936.2l-.47-1.27c0,.44-.07,.98,.47,1.27Z"/><path class="e" d="M524.22,918.85l-.68-.17c.14,.09,.36,.16,.68,.17Z"/><path class="e" d="M524.05,914.33c-.16,1.08-1.48,2.7-1.06,4.2l.54,.14c-1.01-.71,1.66-3.31,.51-4.35Z"/><path class="e" d="M532.63,895.52l-.57,3.79c.73-.66,1.72-1.52,1.88,.2,2.21-4.76-1.64,.98-1.31-3.99Z"/><path class="e" d="M533.76,883.78c.33,2.04,1.06-.02,1.47,.09-.66-1.29-.82-1.61-1.47-.09Z"/><path class="e" d="M534,798.88l1.72,.21c-.25-1.57-.67-.02-1.72-.21Z"/><polygon class="e" points="525.11 782.65 524.05 784.18 525.62 784.91 525.11 782.65"/><polygon class="e" points="537.35 773.07 537.6 773.75 536.97 771.14 537.35 773.07"/><path class="e" d="M536.36,630.48l-2.11,.49c.38,1.06,2.76,1.27,2.11-.49Z"/><path class="e" d="M533.83,568.95c1.05-.68,1.72-2.41,.67-3.47-.14,1.38-.95,2.77-.67,3.47Z"/><polygon class="e" points="535.52 384.33 536.25 385.56 535.63 383.24 535.52 384.33"/></g><g><path class="e" d="M618.68,943.83c.5,.51,1.84,.48,1.76-.73l-2.08-1.17,.32,1.9Z"/><path class="e" d="M623.9,936.59c-.86-1.54-2.5-3.41-4.65-2.82,1.91,1.68,.98,1.87,3.28,3.72,.08,1.21-1.01,1.93-1.79,1.61,.5,.5-.75,1.74,.54,2.58,1.92-1.26,2.28-3.18,1.17-5.41,.55-.36,1.06,.15,1.45,.31Z"/><path class="e" d="M640.92,822.07l-.33,.72c.16-.19,.27-.44,.33-.72Z"/><path class="e" d="M647.47,750.59c.02,.55,.22,.79,.42,.83-.11-.52-.22-.94-.42-.83Z"/><path class="e" d="M650.61,738.5c-.08,.26-.13,.48-.19,.71,.22-.26,.35-.53,.19-.71Z"/><path class="e" d="M640.92,822.07l.87-1.85c-.71-.2-.63,.93-.87,1.85Z"/><path class="e" d="M620.91,920.06c.05,.41,.21,.77,.43,1.11-.05-.34-.08-.66-.09-1-.12-.03-.22-.06-.34-.11Z"/><path class="e" d="M639.7,853.75l-.06,.58c.23,.2,.52,.39,.85,.58l-.79-1.16Z"/><path class="e" d="M637.4,877.95c.14-.54-1.71-.94-2.51-1.25,.74,.4,1.06,.84,1.16,1.34,.36,.05,.79,.03,1.36-.09Z"/><path class="e" d="M629.28,915.76l.16,.71c-.05-.19-.09-.49-.16-.71Z"/><path class="e" d="M641.8,836.48c.28-.01,.54-.08,.69-.16-.23-.02-.47,.04-.69,.16Z"/><path class="e" d="M628.03,159.1c.14,.01,.22-.02,.34-.02-.2-.13-.34-.16-.34,.02Z"/><path class="e" d="M635.32,130.42l.13,.38c.36,.01,.71,.03,1.06,0l-1.19-.38Z"/><path class="e" d="M654.24,716.21s-.02,.06-.04,.1c.18,.6,.16,.26,.04-.1Z"/><path class="e" d="M657.25,510.22c-1.68,2.34-2.19-3.79-4.05-.27,.74-.33,2.95,3.18,4.05,.27Z"/><path class="e" d="M621.25,919.48c.03-.33,.06-.66,.13-.98-.13,.44-.17,.74-.13,.98Z"/><path class="e" d="M653.2,509.95h-.01l-.18,.36,.19-.36Z"/><path class="e" d="M655.22,664.47c-.34,.09-.6,.29-.84,.5,.19-.01,.43-.12,.84-.5Z"/><path class="e" d="M651.02,702.85l.29-.94c-.19,.37-.26,.67-.29,.94Z"/><path class="e" d="M653.21,644.41c.16-.51,.42-.68,.19-1.4-.1,.06-.17,.13-.23,.21,.25,.26,.36,.61,.05,1.19Z"/><path class="e" d="M653.71,623.61c-.15,.11-.26,.25-.39,.37l.09,.66,.3-1.04Z"/><path class="e" d="M632.83,221.94c.51-.48,1.07-.8,1.64-1.05-1.32,.39-1.97-2.62-1.64,1.05Z"/><path class="e" d="M621.96,920.2c-.45-.19-.66-.39-.72-.72-.01,.24,0,.47,0,.7,.27,.1,.53,.15,.72,.03Z"/><path class="e" d="M638.34,643.14l.36-3.28c-.21,.92-.33,2.11-.36,3.28Z"/><path class="e" d="M639.41,370.62l-.25-.75c-.03,.29,.03,.56,.25,.75Z"/><path class="e" d="M638.66,630.08c.68-.57,1.08-1.18,1.35-1.82-.15-.14-.26-.3-.48-.39l-.87,2.22Z"/><path class="e" d="M634.49,220.88s-.02,0-.02,0c0,0,.01,0,.02,0Z"/><path class="e" d="M628.76,199.48c.13,3.14,2.51,1.33,3.97,1.91,.93,3.7-1.72,1.84-2.91,3.19,.79,2.3,3.18,3.96,3.18,5.7-.4,.15-.53,.5-1.06,.13,2.12,2.36,.51,7.33,3.15,10.07-.21,.23-.41,.35-.59,.41,1.22-.54,2.47-.68,3.38-.63,.12,1.4,1.71,2.52,.12,3.14,0-.86-.66-.9-1.19-1.28l.78,1.43c-2.25,1.46-.92-1.97-2.64-1.87,.92,2.83,3.03,6.08,2.49,8.31-2.25,.58-1.05-5.11-2.92-2.06l.68-3.45c-3.45,2.8,.14-2.08-3.58,.52-.41,4.52,1.45,4.95,1.01,9.45,1.32,.94,1.86-.43,3.17,.51,2.6,6.24-5.47,5.3-2.19,9.82,1.58,1.13,4.49,1.45,3.14,4.86l-2.64-1c-.03,4.35,3.84,2.29,2.33,6.92-1.05-.76-1.02-3.37-1.3-2.7-1.89,3.05,1.56,2.01,1.67,4.28l-2.26,.58c.58,4.6,2.47,9.61,3.13,14.72-.69-.25-1.45-1.1-2.09,.13,1.46,6.4,.33,13.8-.74,20.08l2.07,2.29c0,.55-.85,1.06-1.25,.48-.64,2.46,1.26,.07,2.08,1.21,.2,1.38-1.05,1.87-1.68,1.02,1.87,4.21,4.09,12.06,2.16,16.66l-.62-.86c-.66,3.55,4.19,3.81,2.48,7.14l-.37-.61c-.54,7.66,1.55,16.03-1.23,21.96,2.88,1.01-1.01,7.59,2.97,7.95-1.82,4.42-2.55,3.2-3.68,9.37-.13,1.64,2.54,2.36,3.02,4.38l-2.07,.11,2.25,2.68-2.43,1.54,.59,1.88c.1-.76,.88-1.64,1.48-1.54,1.03,2.94-1.23,7.28-2.29,7.38l1.96,6.97c-.84-.13-1.16-1.3-1.72-2.22,2.22,3.69-2.16,.74-.12,4.12,.46-.47,1.24,.22,1.66,.28-1.2,1.75-1.13,5.64-.53,8.51l-1.44-.52c-.24,5.22,.95,10.96,1.07,16.81,.61-2.11,3.1-1.69,3.38,.02l-2.17,.73c1.38,1.08,.78-1.81,2.49,.43-.2,2.19-2.45,1.52-3.2,.29l.82,2.64c-.65,.17-1.01-.45-1.85-.59,1.39,1.06-2.1,4.63,.29,6.15l-.65,.16c.09,5.84,.89,8.48,1.09,13.24,1.89,.06,1.51,1.93,3.06,3.32-.54,3.51-1.94,7.42-1.72,11.63,.98,2.95,1.61,.84,2.75,2.16-1.72,.24-1.5,4.45-2.77,2.29,.34,5.06,.43,6.46,1.9,12.84,.69-.7,.99-1.49,1.58-1.09,.3,1.16-.69,2.65-1.52,2.5l-.18-.3c1.34,3.58,.13,7.74-.94,11.71-1.1,3.97-2.08,7.76-.27,10.6l-.18-.32,1.91,5.92c-.28,2.73-1.3-1.63-2.36,.4,2.91,6.38-.35,10.11,1.59,15.37-5.07,4.09,.35,14.47-2.89,19.98l1.2-.32c1.17,1.42-.68,1.72-.96,2.77,.93-.15,1.08-1.54,1.72-.66,1.48,12.06-1.87,24.87-3.03,37.2-.36,4.51,6.16,2.63,3.27,8.3l-2.21-1.64c2.54,9.15-.38,18.63,1.74,27.6-.5-.54-1.17-.57-1.15-1.44-1.64,1.86-.19,6.97,1.13,7.03-.17,1.39-1.19,.3-1.88,1.14-.98,1.87,1.95,4.79,.33,5.76-.26,.17-.51-.54-.63-.89,.75,1.25-.34,5.73,1.55,4.59-.97,3.33,.67,6.43-.49,9.07,2.04,1.79-1.14,5.71,1.79,6.34-3.03-.32-2.59,5.8-1.22,7.96-.9-.73-1,1.81-2.25,.95,0,2.42,.46,4.65,2.04,4.27-3.78,4.34,2.63,9.04-2.12,11.4,1.39,7.23,2.28,13.91,2.77,20.39-3.02-.35-.06-7.15-3.25-6.99,1.06,6.17,3.5,9.8,2.5,15.84-.48,1.55-1.28-.95-1.77-1.5,.98,6.17-.79,11.81,.62,17.32-.28-.03-.56-.63-.77-1.19,.05,1.08-.55,2.47,.83,2.42l-.33-1.06c2.07-1.62,3.99,4.45,5.03,4.7-3.86-2.01-1.23,5.33-6.08,2.2,.23,.72,.84,1.64,1.77,1.52-.31,1.03-.86,1.34-1.87,.23,.55,3.88,2.08,2.58,1.86,6.06-.67-.05-.89-.76-1.65-1.16,1.2,1.83,2.41,3.66,1.68,6.58-.39-.2-.93,.12-.88-.76-.07,5.06,2.99,8.8,1.44,14.27-2.81-1.8-1.06,1.83-3.58,1.98l.58,3.02,1.28-1.12c-.19,2.61,1.53,5.02,.56,7.22l-.91-2,.16,4.92,1.13-2.71c1.12,2.72,3.19-.09,2.26,3.34-.21-.72-.2,2.61-1.77,3.88,0,0,0,0,0,0,.71,1.34,1.46,2.72,.71,4.61-.83,.45-2.74-.58-3.3-.29,2.01,1.41,.18,6.15,2.3,7.91-.49-.57-1.8-.69-2.08-.53l1.63,1.18c-.62,1.17-.9,1.33-1.93,1.06-.55,3.61,3.25-.94,1.6,3.28-.11-.35-.38-.2-.59-.93-1.01,4.28,.56,8.45-.62,12.37-2.61,.99-.34-3.52-2.57-2.33,0,5.76,2.08,12.1,1.04,17.6l.36-1.01c3.49,1.05-2.08,3.99-.63,6.93-.21-.71-1.9-1.06-1.52-.84-.89,3.75,.31,7.84,.87,13.69l-.84-.79c-1.02,2.16-1.02,5.85-1.66,8.23,.84,.8,.57,2.17,1.97,1.45-5.89,6.96,1.46,14.49-3.49,20.67,.07-.79-.62-1.96-.68-1.34,.11,1.9,.16,3.8,.24,5.71,1.59-.28,1.02-.64,2.35-1.7,.84,.81,1.37,2.47,1.22,3.86-.75-2.64-2.48-.24-3.46,.76,.49-.13,.97,.3,1.47,.25-3.07,2.65,3.05,.82,.76,4.64l-.79-.3c.25,1.55,1.17,3.05,.76,4.64-1.86,.48-.66-1.69-2.12-1.95-.15,2.28,2.89,4.86,.89,6.72-.39-1.02-.25-2.41-.64-3.43-2.34,2.01-1.84,2.33-2.35,3.95l.07-.16-1.37,3.74,.68-.91c4.33,3.38,.25,5.89,2.81,10.08-2.41-4.06-1.59-.81-3.57-1.34-.69,.91-1.5,2.32-2.02,1.83,1.4,2-1.67,2.85,.39,5.69-.67,.03-.31,1.92-1.89,1.31,.21,2.41,1.2-.41,1.99-.12,1.76,3.9-3.77,8.16-1.39,13.75,.67,4.65,2.79,5.78,3.31,10.1-1.25,1.26-2.2-1.47-2.2-1.47-1.29,2.13-1.36,3.86-.93,6.1-.5-.51-1.05-.13-1.87,.41-.08,1.73,2.19,1.48,.91,3.6-.67-.49-1.75-1.15-2.35-2.08,.3,2.1,1.22,4.26,1.5,6.44-1.21,.39-1.53-1.51-2.16-2.35,.17,2.42,.13,6.22,1.81,7.21l.86-1.41c-.04,.87-1.6,.21-1.83-.47-1.11-2.22,1.05-2.81,1.71-2.83l.2,1.55c4.03-.97,.27-6.07,.93-9.03l2.58,1.64-1.84-3.4c.82-.55,2.43-.78,2.62,.76,1.68-1.96-.7-2.04,1.09-3.68,.27-.17,.39-.06,.47,.14l-.52-2.22c.53,.49,2.01-.08,1.42,1.16,2.11-3.57-1.29-6.38,.99-7.53l.13,.34c-.27-5.37-1.97-.78-3.86-5.02l5.36-2-1.97-.78c.14-.53,.43-1.58,1.22-1.28-1.14-2.19-.93,.23-2.1-1.11,2.19-2.37,.05-7.29,3.36-7.48-1.43-1.12-1.51,2.35-2.23-.57,3.59-.37-.19-3.29,1.71-5.47,1.71,.95,.47,3.09,2.38,.9-2.84-1.8,1.23-4.57,.86-6.65-2.41-.38-.53-4.5-.97-7.97,.79,.31,2.03-6.21,3.25-9.26l.4,.14c-2.39-.87-1.57-4.06-1.82-6.48,1.46,.25,1.99,.73,2.51,2.08l.23-2.22c-.73-.61-1.07-1.34-1.19-2.81l1.77,.75c.25-2.97-1.57-6.18,.02-9.86-1.69-.38-5.05,2.56-5.82-1.57,.94-.06,2.54-.05,2.82,1.04-.09-.36-.65-1.3-.19-1.96l1.41,1.76c.85-1.67-1.22-1.03-.94-2.4,1.32,.16,1.04-.93,2.07-.63,.09,.37-.66,1.16-.19,1.74,.38-1.54,1.34-3.35,2.4-3.88-.76,.06-1.78-.17-1.84-1.33,.18-2.97,1.68-.86,2.52-2.53-.85-.8,.28-2.6-1.69-2.84,.09-.87,1.03-.94,1.59-1.23-.73-1.61,.42-7.18-1.84-5.64l-.18,.38c-.03-.08-.03-.16-.06-.26h0c-.75-2.6-.21-5.17,.43-7.74,.63-2.57,1.39-5.12,1.16-7.65l.66,.06c-.52-3.04,.08-6.66-1.18-8.9,.07-.88,1.37-1.98,2.13-1.54-.32-2.31-1.04-2.63,.31-5.83,.97,2.38,1.08-.71,.66,2.41,.8-2.91,1.92-3.51,.36-6.82,1.61,1.21,2.31-2.07,1.92-3.51l-1.38,1.98c-.12-1.6,.15-2.97,.37-4.36l2.18,.92c3.11-5.88-3.89-11.25,.95-15.55-1.45-1.71-1.32,3.22-3.05,1.66,.49-2.76,3.88-5.46,3.94-6.33,1.49-3.74-3.02-3.77-1.91-7.71-.83,.46-2.98,.81-3.54-2.22,.48-2.77,3.57-3.22,4.09-1.42,.02,.67-.25,.98-.52,.94,.23,.92,.49,2.12,1.43,1.07l-.77-.41c.91-1.33,1.06-5.18,2.31-4.2-.64-2.16-1.26-.98-1.75,.56,1.35-3.51,.34-5.59,1.31-9.23-.47,.56-1.43,1.05-1.4,.46,1.28-5.35-1.38-2.46-1.53-6.14,1.33-2.01,2.86,.9,2.04-2.84,.94-2.21,2.14-.36,2.74,.57-1.35-3.44,1.35-6.23,1.74-8.13l.55,1.8c-.32-1.08-.27-1.95-.21-2.83l-1.65,.93c.33-1.02,.39-1.9,1.05-1.85-.99-1.12-2.69,.68-4-1.51,.88-1.34-.64-4.26,1.5-4.63-.95,4.32,2.15-.38,2.29,3.33-.21-.72-.16-1.59,.18-2.62,.24-.14,.43,.17,.54,.46,2.11-4.08-2.3-2.03-2.05-6.35,1.17,.61,2.3-.9,2.08-1.61-.1,1.74-2.02,.74-2.87-.9,1.05-2.73-.56-3.04-.39-4.49l-.51,1.64c-1.17-.62-.95-1.99-1.24-3.94,.93-.12,.56,1.78,1,1.11-2-2.24,2.38-4.75,1.1-7.8,.87-1.35,2.24-.04,2.84-1.23-1.4-3.42,1.79-3.56,.67-7.14-1.65,.95-1.26,1.14-2.72-1.4l.88,5.84-2.17-3.81c-.1,1.75,.85,3.73,.53,4.76-1.23-1.82-.84-1.63-2.2-.84,2.51-2.29-1.19-4.79,.55-7.49l3.96,.24c1.96-4.09-1.77-7.46-.58-12.82l-.75,1.71c-1.55-.78-.11-3.34-.69-5.11,1.32,.21,1.84-.87,2.69-1.59-.99,.06,.22-3.95-2.41-4.53l1.83-2.35c.86-4.34-3.61-5.09-3.02-9.26,1.4,1.3,2.4-.57,3.34,2.27,.06-1.4,.34-2.65-.57-2.7,.86-.79-1.66-3.93-.38-5.18-.57-.61-1.95-.84-1.8-2.4,.27-.16,.65,.02,.65,.02-.65-.02-.83-2.48-2.33-1.15,4.24-4.2,0-12.04,3.64-15.7-.37-3.06-.71-6.75-.74-9.52,.39,.19,.66,.02,.51,.54,1.32-3.8-3.74-2.43-2.29-6.75,2.18-2.18,1.12,2.33,1.96,.96,4.37-.52-.51-5.26,2.08-8.14l.25,.71c1.52-2.21-1.57-5.49-1.2-9.14,0,0,.38,.18,.66,.03-2.19-2.54-2.85-7.28-3.41-10.8,1.69,1.12,.88,1.61,2.62,.96-.22-1.58-2.79,.42-3.23-2.73,.95-1.01,1.81-3.27,3.66-3.55l.06,2.97c2.43-1.49-.03-3.84,.4-5.4l1.05,.21c-.3-4.55-2.94-4.64-2.71-9.53l-.8,.5c-2.59-2.69,1.49-2.23-.43-4.91l2.66-.79c-.63-1.77-2.52-6.19-2.99-9.35,1.95,1.8,2.93,5.51,4.08,7.81,.03-1.75-.15-5.94-1.45-6.86,.25,.71,.89,1.6,.48,2.29-2.07-2.16-3.07-4.98-3-8.46,5.16,.64,1.31-9.07,5.31-11.58-1.9-6.16,.82-12.23,.52-19.41-4,2.55-.11-2.1-4.22-1.65-.26-1.67-.2-2.31,.07-2.46l2.42-5.07c1.19-1.21,.92,1.59,1.84,1.43,.29-3.66,1.73-1.54,2.81-3.97-1.47,.5-2.11-1.26-1.56-3.35l-1.88,2.95c-2.22-5.1,3.42-4.44,1.22-9.59l1.3,1.62c-.78-2.64-.03-9.77-3.35-12.34,.47-.47,1.59-1.1,1.9,.06,.46-6.33-3.68-14.04-1.69-18.98l1.01,.47c-.31-1.18-1.91-2.03-.92-3.52,.42,.07,1.01,.46,1.06-.08-.35-.62-1.8-3.11-1.23-4.68l1.15,1.32c1.23-6.19-2.86-9.43-3.65-14.59,2.96-.03,3.83-4.91,4.26-7.34l.42,.08c.23-7.19-2.68-12.16-3.96-18.78,3.12-4.2,1.01-14.01,2.65-20.69-.51,1.03-2.31-.11-2.63-1.28,.56-1.57-2.16-4.25,.56-4.07l-.04,.56c2.63-1.24,1.85-4.43,1.85-6.93l-3.56-.32c4.97-6.68-2.4-17.06,2.12-20.76-.93-1.55-.98-3.5-1.91-5.04l1.9,.02c.35-4.38,.5-6.57-.14-11.96l1.4,1.06c.02-3.05-5.61-3.66-5.82-6.46l2.81-.94c-.23-5.31,2.09-10.78-.7-15.93,.42,.07,1.25,.2,1.39,1.05-.02-2.5,1.54-9.75-2.32-8.69,2.53-.16,.03-5.49-1.2-8.31l1.89,.37c-2.49-2.32-3.14-2.37-3.94-5.73,.21-.81,1.47-.76,1.03,.32,.86-2.71-1.86-2.01-1.01-5.28l1.25,1.16c.02-2.75-.61-2.51-2.07-3.96-.83-1.69,.24-5.23,1.92-5.71-1.05-.32-2.49-1.77-2.07-3.41,.63-.25,1.05,.32,1.26,.61,1.07-4.65-2.47-6.73-.78-9.97,.62-.09,.92-.31,1.09-.58,.13,3.65,.14,6.59,0,6.32,1.72-.08,1.9-3.04,4.38-.8-1.4-2.31-4.41-6.22-3.74-9.13,.16-.15,.32-.29,.58-.41l.21,.29c.14-.67-.05-1.26-.37-1.8,.24-.93,.42-1.52,.41-2.4,1.41-.41,.61-3.42,.61-4.89-1.88,.21-1.67-1.73-3.14,.15,.13-.24,.24,.27,.36,1.24,.07,.22,.11,.48,.23,.62-.05-.03-.11-.06-.17-.09,.1,.96,.2,2.22,.3,3.65-1.01-1.11-1.88-2.29-.91-3.96-1.25-.7-2.53-1.46-3.14-1.9,2.54-2.14,3.77-6.08,5.37-6.7-1.28-4.43-1.24-10.53-4.93-13.17-.52-1.25,.94-1.52,1.47-2.02,.39,.72,.38,1.6,.91,1.97-1.04-2.5-.74-7.53-3.25-8.01,.95-3.27,2.37,1.68,1.74-2.71l.79,.56c3.47-8.91-7.09-13.76-2.57-23.67-.27,.68-.4,1.03-.8,1.19,1.6-11.11-3.45-22.47-.6-33.52,.51-3.12-1.09-3.35-2.41-5.15l1.98-.8-2.55-3.05c-2.01-4.43,4.43-8.22,.8-13.76l-1.31,.84c.12-2.09-1.27-6.5,.32-6.26-.26-.19-1.47-.58-.81-1.44l1.05-.14-2.19-4.95c.47-4,4.25,.31,4.02-5.47-.57-2.11-3.56-5.86-4.2-5,.02,.87-.49,2.26-1.54,2.41l-.7-1.91c-3.15-.1-6.45-1.33-8.26,3.6l2.16,3.18-1.43,1.19-.31-2.79c-1.3,1.7,.03,2.61,.98,3.67-.78,.33-1.31,.84-1.56,1.52l3.22,3.05c-1.19,.49-2.53-1.29-3.04,.95,1.49,1.43,2.63-1.67,3.72,.8-1.3,1.7-2.49,1.32-1.15,3.1-.78,.32-1.33-.04-1.73-.76,1.08,1.6,.73,4.38,2.44,5.12-1.64,1.79,.84,5.6-2.12,5.64,.74,.47,2.52,2.78,2.75,4.3-3.72-2.56,.18,5.75-3.67,5.26,3.31,1.86,1.91,7.38,3.91,10.94-.26-.19-.8-.56-.66-.89-.13,2.08-1.06,2.74-1.57,4.11,2.64,.1,3.45,3.28,5.18,4.91-2.38,2.69-3.18-1.35-5.57-.4,2.12-.26,2.4,4.27,4.12,3.29-1.45,2.03-.66,1.72-2.77,2.85,3.31,.14,.67,1.77,2.78,3.25-1.45,2.9-3.04,.91-1.85,3.92-.92,1.52-2.24-1.14-2.24-1.14Zm9.57,72.94h-.04c-.07-.63-.14-1.16-.18-1.51,.05,.31,.11,.75,.22,1.51Zm.32,6.16c.04-.75,.01-1.69-.05-2.68,.64-.25,1.32-.04,1.32,.58-.45-.32-.76,1.15-1.27,2.1Zm12.46-13.66c.31,.96-.04,1.31-.42,1.46-.05-.46-.14-1-.31-1.7-.07-.03-.16-.08-.24-.1,.36,.08,.71,.17,.97,.34Z"/><path class="e" d="M648.55,263.28c-.05-.14-.13-.21-.16-.4-.16,.21-.29,.4-.4,.6l.61,.32-.05-.52Z"/><path class="e" d="M640.53,822.92l.05-.13c-.08,.1-.17,.19-.29,.25,.1-.08,.16-.07,.24-.12Z"/><polygon class="e" points="638.27 363.79 638.75 363.76 638.32 363.24 638.27 363.79"/><path class="e" d="M630.8,856.12c-.17,.05-.36,.16-.53,.39,.12,0,.32-.18,.53-.39Z"/><path class="e" d="M628.79,870.65l-.89,1.98c.48-.85,.73-1.48,.89-1.98Z"/><path class="e" d="M626.62,881.73c.31,.18,.55,.25,.78,.31,0,0,0-.01,.01-.02l-.79-.29Z"/><path class="e" d="M638.36,703.06c0-.15-.02-.3-.07-.44-.32-1.04-.21-.34,.07,.44Z"/><path class="e" d="M639.89,756.55c-.3-.59-.6-1.16-.78-1.77-.21,.94-.29,1.67,.78,1.77Z"/><path class="e" d="M638.3,643.5s.02,0,.03,0c0-.13,0-.24,0-.37l-.04,.36Z"/><path class="e" d="M639.31,752.31c-.44,.92-.41,1.72-.2,2.47,.18-.77,.43-1.67,.2-2.47Z"/><path class="e" d="M619.28,929.96l-.16,.52c.12,0,.22,.06,.29,.11l-.14-.63Z"/><path class="e" d="M619.42,930.6l.13,.63c.04-.27,.06-.51-.13-.63Z"/><path class="e" d="M619.84,932.55l-.29-1.32c-.07,.43-.21,.96,.29,1.32Z"/><path class="e" d="M622.31,915.35l-.65-.26c.13,.11,.34,.2,.65,.26Z"/><path class="e" d="M622.73,910.84c-.28,1.05-1.79,2.49-1.6,4.04l.52,.21c-.9-.84,2.11-3.07,1.08-4.25Z"/><path class="e" d="M633.52,893.13l-1.02,3.71c.81-.57,1.89-1.32,1.85,.43,2.77-4.5-1.74,.78-.82-4.14Z"/><path class="e" d="M636.05,881.53c.1,2.08,1.06,.1,1.45,.26-.52-1.37-.65-1.7-1.45-.26Z"/><path class="e" d="M644.24,796.47l1.7,.34c-.12-1.59-.66-.07-1.7-.34Z"/><polygon class="e" points="636.63 779.55 635.47 781 636.99 781.84 636.63 779.55"/><polygon class="e" points="649.48 770.79 649.68 771.49 649.24 768.82 649.48 770.79"/><path class="e" d="M655.29,627.35l-2.13,.43c.35,1.08,2.73,1.36,2.13-.43Z"/><path class="e" d="M654.15,565.39c1.06-.66,1.76-2.4,.73-3.48-.16,1.39-.99,2.77-.73,3.48Z"/><polygon class="e" points="655.73 379.68 656.47 380.91 655.81 378.58 655.73 379.68"/></g><g><path class="e" d="M730.81,931.3c.41,.59,1.74,.77,1.85-.44l-1.86-1.49v1.93Z"/><path class="e" d="M737.13,924.96c-.61-1.66-1.94-3.75-4.16-3.49,1.63,1.94,.68,2,2.66,4.18-.11,1.21-1.3,1.76-2.02,1.32,.42,.57-1.02,1.6,.12,2.64,2.1-.94,2.76-2.8,2.02-5.17,.6-.27,1.03,.31,1.39,.53Z"/><path class="e" d="M766.39,812.35l-.38,.7c.18-.18,.29-.42,.38-.7Z"/><path class="e" d="M776.74,740.86c0,.55,.2,.8,.39,.85-.09-.52-.19-.95-.39-.85Z"/><path class="e" d="M780.35,728.8c-.09,.26-.14,.48-.21,.71,.23-.26,.37-.53,.21-.71Z"/><path class="e" d="M766.39,812.35l.98-1.8c-.7-.25-.68,.89-.98,1.8Z"/><path class="e" d="M736.57,908.14c0,.41,.1,.79,.27,1.16,0-.34,0-.67,.04-1-.11-.05-.21-.09-.32-.16Z"/><path class="e" d="M762.65,844.05l-.1,.58c.22,.22,.49,.44,.8,.65l-.69-1.23Z"/><path class="e" d="M758,868.11c.2-.52-1.6-1.12-2.36-1.5,.69,.47,.96,.95,1,1.46,.35,.09,.78,.11,1.36,.05Z"/><path class="e" d="M745.45,904.99l.07,.73c-.03-.19-.02-.5-.07-.73Z"/><path class="e" d="M766.2,826.88c.28,0,.54-.04,.7-.1-.23-.04-.47,0-.7,.1Z"/><path class="e" d="M740.98,148.27c.14,0,.22-.04,.33-.05-.21-.11-.35-.14-.33,.05Z"/><path class="e" d="M746.08,119.01l.16,.37c.36-.02,.71-.03,1.06-.08l-1.22-.29Z"/><path class="e" d="M784.62,706.46s-.03,.06-.04,.1c.17,.61,.16,.27,.04-.1Z"/><path class="e" d="M787.36,499.12c-1.63,2.39-2.26-3.76-4.05-.18,.73-.35,3.02,3.13,4.05,.18Z"/><path class="e" d="M736.99,907.61c.07-.32,.15-.64,.26-.96-.19,.42-.26,.71-.26,.96Z"/><path class="e" d="M783.31,498.94h-.01l-.17,.37,.18-.37Z"/><path class="e" d="M786.56,654.37c-.34,.09-.6,.29-.85,.49,.19,0,.44-.12,.85-.49Z"/><path class="e" d="M781.74,692.94l.32-.94c-.2,.37-.28,.67-.32,.94Z"/><path class="e" d="M784.69,634.15c.16-.52,.43-.68,.2-1.4-.1,.06-.17,.13-.24,.21,.25,.27,.36,.61,.03,1.2Z"/><path class="e" d="M785.26,613.23c-.15,.11-.26,.25-.39,.38,.03,.21,.06,.45,.09,.67l.3-1.04Z"/><path class="e" d="M750.03,210.87c.47-.52,1.02-.87,1.57-1.16-1.29,.48-2.13-2.5-1.57,1.16Z"/><path class="e" d="M737.6,908.42c-.42-.25-.6-.48-.61-.81-.05,.23-.07,.46-.09,.69,.25,.14,.5,.22,.71,.13Z"/><path class="e" d="M769.83,632.81l.38-3.29c-.21,.92-.33,2.11-.38,3.29Z"/><path class="e" d="M764.7,359.54l-.28-.74c-.02,.3,.05,.56,.28,.74Z"/><path class="e" d="M770.2,619.72c.68-.57,1.09-1.19,1.36-1.82-.15-.14-.26-.3-.48-.4l-.88,2.22Z"/><path class="e" d="M751.62,209.71s-.02,0-.02,0c0,0,.01,0,.02,0Z"/><path class="e" d="M744.51,188.63c.34,3.13,2.59,1.16,4.09,1.65,1.17,3.65-1.59,1.96-2.7,3.38,.95,2.25,3.43,3.76,3.54,5.51-.39,.18-.5,.54-1.05,.2,2.26,2.23,1,7.3,3.79,9.88-.19,.24-.39,.37-.57,.45,1.18-.61,2.43-.84,3.33-.85,.21,1.4,1.87,2.42,.32,3.14-.06-.87-.71-.86-1.26-1.2l.87,1.39c-2.16,1.6-1.04-1.91-2.75-1.71,1.09,2.78,3.41,5.9,3.01,8.18-2.21,.72-1.36-5.05-3.03-1.88l.46-3.5c-3.26,3.02,0-2.1-3.54,.75-.12,4.55,1.74,4.87,1.6,9.41,1.38,.86,1.82-.55,3.2,.31,3,6.09-5.13,5.65-1.58,9.97,1.65,1.04,4.57,1.19,3.43,4.68l-2.69-.85c.23,4.36,3.96,2.07,2.73,6.8-1.1-.7-1.22-3.32-1.46-2.63-1.7,3.16,1.68,1.92,1.93,4.19l-2.22,.72c.87,4.58,3.03,9.49,3.99,14.57-.71-.21-1.51-1.02-2.08,.25,1.8,6.34,1.14,13.81,.39,20.17l2.2,2.19c.03,.56-.79,1.11-1.23,.55-.51,2.5,1.26,0,2.14,1.1,.27,1.37-.95,1.93-1.62,1.11,2.07,4.12,4.75,11.87,3.05,16.58l-.66-.83c-.48,3.59,4.38,3.6,2.85,7.03l-.4-.59c-.16,7.71,2.36,16-.12,22.08,2.92,.87-.64,7.66,3.35,7.83-1.6,4.52-2.41,3.33-3.25,9.57-.05,1.65,2.66,2.25,3.23,4.25l-2.06,.21,2.38,2.59-2.36,1.65,.67,1.86c.07-.77,.81-1.68,1.41-1.61,1.15,2.91-.91,7.36-1.96,7.51l2.26,6.91c-.84-.1-1.21-1.26-1.81-2.15,2.38,3.6-2.12,.84,.05,4.14,.44-.49,1.25,.16,1.67,.21-1.13,1.8-.88,5.71-.15,8.56l-1.46-.46c0,5.24,1.4,10.95,1.75,16.81,.53-2.14,3.03-1.81,3.38-.11l-2.14,.82c1.42,1.03,.71-1.85,2.51,.33-.11,2.21-2.39,1.62-3.18,.41l.92,2.61c-.64,.2-1.02-.41-1.86-.52,1.42,1.01-1.93,4.72,.52,6.16l-.64,.19c.32,5.85,1.24,8.47,1.59,13.23,1.89,0,1.57,1.88,3.17,3.22-.42,3.54-1.68,7.51-1.33,11.73,1.08,2.92,1.64,.79,2.82,2.07-1.71,.3-1.35,4.52-2.69,2.39,.52,5.06,.67,6.46,2.33,12.82,.67-.73,.95-1.52,1.55-1.14,.33,1.15-.61,2.68-1.44,2.55l-.19-.3c2.9,7.11-4.35,16.82-.56,22.42l-.19-.32,2.07,5.89c-.21,2.75-1.34-1.6-2.35,.46,3.06,6.33-.1,10.15,1.95,15.38-4.99,4.22,.74,14.51-2.44,20.1l1.19-.34c1.2,1.4-.65,1.74-.91,2.79,.93-.17,1.05-1.57,1.71-.69,.83,6.03,.5,12.28-.2,18.57-.67,6.28-1.71,12.6-2.24,18.79-.31,4.53,6.21,2.56,3.34,8.28l-2.21-1.62c2.63,9.15-.16,18.69,1.97,27.66-.51-.54-1.17-.56-1.15-1.44-1.63,1.87-.16,6.99,1.15,7.04-.18,1.39-1.2,.3-1.88,1.15-.99,1.88,1.96,4.79,.34,5.77-.26,.17-.51-.54-.63-.89,.76,1.25-.31,5.75,1.57,4.61-.96,3.34,.71,6.45-.48,9.1,2.03,1.8-1.16,5.72,1.76,6.36-3.03-.33-2.61,5.81-1.25,7.98-.89-.74-1.02,1.81-2.26,.94-.05,2.42,.44,4.66,2.01,4.29-3.8,4.32,2.59,9.09-2.16,11.41,1.29,7.25,2.13,13.97,2.47,20.48-3-.39,.08-7.17-3.13-7.05,.97,6.19,3.32,9.87,2.27,15.92-.5,1.55-1.26-.97-1.75-1.53,.93,6.2-1.01,11.82,.29,17.38-.28-.03-.55-.64-.74-1.21,.03,1.08-.61,2.47,.77,2.44l-.3-1.07c2.11-1.58,3.89,4.56,4.93,4.83-3.8-2.1-1.39,5.32-6.15,2.06,.2,.72,.79,1.66,1.72,1.56-.35,1.03-.91,1.32-1.87,.18,.45,3.9,2.02,2.64,1.72,6.13-.66-.06-.87-.79-1.62-1.21,1.16,1.86,2.32,3.74,1.53,6.64-.39-.21-.93,.09-.86-.79-.19,5.07,2.71,8.91,.98,14.35-2.74-1.9-1.12,1.8-3.64,1.87l.48,3.05,1.32-1.08c-.28,2.6,1.29,5.08,.26,7.25l-.84-2.04v4.93l1.21-2.67c1.02,2.77,3.19,.03,2.14,3.44-.19-.73-.29,2.61-1.9,3.82,0,0,0,0,0,0,.66,1.37,1.38,2.8,.54,4.66-.85,.42-2.71-.7-3.28-.43,1.94,1.5-.11,6.16,1.93,8.02-.46-.6-1.77-.77-2.05-.63l1.57,1.26c-.68,1.15-.96,1.29-1.98,.98-.72,3.6,3.29-.79,1.44,3.37-.1-.35-.37-.22-.55-.96-1.18,4.25,.05,8.49-1.27,12.36-2.65,.85-.18-3.55-2.46-2.47-.13,2.89,.25,5.94,.5,8.96,.21,3.02,.29,6-.39,8.72l.42-.99c3.42,1.26-2.32,3.88-1.05,6.91-.16-.72-1.83-1.18-1.46-.94-1.08,3.7-.3,7.84-.07,13.75l-.79-.85c-1.15,2.1-1.35,5.79-2.19,8.12,.78,.86,.4,2.21,1.86,1.59-3.2,3.27-3.11,6.9-2.89,10.47,.19,3.56,.45,7.04-2.29,9.91,.14-.78-.44-2.01-.56-1.39l-.21,5.73c1.61-.15,1.06-.55,2.47-1.5,.77,.88,1.18,2.59,.92,3.98-.55-2.71-2.44-.45-3.52,.46,.5-.09,.94,.38,1.44,.38-3.3,2.37,2.96,1.09,.33,4.7l-.76-.37c.1,1.57,.88,3.15,.32,4.71-1.89,.3-.5-1.75-1.92-2.15-.36,2.26,2.42,5.13,.25,6.8-.29-1.06-.02-2.44-.31-3.49-2.52,1.78-2.04,2.15-2.71,3.72l.08-.15-1.78,3.58,.77-.84c3.95,3.8-.44,5.88,1.71,10.33-2.01-4.32-1.5-.98-3.42-1.72-.77,.84-1.71,2.15-2.17,1.61,1.21,2.15-1.96,2.66-.22,5.71-.67-.04-.52,1.88-2.03,1.09-.06,2.42,1.24-.27,1.99,.11,.65,2.04-.52,3.97-1.63,6.1-.56,1.07-1.1,2.19-1.4,3.41-.32,1.21-.39,2.53,.01,3.99,.06,4.7,1.98,6.08,1.95,10.46-1.38,1.1-2-1.76-2-1.76-1.5,1.97-1.83,3.66-1.7,5.95-.43-.58-1.02-.27-1.91,.15-.32,1.71,1.97,1.77,.41,3.7-.59-.58-1.58-1.39-2.05-2.39,.01,2.12,.63,4.4,.6,6.6-1.25,.21-1.31-1.72-1.81-2.64-.08,1.21-.26,2.76-.23,4.16,.01,1.39,.22,2.64,.98,3.25l1.08-1.27c-.18,.85-1.62-.03-1.74-.73-.75-2.35,1.43-2.63,2.1-2.56l-.02,1.57c4.11-.39,1.1-6,2.15-8.84l2.33,1.99-1.36-3.63c.89-.44,2.51-.45,2.5,1.11,1.93-1.73-.41-2.12,1.58-3.52,.28-.14,.39,0,.45,.21l-.25-2.29c.46,.56,1.99,.18,1.27,1.34,2.55-3.3-.43-6.53,1.99-7.38l.08,.35c.46-5.39-1.85-1.02-3.16-5.48l5.57-1.35-1.86-1.01c.2-.52,.61-1.53,1.36-1.14-.88-2.33-.95,.12-1.95-1.35,2.44-2.12,.88-7.27,4.19-7.09-1.29-1.28-1.77,2.18-2.15-.82,3.61,.03,.2-3.3,2.28-5.29,1.61,1.13,.17,3.15,2.27,1.15-2.67-2.11,1.68-4.45,1.56-6.58-2.37-.62,0-4.55-.1-8.06,.76,.38,2.6-6.03,4.11-8.98l.38,.17c-2.31-1.09-1.16-4.21-1.23-6.66,1.43,.37,1.93,.91,2.33,2.31l.41-2.21c-.68-.67-.96-1.44-.97-2.93l1.71,.9c.45-2.97-1.03-6.33,.89-9.9-1.65-.51-5.27,2.15-5.66-2.04,.94,.02,2.54,.15,2.72,1.26-.06-.36-.53-1.36-.02-1.98l1.25,1.87c1-1.6-1.11-1.13-.73-2.48,1.3,.26,1.11-.86,2.11-.48,.07,.38-.74,1.11-.32,1.73,.5-1.52,1.59-3.26,2.69-3.72-.77,0-1.76-.31-1.74-1.48,.41-2.97,1.74-.74,2.71-2.35-.79-.87,.47-2.6-1.47-2.97,.16-.86,1.1-.87,1.68-1.12-.3-.84-.06-2.63-.04-4.04,0-1.42-.22-2.45-1.39-1.75l-.2,.37c-.03-.08-.02-.17-.05-.26h0c-1.18-5.32,2.73-10.24,2.63-15.34l.66,.1c-.34-3.08,.48-6.69-.64-9.01,.12-.88,1.49-1.91,2.22-1.43-.18-2.34-.87-2.69,.65-5.84,.85,2.44,1.13-.65,.53,2.46,.97-2.88,2.09-3.42,.7-6.84,1.55,1.3,2.4-1.96,2.08-3.44l-1.47,1.93c-.05-1.61,.28-2.98,.6-4.37l2.12,1.03c3.49-5.76-3.3-11.49,1.75-15.6-1.37-1.78-1.46,3.18-3.12,1.54,.61-2.76,4.13-5.32,4.23-6.2,1.66-3.71-2.88-3.92-1.63-7.84-.84,.43-3.01,.7-3.46-2.37,.57-2.76,3.67-3.11,4.13-1.28,0,.68-.29,.98-.55,.92,.2,.93,.42,2.15,1.39,1.13l-.76-.44c.95-1.31,1.25-5.17,2.46-4.14-.54-2.19-1.21-1.03-1.78,.5,1.51-3.48,.6-5.61,1.68-9.24-.49,.55-1.47,1.01-1.41,.42,1.46-5.34-1.3-2.52-1.32-6.23,1.39-1.98,2.83,1,2.14-2.79,1.02-2.19,2.15-.3,2.72,.65-1.22-3.51,1.55-6.23,1.97-8.14l.5,1.83c-.3-1.1-.22-1.97-.15-2.86l-1.67,.89c.36-1.02,.43-1.91,1.09-1.84-.96-1.16-2.71,.62-3.97-1.63,.91-1.33-.54-4.3,1.6-4.62-1.05,4.33,2.16-.33,2.21,3.41-.2-.74-.12-1.61,.24-2.64,.25-.14,.43,.18,.52,.48,2.21-4.06-2.24-2.11-1.86-6.45,1.15,.64,2.32-.85,2.12-1.58-.14,1.75-2.04,.7-2.85-.97,1.11-2.72-.49-3.07-.29-4.53l-.54,1.64c-1.15-.64-.91-2.02-1.15-3.99,.94-.11,.52,1.8,.98,1.14-1.95-2.29,2.49-4.73,1.28-7.83,.9-1.34,2.25,0,2.87-1.19-1.36-3.47,1.84-3.56,.76-7.18-1.66,.93-1.28,1.13-2.7-1.45l.8,5.89-2.12-3.87c-.12,1.75,.8,3.77,.47,4.8-1.21-1.86-.82-1.65-2.19-.89,2.53-2.26-1.13-4.84,.64-7.52l3.96,.3c2.01-4.09-1.62-7.54-.38-12.91l-.77,1.71c-1.54-.8-.06-3.36-.62-5.15,1.32,.22,1.85-.85,2.71-1.57-.99,.05,.27-3.97-2.35-4.58l1.84-2.35c.88-4.36-3.59-5.15-2.99-9.34,1.39,1.32,2.4-.56,3.33,2.3,.07-1.41,.35-2.66-.56-2.72,.86-.79-1.64-3.96-.34-5.21-.56-.61-1.94-.85-1.79-2.43,.27-.16,.65,.03,.65,.03-.65-.03-.82-2.5-2.33-1.17,4.25-4.21,.05-12.1,3.68-15.79-.38-3.08-.74-6.79-.78-9.58,.39,.19,.66,.02,.51,.55,1.31-3.82-3.76-2.43-2.3-6.78,2.17-2.2,1.13,2.34,1.96,.96,4.38-.54-.53-5.29,2.05-8.2l.25,.72c1.51-2.24-1.59-5.51-1.23-9.19,0,0,.38,.18,.66,.03-2.2-2.53-2.93-7.29-3.53-10.83,1.7,1.11,.9,1.61,2.64,.94-.24-1.59-2.79,.45-3.26-2.71,.94-1.03,1.77-3.31,3.62-3.61l.09,2.99c2.4-1.53-.06-3.87,.35-5.44l1.05,.2c-.36-4.58-3-4.64-2.82-9.55l-.79,.51c-2.62-2.67,1.46-2.26-.49-4.93l2.65-.83c-.64-1.77-2.62-6.19-3.15-9.36,1.99,1.78,3.03,5.49,4.22,7.79,0-1.76-.26-5.98-1.58-6.88,.26,.71,.92,1.59,.52,2.3-2.11-2.14-3.16-4.96-3.15-8.46,5.17,.55,1.17-9.14,5.11-11.75-1.99-6.16,.58-12.32,.1-19.54-3.94,2.66-.16-2.11-4.26-1.56-.3-1.67-.25-2.32,.01-2.47l2.31-5.16c1.16-1.24,.95,1.57,1.87,1.39,.2-3.69,1.69-1.59,2.71-4.07-1.45,.54-2.14-1.22-1.64-3.34l-1.8,3.01c-2.34-5.08,3.31-4.56,.99-9.68l1.34,1.6c-.84-2.64-.32-9.83-3.71-12.32,.46-.49,1.56-1.15,1.9,0,.28-6.39-4.08-14.01-2.25-19.04l1.02,.44c-.34-1.17-1.97-1.98-1.02-3.51,.42,.06,1.02,.43,1.06-.12-.38-.61-1.91-3.07-1.4-4.67l1.19,1.29c1.01-6.26-3.19-9.39-4.15-14.54,2.95-.14,3.66-5.06,4-7.53l.42,.06c0-7.24-3.13-12.13-4.68-18.73,2.97-4.34,.47-14.12,1.83-20.9-.47,1.05-2.31-.01-2.69-1.18,.49-1.6-2.34-4.18,.38-4.12v.56c2.56-1.36,1.63-4.53,1.54-7.04l-3.57-.16c4.67-6.93-3.13-17.03,1.19-20.96-1.01-1.51-1.15-3.47-2.15-4.97l1.9-.06c.15-4.42,.2-6.63-.69-12.01l1.45,.99c-.13-3.07-5.78-3.41-6.12-6.21l2.76-1.08c-.5-5.32,1.52-10.93-1.51-15.97,.42,.05,1.25,.13,1.45,.99-.15-2.51,1.04-9.87-2.76-8.61,2.52-.29-.25-5.52-1.64-8.28l1.91,.27c-2.61-2.2-3.27-2.22-4.25-5.54,.17-.83,1.43-.85,1.05,.27,.72-2.77-1.96-1.91-1.28-5.25l1.31,1.09c-.13-2.76-.74-2.48-2.28-3.86-.92-1.65-.04-5.26,1.6-5.83-1.06-.27-2.58-1.64-2.26-3.31,.61-.28,1.07,.27,1.29,.55,.8-4.73-2.86-6.61-1.35-9.96,.61-.13,.9-.37,1.06-.65,.33,3.66,.53,6.61,.36,6.35,1.72-.17,1.72-3.16,4.33-1.05-1.54-2.24-4.76-6-4.25-8.96,.15-.16,.3-.31,.55-.44l.22,.28c.1-.68-.12-1.26-.47-1.79,.19-.95,.33-1.55,.27-2.44,1.38-.49,.41-3.47,.32-4.94-1.87,.32-1.77-1.64-3.13,.33,.11-.25,.25,.25,.44,1.22,.08,.22,.13,.47,.26,.61-.06-.02-.12-.05-.18-.08,.16,.96,.33,2.21,.51,3.64-1.08-1.06-2.01-2.19-1.14-3.93-1.29-.63-2.62-1.32-3.25-1.73,2.41-2.29,3.39-6.32,4.95-7.04-1.54-4.38-1.86-10.5-5.71-12.92-.6-1.22,.85-1.58,1.35-2.12,.44,.7,.48,1.58,1.03,1.92-1.19-2.45-1.21-7.52-3.75-7.84,.74-3.34,2.48,1.54,1.56-2.82l.82,.51c2.92-9.16-7.95-13.36-4.08-23.59-.23,.7-.33,1.06-.73,1.24,.87-11.25-4.93-22.31-2.86-33.58,.3-3.17-1.32-3.29-2.77-5l1.92-.94-2.76-2.89c-2.33-4.3,3.84-8.56-.2-13.86l-1.25,.94c-.04-2.1-1.74-6.42-.14-6.3-.28-.18-1.51-.47-.92-1.38l1.04-.22-2.55-4.8c.17-4.04,4.26-.01,3.59-5.79-.73-2.07-4.01-5.61-4.58-4.7,.09,.88-.3,2.31-1.34,2.54l-.85-1.86c-3.15,.15-6.54-.82-7.95,4.24l2.4,3.01-1.34,1.3-.52-2.77c-1.17,1.79,.23,2.6,1.26,3.6-.76,.39-1.24,.94-1.44,1.64l3.44,2.81c-1.15,.57-2.62-1.1-2.96,1.18,1.6,1.32,2.5-1.87,3.77,.53-1.17,1.8-2.39,1.5-.91,3.19-.76,.38-1.32,.06-1.78-.63,1.2,1.52,1.04,4.33,2.81,4.95-1.5,1.9,1.25,5.54-1.7,5.79,.78,.42,2.71,2.6,3.05,4.11-3.9-2.3,.59,5.74-3.28,5.52,3.44,1.63,2.42,7.26,4.66,10.68-.28-.17-.84-.5-.72-.85,.01,2.09-.86,2.82-1.28,4.22,2.64-.08,3.66,3.05,5.5,4.57-2.19,2.85-3.27-1.13-5.58-.02,2.1-.4,2.68,4.11,4.33,3.02-1.31,2.13-.54,1.76-2.58,3.04,3.31-.08,.79,1.73,3,3.07-1.25,3-2.97,1.11-1.59,4.05-.82,1.59-2.32-1-2.32-1Zm14.08,72.49h-.04c-.11-.62-.21-1.16-.27-1.5,.06,.31,.15,.74,.3,1.5Zm.66,6.16c0-.76-.09-1.69-.2-2.68,.63-.28,1.32-.12,1.35,.51-.47-.29-.69,1.2-1.15,2.17Zm11.66-14.41c.37,.95,.04,1.32-.34,1.49-.08-.46-.2-.99-.41-1.69-.07-.02-.16-.07-.24-.09,.37,.06,.72,.13,.98,.29Z"/><path class="e" d="M768.26,251.38c-.06-.14-.14-.21-.18-.39-.15,.22-.27,.42-.36,.63l.63,.28-.08-.52Z"/><path class="e" d="M765.95,813.17l.06-.12c-.09,.1-.18,.18-.31,.23,.1-.07,.16-.06,.24-.11Z"/><polygon class="e" points="763.25 352.74 763.73 352.69 763.27 352.19 763.25 352.74"/><path class="e" d="M753.6,845.65c-.18,.03-.37,.12-.56,.34,.12,0,.33-.15,.56-.34Z"/><path class="e" d="M750.24,859.96l-1.11,1.88c.57-.8,.89-1.4,1.11-1.88Z"/><path class="e" d="M746.86,870.76c.29,.21,.53,.31,.74,.4,0,0,0-.01,.02-.02l-.76-.38Z"/><path class="e" d="M769.08,692.87c0-.15-.02-.3-.06-.44-.3-1.04-.2-.34,.06,.44Z"/><path class="e" d="M768.96,746.55c-.28-.6-.56-1.19-.72-1.8-.24,.93-.35,1.67,.72,1.8Z"/><path class="e" d="M769.78,633.17s.02,0,.03,0c0-.13,0-.24,.01-.37l-.05,.36Z"/><path class="e" d="M768.52,742.27c-.47,.91-.47,1.71-.28,2.47,.2-.76,.49-1.66,.28-2.47Z"/><path class="e" d="M733.6,917.72l-.24,.49c.12,.03,.21,.09,.27,.15l-.03-.64Z"/><path class="e" d="M733.64,918.36l.03,.64c.08-.26,.14-.5-.03-.64Z"/><path class="e" d="M733.75,920.35l-.07-1.35c-.14,.42-.36,.91,.07,1.35Z"/><path class="e" d="M738.6,903.66l-.61-.35c.11,.13,.31,.24,.61,.35Z"/><path class="e" d="M739.58,899.23c-.43,1-2.11,2.23-2.08,3.8l.49,.28c-.8-.95,2.44-2.79,1.59-4.08Z"/><path class="e" d="M752.5,882.91l-1.44,3.6c.87-.48,2.03-1.1,1.78,.64,3.26-4.19-1.82,.58-.34-4.24Z"/><path class="e" d="M756.26,871.55c-.12,2.09,1.04,.21,1.42,.41-.36-1.43-.46-1.77-1.42-.41Z"/><path class="e" d="M771.36,786.83l1.67,.44c-.03-1.61-.66-.1-1.67-.44Z"/><polygon class="e" points="764.64 769.45 763.39 770.85 764.86 771.76 764.64 769.45"/><polygon class="e" points="777.93 761.27 778.09 761.98 777.77 759.27 777.93 761.27"/><path class="e" d="M786.85,617l-2.13,.43c.35,1.08,2.72,1.37,2.13-.43Z"/><path class="e" d="M785.3,554.67c1.06-.68,1.73-2.44,.69-3.51-.14,1.4-.96,2.8-.69,3.51Z"/><polygon class="e" points="781.4 367.92 782.2 369.12 781.44 366.81 781.4 367.92"/></g><path class="d" d="M174.32,281.25s325.71,104.52,722.51,0c0,0,12.73,42.46,9.37,77.01,0,0-404.22,94.2-744.43-8.25,0,0-1.74-61.19,12.55-68.76Z"/><path class="d" d="M161.7,665.89s338.33,104.52,735.13,0c0,0,14.19,42.88-1.35,79.35,0,0-393.5,91.86-733.71-10.59,0,0-14.36-61.19-.07-68.76Z"/></svg>